<svg width="277" height="80" viewBox="0 0 277 80" fill="none" xmlns="http://www.w3.org/2000/svg">
<path d="M136.053 51.5145C136.053 59.9306 129.497 63.815 120.91 63.815C116.201 63.815 111.493 62.5665 108.399 60.5318V51.9306C112.093 54.7977 116.617 56.4624 120.68 56.4624C124.742 56.4624 127.42 55.0289 127.42 51.9306C127.42 48.6474 124.973 47.3988 119.849 46.1965C111.446 44.3468 107.984 40.8786 107.984 33.896C107.984 25.6647 114.124 21.5954 122.342 21.5954C126.866 21.5954 130.559 22.6127 134.022 24.6936V32.8324C130.559 30.3815 127.051 28.7168 122.757 28.7168C118.879 28.7168 116.802 30.5665 116.802 33.2486C116.802 35.9306 118.464 37.3642 123.173 38.5665C132.129 40.8324 136.053 44.1156 136.053 51.5145ZM92.1948 63.5838H100.413V0H92.1948V63.5838ZM75.8057 63.5838H84.0233V0H75.8057V63.5838ZM15.1427 14.7514C15.1427 9.80347 17.4048 8 21.0982 8C23.7758 8 25.8072 8.83237 28.0693 10.2659V2.03468C25.8072 0.601156 23.3603 0 20.0825 0C11.8648 0 6.371 4.94798 6.371 14.9827V22.5665H0V30.1503H6.371V63.5838H15.3735V30.1503H28.9003V22.5665H15.1888V14.7514H15.1427ZM58.17 55.815C55.8686 56.2216 53.5357 56.4227 51.1988 56.4162C45.2433 56.4162 41.55 54.1503 41.55 48.185V22.5202H32.7322V48.7861C32.7783 60.1156 39.9342 63.815 51.4297 63.815C56.1387 63.815 62.5097 63.2139 67.2187 61.9653V22.5665H58.17V55.815ZM151.611 49.2486V29.9653H163.107V22.5665H151.611V12.3006H142.609V22.5665H137.3V30.1503H142.84V51.2832C142.84 60.5318 148.38 63.815 154.935 63.815C158.35 63.8866 161.729 63.108 164.769 61.5491V53.3179C162.322 54.7514 160.06 55.5838 157.382 55.5838C153.643 55.815 151.611 54.1503 151.611 49.2486ZM229.264 21.9191C223.74 21.9453 218.311 23.3604 213.475 26.0347V63.5838H222.477V31.5838C224.627 30.7522 226.913 30.3288 229.218 30.3353C230.657 30.3592 232.093 30.4984 233.511 30.7514L230.233 21.9191H229.264ZM267.767 22.5665L256.502 54.3815L244.822 22.5665H235.173L251.978 64.6474L246.253 80H255.071L277 22.5202L267.767 22.5665V22.5665ZM207.935 42.6821C207.935 55.2139 199.117 63.815 187.021 63.815C174.926 63.815 166.108 55.2139 166.108 42.6821C166.108 30.1503 174.926 21.5491 187.021 21.5491C199.117 21.5491 207.935 30.1503 207.935 42.6821ZM198.748 42.6821C198.748 34.4509 193.808 29.3642 186.883 29.3642C180.142 29.3642 175.203 34.4971 175.203 42.6821C175.203 50.8671 180.142 56 186.883 56C193.808 56 198.748 50.8671 198.748 42.6821Z" fill="#0A151B"/>
</svg>
