<svg width="250" height="80" viewBox="0 0 250 80" fill="none" xmlns="http://www.w3.org/2000/svg">
<path d="M12.4167 0H0L17.7083 58.7234C17.7457 58.8114 17.7978 58.884 17.8598 58.9343C17.9218 58.9846 17.9916 59.0111 18.0625 59.0111C18.1334 59.0111 18.2032 58.9846 18.2652 58.9343C18.3272 58.884 18.3793 58.8114 18.4167 58.7234L24.2917 38.4802L12.4167 0ZM50.25 0C50.25 0 31.2083 63.5866 28.6667 69.4833C25.7083 76.2918 23.75 78.9058 20.0833 79.7568C20.0417 79.7568 20.0417 79.8176 20.0417 79.8784C20.0435 79.9097 20.0529 79.9391 20.0682 79.9613C20.0834 79.9836 20.1035 79.9973 20.125 80H31.5C36.4167 80 40 73.9818 41.9583 68.693C44.2083 62.6748 62.9167 0.0607903 62.9167 0.0607903H50.25V0ZM100 51.003C99.9583 51.0638 99.875 51.0638 99.875 51.003L90.4167 20.8511H85.125C85.125 20.8511 94.875 52.8267 95.8333 55.2584C96.7917 57.5684 97.9167 59.5137 99.9583 59.5137C102 59.5137 103.125 57.5684 104.083 55.2584C105.042 52.9483 114.792 20.8511 114.792 20.8511H109.458L100 51.003ZM128.792 53.617C123.667 53.617 120.292 48.7538 120.292 39.9392C120.292 31.1246 123.667 26.2614 128.792 26.2614C133.917 26.2614 137.292 31.1246 137.292 39.9392C137.292 48.7538 133.917 53.617 128.792 53.617ZM128.792 19.9392C120.75 19.9392 115.583 27.538 115.583 39.9392C115.583 52.3404 120.75 59.9392 128.792 59.9392C136.833 59.9392 142 52.3404 142 39.9392C142 27.538 136.833 19.9392 128.792 19.9392V19.9392ZM169.167 20.8511V59.0881H163.708L151.042 31.1246V59.0881H146.417V20.8511H151.875L164.542 48.997V20.8511H169.167ZM181.583 43.4043L186.167 27.7812C186.208 27.7204 186.292 27.7204 186.292 27.7812L190.875 43.4043H181.583ZM186.208 20.4255C184.292 20.4255 183.125 22.5532 182.375 24.6808C181.625 26.8085 172.167 59.0881 172.167 59.0881H177L179.708 49.848H192.75L195.458 59.0881H200.292C200.292 59.0881 190.875 26.8085 190.083 24.6808C189.292 22.5532 188.125 20.4255 186.208 20.4255V20.4255ZM213.417 44.3161H221.708C221.667 50.2736 217.875 53.617 213.833 53.617C208.792 53.617 205.458 48.7538 205.458 39.9392C205.458 30.4559 208.5 26.2006 214.083 26.2006C217.583 26.2006 220.458 28.2675 221.083 33.0699H225.875C225.042 24.6809 219.708 19.9392 213.792 19.9392C205.875 19.9392 200.792 27.538 200.792 39.9392C200.792 52.3404 205.875 59.7568 213.792 59.7568C217.125 59.7568 220.5 57.1429 221.667 54.4073V59.0274H226.125V38.4195H213.375L213.417 44.3161ZM250 27.234V20.8511H231.167V59.0881H250V52.7052H235.792V42.6748H248.875V36.2918H235.792V27.2948H250V27.234Z" fill="#0A151B"/>
</svg>
