<svg width="314" height="80" viewBox="0 0 314 80" fill="none" xmlns="http://www.w3.org/2000/svg">
<g clip-path="url(#clip0_2_93)">
<path d="M140.834 37.2559C147.845 37.2559 152.344 42.4878 152.344 50.2309C152.344 57.974 147.583 63.2059 140.834 63.2059C138.429 63.2398 136.103 62.3397 134.347 60.6946C134.086 60.433 133.824 60.6946 133.824 60.9562V72.4662C133.824 72.7278 133.824 72.7278 133.563 72.7278H128.069C127.808 72.7278 127.808 72.7278 127.808 72.4662V37.9884C127.808 37.7268 127.808 37.7268 128.069 37.7268H131.836C131.97 37.7055 132.108 37.7184 132.236 37.7641C132.364 37.8098 132.478 37.8869 132.568 37.9884L133.824 39.7149C134.086 39.9765 134.347 39.9765 134.557 39.7149C135.551 38.25 138.323 37.2559 140.834 37.2559ZM139.84 42.7494C135.864 42.7494 133.824 45.9931 133.824 50.2309C133.824 55.2011 135.812 57.7124 139.84 57.7124C144.078 57.7124 146.328 54.4687 146.328 50.2309C146.066 45.7315 144.078 42.7494 139.84 42.7494ZM304.374 66.5019C302.124 72.5185 301.863 72.7278 296.37 72.7278H289.15C288.888 72.7278 288.888 72.7278 288.888 72.4662V67.7052C288.888 67.4436 288.888 67.4436 289.15 67.4436H295.166C298.41 67.4436 298.41 66.4496 297.154 62.4734L288.888 37.7268C288.888 37.4652 288.888 37.4652 289.15 37.4652H294.905C295.166 37.4652 295.166 37.4652 295.166 37.7268L301.183 56.98C301.183 57.2416 301.706 57.2416 301.706 56.98L307.722 37.7268C307.721 37.6923 307.728 37.6579 307.741 37.6259C307.753 37.5938 307.773 37.5647 307.797 37.5402C307.822 37.5158 307.851 37.4966 307.883 37.4837C307.915 37.4708 307.949 37.4645 307.984 37.4652H313.738C314 37.4652 314 37.4652 314 37.7268C313.895 37.7791 304.374 66.5019 304.374 66.5019V66.5019ZM108.869 63.4674C98.4062 63.4674 93.1223 55.9859 93.1223 45.4699C93.1223 34.9539 98.3539 27.4724 108.869 27.4724C119.385 27.4724 124.616 34.9539 124.616 45.4699C124.616 55.9859 119.333 63.4674 108.869 63.4674V63.4674ZM118.339 45.517C118.339 37.7739 114.833 33.0129 108.869 33.0129C102.644 33.0129 99.4002 37.7739 99.4002 45.517C99.4002 53.2601 102.905 58.0211 108.869 58.0211C114.833 58.0211 118.339 53.2654 118.339 45.517ZM153.076 43.0057C152.815 43.0057 152.815 42.7441 153.076 43.0057L152.815 38.0355C152.815 37.7739 152.815 37.7739 153.076 37.7739H157.052C157.314 37.7739 157.314 37.7739 157.314 37.5123V30.7685C157.314 30.5069 157.314 30.5069 157.576 30.5069H163.069C163.33 30.5069 163.33 30.5069 163.33 30.7685V37.5175C163.33 37.7791 163.33 37.7791 163.592 37.7791H168.562C168.823 37.7791 168.823 37.7791 168.823 38.0407V42.8017C168.823 43.0633 168.823 43.0633 168.562 43.0633H163.592C163.33 43.0633 163.33 43.0633 163.33 43.3249V56.0382C163.33 57.0323 164.063 57.5555 165.057 57.5555H168.562C168.823 57.5555 168.823 57.5555 168.823 57.8171V62.7821C168.823 63.0437 168.823 63.0437 168.562 63.0437H164.795C159.564 63.0437 157.314 61.0556 157.314 56.033V43.3249C157.314 43.0633 157.314 43.0633 157.052 43.0633C157.052 43.011 153.076 43.011 153.076 43.011V43.0057ZM172.799 33.7454L172.538 27.9904C172.538 27.7288 172.538 27.7288 172.799 27.7288H178.293C178.554 27.7288 178.554 27.7288 178.554 27.9904V33.4838C178.554 33.7454 178.554 33.7454 178.293 33.7454H172.799ZM172.799 62.9913C172.538 62.9913 172.538 62.7298 172.799 62.9913L172.538 38.0355C172.538 37.7739 172.538 37.7739 172.799 37.7739H178.293C178.554 37.7739 178.554 37.7739 178.554 38.0355V62.7821C178.554 63.0437 178.554 63.0437 178.293 63.0437H172.799V62.9913ZM212.246 62.9913L211.984 49.0223C211.984 46.0402 210.99 42.7965 207.485 42.7965C203.98 42.7965 202.986 45.5693 202.986 49.0223V62.7821C202.986 63.0437 202.986 63.0437 202.724 63.0437H197.231C196.969 63.0437 196.969 63.0437 196.969 62.7821V49.0276C196.969 46.0454 195.975 42.8017 192.47 42.8017C188.965 42.8017 187.971 45.5746 187.971 49.0276V62.7821C187.971 63.0437 187.971 63.0437 187.709 63.0437H182.216C181.955 63.0437 181.955 63.0437 181.955 62.7821V38.0407C181.955 37.7791 181.955 37.7791 182.216 37.7791H186.977C187.239 37.7791 187.5 37.7791 187.5 38.0407L188.023 39.558C188.023 39.8195 188.285 39.8195 188.547 39.558C189.541 38.5639 192.313 37.0467 194.563 37.0467C197.545 37.0467 199.794 38.3023 201.05 40.0288C201.05 40.2904 201.312 40.2904 201.573 40.0288C203.09 38.5116 205.078 37.0467 208.06 37.0467C214.286 37.0467 218.053 40.552 218.053 48.2951V62.2589C218.053 62.5205 218.053 62.5205 217.791 62.5205H212.298V62.9913H212.246ZM221.976 33.7454L221.715 27.9904C221.715 27.7288 221.715 27.7288 221.976 27.7288H227.47C227.731 27.7288 227.731 27.7288 227.731 27.9904V33.4838C227.731 33.7454 227.731 33.7454 227.47 33.7454H221.976ZM221.976 62.9913C221.715 62.9913 221.715 62.7298 221.976 62.9913L221.715 38.0355C221.715 37.7739 221.715 37.7739 221.976 37.7739H227.47C227.731 37.7739 227.731 37.7739 227.731 38.0355V62.7821C227.731 63.0437 227.731 63.0437 227.47 63.0437H221.976V62.9913ZM231.446 62.9913L231.184 58.0211C231.184 57.7595 231.184 57.7595 231.446 57.4979L243.426 43.7382C243.426 43.7382 243.426 43.215 243.164 43.215H231.916C231.655 43.215 231.655 43.215 231.655 42.9534V37.9832C231.655 37.7216 231.655 37.7216 231.916 37.7216H250.645C250.907 37.7216 250.907 37.7216 250.907 37.9832V43.215L238.979 57.2363C238.979 57.2363 238.979 57.7595 239.241 57.7595H251.483C251.744 57.7595 251.744 57.7595 251.744 58.0211V62.9913C251.744 63.2529 251.744 63.2529 251.483 63.2529H231.498V62.9913H231.446ZM276.437 52.4754H259.225C258.964 52.4754 258.964 52.4754 258.964 52.7369C258.964 55.5098 261.475 57.7072 264.98 57.7072C267.23 57.7072 268.956 57.184 269.741 55.4575C269.882 55.3154 270.066 55.2236 270.264 55.1959H276.019C276.28 55.1959 276.28 55.1959 276.28 55.4575C275.286 60.2185 270.787 63.2006 265.032 63.2006C257.813 63.2006 252.79 57.9688 252.79 50.2257C252.79 42.4825 257.551 37.2507 265.032 37.2507C272.514 37.2507 277.274 42.4878 277.274 50.2257C276.908 51.272 276.908 51.7429 276.437 52.4754V52.4754ZM270.421 47.7667C270.682 45.517 268.904 42.7965 264.928 42.7965C260.952 42.7965 258.911 45.5693 258.911 47.5574C258.911 47.819 258.911 47.819 259.173 47.819H270.421V47.7667ZM280.152 62.9913C279.89 62.9913 279.89 62.7298 280.152 62.9913L279.89 28.3043C279.89 28.0427 279.89 28.0427 280.152 28.0427H285.645C285.906 28.0427 285.906 28.0427 285.906 28.3043V62.7821C285.906 63.0437 285.906 63.0437 285.645 63.0437C285.645 62.9966 280.152 62.9966 280.152 62.9966V62.9913Z" fill="#0A151B"/>
<path d="M29.4538 8.79479C25.7975 12.4404 23.21 17.0184 21.9727 22.0313C16.9685 23.2902 12.3961 25.8747 8.73675 29.5129C5.98861 32.2201 3.80214 35.4435 2.30286 38.9979C0.80357 42.5524 0.020979 46.368 0 50.2257L20.9787 29.246C21.0232 31.0872 21.198 32.923 21.5018 34.7395L0.523159 55.7244C1.0492 58.776 2.05569 61.725 3.50516 64.4615L17.0027 50.9634C16.8529 49.2009 17.1152 47.4278 17.769 45.7842C18.4228 44.1406 19.45 42.6718 20.7694 41.4938C21.3648 40.8435 22.0317 40.2626 22.7574 39.762C24.2963 43.7379 26.5877 47.3795 29.5062 50.4873C32.5014 53.5481 36.1756 55.8603 40.2309 57.2364C39.7849 58.0013 39.1993 58.6756 38.5045 59.2244C37.2585 60.4541 35.7784 61.4211 34.1519 62.0682C32.5253 62.7152 30.7854 63.0292 29.0353 62.9914L15.5378 76.4895C18.2577 77.9769 21.213 78.9856 24.2746 79.4716L45.2532 58.492C47.0697 58.7958 48.9053 58.9706 50.7464 59.0152L29.7677 79.9948C33.5904 79.9971 37.3739 79.2245 40.8897 77.7237C44.4054 76.2229 47.5805 74.0251 50.2233 71.2629C53.99 67.496 56.4488 62.7873 57.966 58.0264C63.0121 56.7263 67.5957 54.0448 71.2019 50.2832C73.926 47.5419 76.0834 44.2908 77.5511 40.7157C79.0188 37.1405 79.7679 33.3112 79.7558 29.4465C79.7436 25.5818 78.9704 21.7574 77.4803 18.1915C75.9902 14.6256 73.8124 11.3882 71.0711 8.66399C68.3299 5.93982 65.079 3.78228 61.504 2.31454C57.929 0.846802 54.0999 0.0976189 50.2354 0.109764C46.3709 0.12191 42.5466 0.895147 38.9809 2.38533C35.4152 3.87551 32.1779 6.05344 29.4538 8.79479V8.79479ZM59.4309 38.5116C54.4608 43.4819 46.4565 43.4819 41.6958 38.5116C36.935 33.5414 36.7258 25.5367 41.6958 20.7757C46.6658 15.8054 54.6701 15.8054 59.4309 20.7757C61.7099 23.1656 62.9814 26.3412 62.9814 29.6437C62.9814 32.9461 61.7099 36.1217 59.4309 38.5116V38.5116ZM20.4555 59.4913C19.49 58.4204 18.6477 57.2446 17.9444 55.9859L5.70243 68.2284C6.53425 69.3854 7.46176 70.4704 8.47517 71.4722C9.44583 72.5185 10.5343 73.4489 11.7188 74.245L23.9607 62.0026C22.7438 61.2354 21.5733 60.3968 20.4555 59.4913V59.4913Z" fill="#0A151B"/>
</g>
<defs>
<clipPath id="clip0_2_93">
<rect width="314" height="80" fill="white"/>
</clipPath>
</defs>
</svg>
