<svg width="263" height="80" viewBox="0 0 263 80" fill="none" xmlns="http://www.w3.org/2000/svg">
<path d="M194.62 29.6817H190.894C190.703 29.6842 190.518 29.7442 190.361 29.8538C190.205 29.9634 190.085 30.1176 190.017 30.2964C189.842 30.8233 189.711 31.1745 189.667 31.3941L182.96 51.5478C182.916 51.7234 182.697 52.2064 182.347 52.9967C182.305 53.0767 182.242 53.1437 182.164 53.1904C182.087 53.2371 181.999 53.2618 181.908 53.2618C181.818 53.2618 181.73 53.2371 181.652 53.1904C181.575 53.1437 181.512 53.0767 181.47 52.9967C181.251 52.5137 181.076 52.0307 180.9 51.5478L174.106 30.7794L173.974 30.2964C173.916 30.1081 173.8 29.943 173.643 29.8247C173.485 29.7064 173.295 29.641 173.098 29.6378H169.416C169.267 29.6332 169.119 29.6655 168.985 29.7318C168.852 29.7981 168.736 29.8964 168.65 30.0179C168.563 30.1395 168.508 30.2806 168.488 30.4287C168.469 30.5768 168.487 30.7274 168.539 30.8672L168.671 31.2184L179.015 60.1537L179.059 60.2415C179.144 60.4527 179.144 60.6889 179.059 60.9001L178.884 61.5148C178.561 62.3942 177.975 63.1525 177.206 63.6867C176.438 64.2209 175.524 64.505 174.588 64.5005H170.731C170.487 64.5017 170.254 64.5992 170.081 64.7719C169.909 64.9446 169.811 65.1784 169.81 65.4226V68.4083C169.807 68.5303 169.829 68.6515 169.874 68.7647C169.919 68.878 169.987 68.9808 170.073 69.067C170.159 69.1533 170.262 69.2211 170.375 69.2664C170.488 69.3116 170.609 69.3334 170.731 69.3304H174.588C176.418 69.3405 178.212 68.8192 179.752 67.8295C181.292 66.8399 182.513 65.4243 183.267 63.7541L183.442 63.315C183.486 63.1833 186.248 55.5873 195.277 30.5159C195.298 30.4167 195.297 30.3142 195.273 30.2156C195.25 30.117 195.206 30.0247 195.143 29.9452C195.08 29.8657 195.001 29.8009 194.911 29.7554C194.82 29.7098 194.721 29.6847 194.62 29.6817ZM145.439 55.4995C146.33 55.7943 147.262 55.9426 148.201 55.9385C150.93 55.909 153.547 54.8417 155.521 52.9528C156.228 52.2561 156.783 51.4208 157.153 50.499C157.522 49.5772 157.698 48.5889 157.669 47.596V45.2689C157.667 45.1412 157.616 45.019 157.526 44.9287C157.436 44.8383 157.314 44.7871 157.186 44.786L156.485 44.8738L153.592 45.225L147.85 46.1032C144.738 46.5862 142.897 47.8595 142.283 49.7475C142.104 50.2092 142.014 50.7011 142.02 51.1965C141.976 53.2162 143.423 54.9287 145.439 55.4995V55.4995ZM162.797 57.5192V59.3194C162.796 59.5636 162.698 59.7975 162.526 59.9702C162.354 60.1428 162.12 60.2403 161.876 60.2415H158.896C158.774 60.2445 158.653 60.2227 158.54 60.1774C158.427 60.1322 158.324 60.0644 158.238 59.9781C158.152 59.8919 158.084 59.7891 158.039 59.6758C157.994 59.5626 157.972 59.4413 157.975 59.3194L157.931 56.3337C157.931 56.288 157.918 56.2434 157.893 56.2051C157.868 56.1669 157.833 56.1367 157.791 56.1181C157.749 56.0996 157.703 56.0935 157.658 56.1006C157.613 56.1076 157.571 56.1276 157.537 56.1581L157.011 56.685C154.6 59.056 151.313 60.2415 147.105 60.2415C144.08 60.2415 141.582 59.4512 139.653 57.8266C137.724 56.202 136.76 54.0505 136.76 51.1526C136.72 49.8019 137.006 48.4614 137.593 47.2448C138.091 46.2203 138.846 45.3428 139.784 44.6981C140.609 44.1384 141.491 43.6674 142.414 43.2931C143.265 42.9812 144.147 42.7604 145.044 42.6345C149.515 42.0198 151.926 41.6685 152.365 41.5807C152.803 41.4929 154.206 41.3611 156.748 41.0099L157.274 40.9221C157.38 40.9059 157.478 40.8533 157.55 40.7733C157.622 40.6932 157.664 40.5906 157.669 40.483V39.2097C157.669 37.3216 157.186 35.8288 156.134 34.775C155.082 33.7212 153.241 33.1943 150.524 33.1943C149.279 33.1739 148.039 33.3366 146.842 33.6773C145.937 33.9342 145.129 34.4536 144.519 35.1701C144.085 35.6772 143.743 36.2568 143.51 36.8825C143.432 37.0812 143.373 37.2871 143.335 37.4973C143.291 37.7087 143.175 37.8984 143.007 38.0344C142.84 38.1703 142.63 38.2443 142.414 38.2437H138.996C138.867 38.2443 138.74 38.2179 138.622 38.1661C138.504 38.1144 138.398 38.0385 138.312 37.9434C138.225 37.8482 138.159 37.7359 138.118 37.6137C138.077 37.4915 138.063 37.3621 138.075 37.2338V37.0582C138.119 36.7069 138.163 36.4435 138.206 36.18C138.421 35.2947 138.776 34.4497 139.259 33.6773C139.804 32.7855 140.519 32.0097 141.362 31.3941C142.453 30.6403 143.671 30.09 144.957 29.7695C146.731 29.305 148.559 29.0834 150.392 29.1109C158.721 29.1109 162.797 32.36 162.797 38.9901V57.5192ZM231.177 30.3403V59.1877C231.178 59.4319 231.276 59.6658 231.448 59.8384C231.62 60.0111 231.854 60.1086 232.097 60.1098H235.823C236.065 60.101 236.294 60.0011 236.465 59.83C236.635 59.659 236.735 59.4295 236.744 59.1877V30.3403C236.743 30.0961 236.645 29.8622 236.473 29.6896C236.301 29.5169 236.067 29.4194 235.823 29.4182H232.097C231.854 29.4194 231.62 29.5169 231.448 29.6896C231.276 29.8622 231.178 30.0961 231.177 30.3403V30.3403ZM231.177 21.1636V24.8079C231.178 25.0521 231.276 25.286 231.448 25.4586C231.62 25.6313 231.854 25.7288 232.097 25.73H235.823C235.945 25.733 236.066 25.7112 236.179 25.6659C236.292 25.6206 236.395 25.5528 236.481 25.4666C236.567 25.3804 236.635 25.2775 236.68 25.1643C236.725 25.0511 236.747 24.9298 236.744 24.8079V21.1636C236.747 21.0416 236.725 20.9204 236.68 20.8072C236.635 20.6939 236.567 20.5911 236.481 20.5049C236.395 20.4186 236.292 20.3508 236.179 20.3055C236.066 20.2603 235.945 20.2385 235.823 20.2415H232.097C231.854 20.2426 231.62 20.3402 231.448 20.5128C231.276 20.6855 231.178 20.9194 231.177 21.1636V21.1636ZM254.19 34.2481H262.08C262.323 34.2469 262.557 34.1494 262.729 33.9767C262.901 33.8041 262.999 33.5702 263 33.326V30.3403C262.999 30.0961 262.901 29.8622 262.729 29.6896C262.557 29.5169 262.323 29.4194 262.08 29.4182H254.19C254.062 29.4171 253.94 29.3658 253.85 29.2755C253.76 29.1852 253.708 29.063 253.707 28.9352V21.1636C253.706 20.9194 253.609 20.6855 253.436 20.5128C253.264 20.3402 253.031 20.2426 252.787 20.2415H249.061C248.939 20.2385 248.818 20.2603 248.705 20.3055C248.592 20.3508 248.49 20.4186 248.403 20.5049C248.317 20.5911 248.25 20.6939 248.204 20.8072C248.159 20.9204 248.137 21.0416 248.14 21.1636V28.9352C248.139 29.063 248.088 29.1852 247.998 29.2755C247.908 29.3658 247.786 29.4171 247.658 29.4182H244.239C244.118 29.4152 243.997 29.437 243.884 29.4823C243.771 29.5275 243.668 29.5954 243.582 29.6816C243.496 29.7678 243.428 29.8707 243.383 29.9839C243.338 30.0971 243.316 30.2184 243.319 30.3403V33.326C243.32 33.5702 243.417 33.8041 243.59 33.9767C243.762 34.1494 243.996 34.2469 244.239 34.2481H247.658C247.786 34.2492 247.908 34.3005 247.998 34.3908C248.088 34.4811 248.139 34.6033 248.14 34.7311V51.1526C248.243 53.5831 249.282 55.8793 251.039 57.558C252.797 59.2367 255.136 60.1672 257.565 60.1537H261.729C261.973 60.1525 262.206 60.055 262.378 59.8823C262.551 59.7097 262.648 59.4758 262.649 59.2316V56.2459C262.648 56.0017 262.551 55.7678 262.378 55.5952C262.206 55.4225 261.973 55.325 261.729 55.3238H257.565C257.061 55.3279 256.561 55.2322 256.094 55.0422C255.627 54.8522 255.202 54.5716 254.844 54.2167C254.485 53.8617 254.2 53.4394 254.005 52.9738C253.81 52.5083 253.709 52.0087 253.707 51.5038V34.7311C253.716 34.6057 253.769 34.4876 253.858 34.3987C253.946 34.3099 254.064 34.2563 254.19 34.2481V34.2481ZM132.596 32.6674C132.596 25.9056 127.117 20.4171 120.279 20.2415H102.482C102.361 20.2385 102.24 20.2603 102.127 20.3055C102.014 20.3508 101.911 20.4186 101.825 20.5049C101.739 20.5911 101.671 20.6939 101.626 20.8072C101.581 20.9204 101.559 21.0416 101.562 21.1636V59.1877C101.563 59.4319 101.66 59.6658 101.833 59.8384C102.005 60.0111 102.239 60.1086 102.482 60.1098H106.208C106.452 60.1086 106.685 60.0111 106.858 59.8384C107.03 59.6658 107.128 59.4319 107.129 59.1877V45.5324C107.123 45.4711 107.129 45.4093 107.149 45.3508C107.168 45.2924 107.199 45.2387 107.24 45.1931C107.282 45.1476 107.332 45.1112 107.388 45.0865C107.445 45.0617 107.506 45.0491 107.567 45.0494H120.191C123.464 45.0176 126.594 43.7042 128.912 41.3902C131.23 39.0762 132.552 35.9454 132.596 32.6674V32.6674ZM127.643 32.6674C127.635 33.6682 127.431 34.6576 127.041 35.5791C126.651 36.5006 126.084 37.336 125.371 38.0375C124.659 38.739 123.815 39.2929 122.889 39.6673C121.962 40.0417 120.971 40.2294 119.972 40.2195H107.611C107.549 40.2198 107.489 40.2072 107.432 40.1825C107.376 40.1577 107.326 40.1214 107.284 40.0758C107.243 40.0303 107.212 39.9765 107.192 39.9181C107.173 39.8596 107.166 39.7978 107.172 39.7366V25.5543C107.166 25.4931 107.173 25.4312 107.192 25.3728C107.212 25.3143 107.243 25.2606 107.284 25.2151C107.326 25.1695 107.376 25.1332 107.432 25.1084C107.489 25.0837 107.549 25.071 107.611 25.0713H119.972C121.994 25.0608 123.938 25.855 125.377 27.2792C126.815 28.7035 127.63 30.6415 127.643 32.6674V32.6674ZM206.806 44.9616H220.832C221.076 44.9604 221.31 44.8629 221.482 44.6902C221.654 44.5176 221.752 44.2837 221.753 44.0395V41.0538C221.752 40.8096 221.654 40.5757 221.482 40.4031C221.31 40.2304 221.076 40.1329 220.832 40.1317H206.806C206.685 40.1322 206.569 40.0874 206.479 40.0061C206.39 39.9248 206.334 39.813 206.324 39.6926V25.5982C206.325 25.4705 206.376 25.3483 206.466 25.258C206.556 25.1677 206.678 25.1164 206.806 25.1153H224.032C224.276 25.1141 224.509 25.0166 224.682 24.8439C224.854 24.6712 224.952 24.4374 224.953 24.1932V21.2075C224.952 20.9633 224.854 20.7294 224.682 20.5567C224.509 20.3841 224.276 20.2866 224.032 20.2854H201.677C201.555 20.2824 201.434 20.3042 201.321 20.3495C201.208 20.3947 201.106 20.4625 201.02 20.5488C200.933 20.635 200.866 20.7378 200.821 20.8511C200.775 20.9643 200.754 21.0856 200.757 21.2075V59.2316C200.754 59.3535 200.775 59.4748 200.821 59.588C200.866 59.7012 200.933 59.8041 201.02 59.8903C201.106 59.9765 201.208 60.0444 201.321 60.0896C201.434 60.1349 201.555 60.1567 201.677 60.1537H205.403C205.647 60.1525 205.88 60.055 206.053 59.8823C206.225 59.7097 206.322 59.4758 206.324 59.2316V45.4446C206.332 45.3192 206.385 45.2011 206.474 45.1122C206.563 45.0234 206.68 44.9698 206.806 44.9616V44.9616ZM40.5897 0C62.9885 0 81.1355 17.9144 81.1355 40C81.1355 62.0856 62.9885 80 40.5897 80C18.1908 80 0 62.0856 0 40C0 17.9144 18.147 0 40.5897 0ZM33.0065 21.3831H27.0013C26.7856 21.3825 26.5763 21.4564 26.4086 21.5924C26.2409 21.7284 26.1252 21.9181 26.0808 22.1295V54.3579C26.0808 56.2444 26.829 58.0536 28.1607 59.3875C29.4924 60.7215 31.2985 61.4709 33.1818 61.4709C35.0651 61.4709 36.8713 60.7215 38.203 59.3875C39.5347 58.0536 40.2828 56.2444 40.2828 54.3579V46.2788C40.2808 46.1761 40.3147 46.0759 40.3788 45.9957C40.4429 45.9154 40.533 45.8603 40.6335 45.8397L40.765 45.7958H50.233C53.4085 45.6998 56.4211 44.3658 58.6292 42.0779C60.8374 39.79 62.0666 36.729 62.0552 33.5467C62.0438 30.3644 60.7926 27.3123 58.568 25.0404C56.3435 22.7685 53.3214 21.4562 50.1453 21.3831H33.0065V21.3831ZM41.1595 24.9835H49.707C50.8352 24.9605 51.9569 25.1602 53.0081 25.5714C54.0593 25.9826 55.0193 26.5971 55.8333 27.38C56.6474 28.1628 57.2996 29.0986 57.7526 30.1339C58.2056 31.1691 58.4506 32.2837 58.4737 33.4138C58.4967 34.544 58.2973 35.6676 57.8868 36.7205C57.4763 37.7735 56.8628 38.7351 56.0813 39.5506C55.2998 40.366 54.3656 41.0193 53.3321 41.4731C52.2985 41.9269 51.1859 42.1723 50.0577 42.1954H40.765C40.7036 42.1957 40.6427 42.1831 40.5865 42.1583C40.5302 42.1335 40.4798 42.0972 40.4385 42.0517C40.3971 42.0061 40.3658 41.9524 40.3466 41.8939C40.3273 41.8355 40.3205 41.7736 40.3267 41.7124V35.8727C40.3205 35.8114 40.3273 35.7496 40.3466 35.6911C40.3658 35.6327 40.3971 35.5789 40.4385 35.5334C40.4798 35.4879 40.5302 35.4515 40.5865 35.4268C40.6427 35.402 40.7036 35.3894 40.765 35.3897H49.707C50.1878 35.3898 50.6495 35.2016 50.9935 34.8652C51.3375 34.5288 51.5366 34.0709 51.548 33.5895C51.5457 33.35 51.4962 33.1133 51.4023 32.8931C51.3085 32.6729 51.1721 32.4734 51.001 32.3061C50.8299 32.1388 50.6276 32.007 50.4055 31.9183C50.1834 31.8296 49.946 31.7858 49.707 31.7892H37.5652C37.3214 31.7904 37.0879 31.8879 36.9155 32.0606C36.7432 32.2333 36.6458 32.4671 36.6447 32.7113V54.1383C36.6623 54.6069 36.586 55.0742 36.4204 55.5128C36.2548 55.9514 36.0032 56.3524 35.6805 56.692C35.3578 57.0317 34.9704 57.3031 34.5413 57.4905C34.1121 57.6778 33.6499 57.7771 33.1818 57.7827C32.7296 57.7867 32.2811 57.7012 31.862 57.5311C31.4429 57.3609 31.0615 57.1095 30.7397 56.7913C30.4179 56.473 30.1621 56.0942 29.9869 55.6766C29.8118 55.259 29.7207 54.8108 29.719 54.3579V25.4226C29.719 25.3062 29.7652 25.1945 29.8474 25.1121C29.9296 25.0298 30.0411 24.9835 30.1573 24.9835H41.1595Z" fill="#0A151B"/>
</svg>
