<svg width="359" height="81" viewBox="0 0 359 81" fill="none" xmlns="http://www.w3.org/2000/svg">
<g clip-path="url(#clip0_2_74)">
<path d="M117.728 34.2671H80.0127V41.4313H95.2302V80.0581H102.57V41.4313H117.728V34.2671Z" fill="#0A151B"/>
<path d="M132.051 79.8194C124.472 79.8194 118.206 75.103 115.759 67.3418C114.194 62.8925 114.43 58.0077 116.415 53.7298C118.444 49.7298 122.025 46.8045 126.68 45.2522C127.992 44.8687 129.328 44.5696 130.678 44.3567H132.468C139.809 44.3567 146.075 49.2522 148.521 56.8343L149.417 59.5209L123.278 67.7597L123.517 68.1776C124.439 69.7917 125.766 71.1368 127.368 72.0793C128.969 73.0218 130.789 73.5291 132.647 73.5507H133.781C134.609 73.4988 135.43 73.3588 136.228 73.1328C140.943 71.5806 142.494 68.2373 143.151 65.5507V65.1328L149.834 62.9239V64.0582C149.417 71.2224 145.12 76.5358 138.018 78.8044C136.706 79.1879 135.371 79.487 134.02 79.7C133.368 79.7924 132.709 79.8324 132.051 79.8194V79.8194ZM131.812 50.5656H130.678C129.85 50.6175 129.03 50.7576 128.231 50.9836C123.517 52.5358 120.891 56.3567 121.07 61.491V61.9089L140.465 55.6403V55.4015C138.257 52.3567 135.393 50.5656 131.812 50.5656" fill="#0A151B"/>
<path d="M154.608 79.5805V45.1924H161.292V50.5656L161.949 49.9089C163.222 48.2817 164.854 46.9714 166.717 46.0806C168.581 45.1899 170.625 44.7428 172.69 44.7745H173.824V51.2223H172.452C165.291 51.2223 161.531 57.9089 161.531 64.4163V79.5805H154.608Z" fill="#0A151B"/>
<path d="M223.117 79.5804V59.0431C223.117 54.1476 220.014 50.8043 215.777 50.8043C211.779 50.8043 207.721 53.4909 207.721 59.2819V79.5804H201.037V59.0431C201.037 54.1476 197.934 50.8043 193.697 50.8043C189.698 50.8043 185.64 53.4909 185.64 59.2819V79.5804H178.957V45.1924H185.581V48.5357L185.998 48.1178C188.346 45.8943 191.479 44.6922 194.711 44.7745C196.723 44.803 198.7 45.3041 200.483 46.2374C202.266 47.1707 203.805 48.5101 204.976 50.1476L205.214 50.5655L205.453 50.1476C206.736 48.4698 208.389 47.1118 210.283 46.1796C212.178 45.2475 214.262 44.7665 216.374 44.7745C222.64 44.7745 229.324 49.67 229.324 59.0431V79.5804H223.117Z" fill="#0A151B"/>
<path d="M237.857 45.1924H244.541V79.5804H237.857V45.1924Z" fill="#0A151B"/>
<path d="M237.619 33.3716H244.78V41.4313H237.619V33.3716Z" fill="#0A151B"/>
<path d="M277.125 79.5805V59.9387C277.125 54.5656 273.783 50.9835 268.65 50.9835C267.447 50.9683 266.253 51.1941 265.138 51.6478C264.024 52.1014 263.011 52.7737 262.16 53.6249C261.309 54.4762 260.637 55.4892 260.184 56.6043C259.73 57.7194 259.505 58.9141 259.52 60.1178V79.7596H252.836V45.1328H259.52V48.7148L259.938 48.2969C262.547 45.8885 265.997 44.6021 269.546 44.7148C276.229 44.7148 283.629 49.4313 283.629 59.6999V79.5805H277.125Z" fill="#0A151B"/>
<path d="M305.232 80.297C298.548 80.297 291.149 75.5806 291.149 65.3119V45.4313H297.832V65.0731C297.832 70.4462 301.174 74.0283 306.306 74.0283C307.51 74.0436 308.704 73.8177 309.818 73.364C310.933 72.9104 311.946 72.2381 312.797 71.3869C313.647 70.5356 314.319 69.5226 314.773 68.4075C315.226 67.2924 315.452 66.0977 315.437 64.894V45.2522H322.24V79.5806H315.556V75.9985L314.9 76.4164C312.309 78.9256 308.838 80.3188 305.232 80.297" fill="#0A151B"/>
<path d="M343.425 80.2968C333.4 80.2968 328.685 74.5058 328.267 68.655V67.7595H334.951V68.4162C335.19 70.2072 336.264 74.2073 343.425 74.2073C344.738 74.2073 351.004 73.9684 351.004 69.9684C351.004 67.0431 347.662 66.1475 342.291 65.0729C336.503 63.7595 329.103 62.1475 329.103 55.0431C329.103 48.5953 333.996 44.7744 342.948 44.7744C350.765 44.7744 355.898 48.5953 356.793 54.8043L357.032 55.6998H350.348V55.0431C349.93 52.1177 347.424 50.5655 343.187 50.5655C336.264 50.5655 336.264 53.4908 336.264 54.3864C336.264 57.0729 339.367 57.9684 344.738 59.1028C350.765 60.4162 358.106 62.0281 358.106 69.6102C357.748 76.2371 352.377 80.2968 343.425 80.2968" fill="#0A151B"/>
<path d="M45.8777 38.7447V80.0581H62.5871V33.6104L45.8777 38.7447Z" fill="#0A151B"/>
<path d="M0.105713 53.491V80.0582H17.0539V48.3567L0.105713 53.491Z" fill="#0A151B"/>
<path d="M61.9307 0.296875L63.4823 7.69986L0.105713 39.879V48.7745L20.2167 42.3267L22.1861 41.6103V80.0581H40.9842V35.4014L67.0629 26.9237L68.1967 32.9536L95.4092 6.56553L61.9307 0.296875Z" fill="#0A151B"/>
</g>
<defs>
<clipPath id="clip0_2_74">
<rect width="358" height="80" fill="white" transform="translate(0.105713 0.296875)"/>
</clipPath>
</defs>
</svg>
