<svg width="251" height="81" viewBox="0 0 251 81" fill="none" xmlns="http://www.w3.org/2000/svg">
<g clip-path="url(#clip0_2_160)">
<path d="M60.4506 48.6003L50.7755 48.511C51.8299 44.761 53.8765 41.7253 57.0395 41.7253C59.2722 41.7253 60.5126 43.9575 60.5126 46.9039C60.5126 47.5289 60.4506 48.6003 60.4506 48.6003V48.6003ZM57.2255 29.8503C46.3722 29.761 38.2476 42.1718 38.1856 58.6003C38.1856 69.761 43.7053 79.3146 54.9308 79.4039C62.3732 79.4039 68.203 73.3325 68.203 73.3325L65.4121 61.4575C65.4121 61.4575 60.4506 66.1896 55.613 66.1896C51.5198 66.1896 49.163 63.0646 49.163 57.7075L69.8775 57.7968C70.605 54.8058 71.0229 51.6771 71.1179 48.511C71.2419 37.5289 66.5285 29.9396 57.2255 29.8503Z" fill="#0A151B"/>
<path d="M97.7242 30.1184C93.1967 30.1184 88.6073 34.047 86.7467 38.2434H86.6227C86.9328 36.7256 87.2429 35.1184 87.491 33.6005L87.8011 31.1898L77.1337 31.1005L70.6217 78.422L81.6612 78.5113L84.514 57.6184C85.4443 50.7434 89.1655 44.5827 93.5069 44.5827C95.4915 44.5827 96.4218 45.8327 96.4218 48.6006C96.4213 49.5296 96.359 50.4565 96.2357 51.3684L92.4525 78.5113L103.492 78.6006L107.585 48.8684C107.856 47.1386 108.001 45.3733 108.019 43.6006C108.019 33.6898 103.368 30.1184 97.7242 30.1184" fill="#0A151B"/>
<path d="M125.509 66.6361C122.346 66.6361 120.361 63.4218 120.361 58.2432C120.361 48.9575 124.889 43.6896 128.61 43.6896C132.207 43.6896 133.695 47.6182 133.695 52.0825C133.695 60.9218 129.044 66.6361 125.509 66.6361ZM138.967 12.9753L136.3 32.3503C136.213 33.0596 136.151 33.7748 136.114 34.4932H135.99C134.13 31.2789 130.47 30.2075 127.68 30.2075C117.942 30.2075 109.198 41.8146 109.136 59.3146C109.136 71.636 113.787 79.6718 121.85 79.6718C123.695 79.6753 125.515 79.0551 127.163 77.861C128.811 76.6668 130.241 74.9322 131.339 72.7968H131.463C131.463 72.7968 131.277 73.9575 131.091 75.4753L130.656 78.6003L141.014 78.6896L150.069 13.0646L138.967 12.9753Z" fill="#0A151B"/>
<path d="M164.457 66.7254C160.922 66.7254 158.379 63.5111 158.441 57.9754C158.441 49.3146 163.341 43.6896 167.682 43.6896C171.155 43.6896 173.698 47.0825 173.636 52.7075C173.574 61.3682 168.86 66.7254 164.457 66.7254ZM167.744 30.4754C157.449 30.3861 147.216 42.0825 147.216 58.6896C147.216 71.6361 154.286 79.9396 164.209 80.0289C174.442 80.1182 184.737 68.6004 184.737 51.8146C184.799 38.8682 177.667 30.4754 167.744 30.4754" fill="#0A151B"/>
<path d="M197.575 45.9219C197.575 44.1362 199.56 43.4219 201.172 43.4219C206.072 43.4219 208.801 46.9041 208.801 46.9041L213.576 36.1005C213.576 36.1005 209.111 30.6541 201.234 30.6541C194.226 30.6541 187.404 36.7255 187.404 45.9219C187.342 59.8505 200.366 60.6541 200.366 64.9398C200.366 66.6362 198.506 67.3505 196.769 67.3505C193.749 67.2633 190.83 65.7585 188.458 63.0648L182.939 73.2433C186.889 77.6352 191.717 80.0774 196.707 80.2076C204.956 80.2076 210.599 74.2255 210.599 65.0291C210.661 50.6541 197.575 49.5826 197.575 45.9219Z" fill="#0A151B"/>
<path d="M229.763 67.0825C226.228 67.0825 223.685 63.8682 223.748 58.3325C223.748 49.6718 228.647 44.0468 232.988 44.0468C236.461 44.0468 239.004 47.4396 238.942 53.0646C238.942 61.636 234.167 67.0825 229.763 67.0825ZM233.112 30.7432C222.817 30.6539 212.584 42.3503 212.584 58.9575C212.522 71.9039 219.654 80.2075 229.577 80.2968C239.811 80.386 250.106 68.8682 250.106 52.0825C250.168 39.2253 243.036 30.8325 233.112 30.7432" fill="#0A151B"/>
<path d="M55.675 17.8862L42.4029 0.296875L41.1005 9.67187L23.363 9.58259C14.7423 9.58259 5.56342 17.0826 5.5014 31.1897C5.56342 43.2433 12.4476 48.5112 17.4711 52.3504C20.262 54.4933 22.6808 56.3683 22.6808 58.5112C22.6808 63.4219 17.9673 63.4219 17.7812 63.4219L2.52447 63.3326L0.105713 80.2076L17.5952 80.2969C27.5803 80.2969 35.3947 70.8326 35.3947 58.6004C35.3947 46.3683 28.5726 41.3683 23.549 37.6183C20.6341 35.4754 18.1533 33.6004 18.1533 31.3683C18.1533 27.7076 21.5644 26.5469 23.1769 26.5469L38.8058 26.6362L37.5654 35.7433L55.675 17.8862Z" fill="#0A151B"/>
</g>
<defs>
<clipPath id="clip0_2_160">
<rect width="250" height="80" fill="white" transform="translate(0.105713 0.296875)"/>
</clipPath>
</defs>
</svg>
