<svg width="110" height="62" viewBox="0 0 110 62" fill="none" xmlns="http://www.w3.org/2000/svg">
<path d="M4.11481 12.0502H6.3963C8.5963 12.0502 9.20741 12.8589 9.39753 14.5706L9.50617 15.4602C9.6284 16.5519 9.75062 17.0776 10.0901 17.6302H13.3086V17.3202C12.9012 16.7811 12.7519 16.2689 12.6296 15.4063L12.4531 14.2606C12.1679 12.4411 11.6519 11.6863 9.98148 11.1876V10.9854C11.8284 10.5137 12.9963 9.21976 12.9963 7.18454C12.9963 4.44846 10.7827 3.08715 7.95802 3.08715H0.977778V17.6437H4.11481V12.0502ZM4.11481 5.36498H7.45556C8.96296 5.36498 9.95432 6.10628 9.95432 7.56194C9.95432 9.01759 8.96296 9.78585 7.45556 9.78585H4.11481V5.36498ZM25.9519 17.6302H15.1012V3.07367H25.7481V5.36498H18.2247V9.04454H24.7296V11.3089H18.2247V15.3524H25.9383V17.6302H25.9519ZM26.658 15.9724C26.658 15.0693 27.2012 14.4628 28.0975 14.4628C28.6407 14.4628 29.0481 14.8267 29.3877 15.5141C29.3877 15.5411 29.4691 15.7432 29.6185 16.1476C29.7407 16.5789 29.9309 16.9158 30.1074 17.145C31.0309 17.0641 31.8864 16.3228 31.8864 15.4332C31.8864 14.948 31.4926 14.0719 30.7049 12.7915L30.216 12.0502C29.2111 10.3924 28.9259 9.71846 28.9259 8.72107C28.9259 7.64281 29.3333 6.7802 30.1889 6.13324C31.0173 5.49976 32.0494 5.18976 33.258 5.18976C34.8877 5.18976 36.2185 5.95802 36.2185 7.2115C36.2185 8.11454 35.6753 8.72107 34.779 8.72107C34.2358 8.72107 33.8284 8.35715 33.4889 7.66976C33.4753 7.65628 33.3938 7.41367 33.2716 7.00933C33.1494 6.60498 32.9593 6.26802 32.7827 6.03889C31.8593 6.11976 31.0037 6.86107 31.0037 7.75063C31.0037 8.23585 31.3975 9.11194 32.1852 10.3924L32.6741 11.1337C33.679 12.7915 33.9642 13.4654 33.9642 14.4628C33.9642 15.5411 33.5568 16.3767 32.7284 17.0237C31.8728 17.6841 30.8407 17.9941 29.6321 17.9941C28.0025 17.9941 26.658 17.2258 26.658 15.9724ZM40.2926 8.28976C40.6049 7.54846 40.5235 7.18454 40.0889 7.18454C39.6272 7.18454 39.0025 7.84498 38.2556 9.20628L37.4272 8.9502C38.5815 6.44324 39.858 5.18976 41.216 5.18976C42.2481 5.18976 42.7642 5.70194 42.7642 6.69933C42.7642 7.23846 42.6148 7.85846 42.3296 8.49194L39.6136 14.7593C39.3012 15.5006 39.3827 15.8645 39.8173 15.8645C40.279 15.8645 40.9037 15.2041 41.6778 13.8428L42.5062 14.0989C41.3247 16.6058 40.0617 17.8593 38.6901 17.8593C37.7667 17.8593 37.142 17.3471 37.142 16.3497C37.142 15.8376 37.2914 15.2445 37.5765 14.5571L40.2926 8.28976ZM41.5012 2.93889C40.863 2.29194 40.863 1.11933 41.5012 0.485851C42.1531 -0.147627 43.3346 -0.147627 43.9728 0.485851C44.6111 1.11933 44.6111 2.30541 43.9728 2.93889C43.3346 3.57237 42.1531 3.57237 41.5012 2.93889ZM45.1951 14.4628C45.7383 14.4628 46.1457 14.8267 46.4852 15.5141C46.4852 15.5411 46.5667 15.7432 46.7161 16.1476C46.8383 16.5789 47.0284 16.9158 47.2049 17.145C48.1284 17.0641 48.984 16.3228 48.984 15.4332C48.984 14.948 48.5901 14.0719 47.8025 12.7915L47.3136 12.0502C46.3086 10.3924 46.0235 9.71846 46.0235 8.72107C46.0235 7.64281 46.4309 6.7802 47.2864 6.13324C48.1148 5.49976 49.1469 5.18976 50.3556 5.18976C51.9852 5.18976 53.316 5.95802 53.316 7.2115C53.316 8.11454 52.7728 8.72107 51.8765 8.72107C51.3333 8.72107 50.9259 8.35715 50.5864 7.66976C50.5593 7.64281 50.4778 7.41367 50.3556 7.00933C50.2333 6.60498 50.0432 6.26802 49.8667 6.03889C48.9432 6.11976 48.0877 6.86107 48.0877 7.75063C48.0877 8.23585 48.4815 9.11194 49.2691 10.3924L49.758 11.1337C50.763 12.7915 51.0481 13.4654 51.0481 14.4628C51.0481 15.5411 50.6407 16.3767 49.8123 17.0237C48.9568 17.6841 47.9247 17.9941 46.7161 17.9941C45.0864 17.9941 43.7556 17.2258 43.7556 15.9724C43.742 15.0693 44.2852 14.4628 45.1951 14.4628ZM54.0086 16.3497C54.0086 15.8106 54.1852 15.1232 54.5247 14.3011L57.4444 7.18454H55L55.3667 5.95802H57.8654L58.7481 3.50498L61.3012 3.3028L60.0111 5.9715H62.9037L62.537 7.19802H59.4407L56.5481 14.7728C56.4395 15.0289 56.3988 15.258 56.3988 15.4602C56.3988 15.7432 56.521 15.8645 56.7926 15.8645C57.4173 15.8645 58.2593 15.0963 59.3728 13.5867L60.1741 13.8158C58.7753 16.5115 57.2543 17.8593 55.6383 17.8593C54.7827 17.8728 54.0086 17.3606 54.0086 16.3497ZM10.837 24.6389H13.9469V24.9354L8.70494 39.1954H5.24198L0 24.9489V24.6524H3.1642L6.89877 35.7854H7.10247L10.837 24.6389ZM18.7951 36.9176H26.5086V39.2089H15.658V24.6524H26.3049V26.9437H18.7815V30.6232H25.2864V32.8876H18.7815V36.9176H18.7951ZM40.442 35.6641C39.2877 38.1711 38.0111 39.4245 36.6531 39.4245C35.7296 39.4245 35.1049 38.8584 35.1049 37.915C35.1049 37.3758 35.3086 36.6615 35.7296 35.718L37.5901 31.3915C37.9025 30.4884 38.0519 29.8819 38.0519 29.545C38.0519 29.0058 37.7938 28.7497 37.2778 28.7497C36.6123 28.7497 35.8111 29.3158 34.9012 30.4615C33.9914 31.6206 33.1494 32.9415 32.3753 34.505C31.6012 36.0684 30.963 37.6319 30.4198 39.1954H28.437L31.1259 30.3671C31.4654 29.235 31.5198 28.7497 31.0173 28.7497C30.5827 28.7497 29.9852 29.4102 29.2383 30.7445L28.4099 30.4884C29.5778 28.0084 30.8543 26.755 32.2259 26.755C33.1358 26.755 33.6383 27.2402 33.6383 28.1432C33.6383 28.6284 33.516 29.2484 33.2309 29.9358C32.9457 30.6502 32.3481 32.0924 31.3975 34.2354H31.7642C33.0815 31.5263 34.2358 29.5989 35.2272 28.4532C36.2049 27.3345 37.2099 26.7684 38.2691 26.7684C39.6407 26.7684 40.442 27.4289 40.442 28.6689C40.442 29.3832 40.2383 30.2054 39.8173 31.095L37.8617 35.7584C37.5765 36.3919 37.4272 36.8367 37.4272 37.0389C37.4272 37.3219 37.5494 37.4432 37.8074 37.4432C38.242 37.4432 38.8667 36.7828 39.6407 35.4215L40.442 35.6641ZM44.9099 36.338C44.8012 36.5941 44.7605 36.8232 44.7605 37.0254C44.7605 37.3084 44.8827 37.4297 45.1543 37.4297C45.779 37.4297 46.621 36.6615 47.7346 35.1519L48.5358 35.3811C47.137 38.0767 45.6161 39.4245 44 39.4245C43.1716 39.4245 42.3975 38.9124 42.3975 37.915C42.3975 37.3758 42.5741 36.6884 42.9136 35.8663L45.8333 28.7497H43.3889L43.7556 27.5232H46.2543L47.137 25.0702L49.6901 24.868L48.4 27.5367H51.2926L50.9259 28.7632H47.8025L44.9099 36.338ZM62.863 35.408L63.6914 35.6641C62.5778 38.0497 61.5049 39.4245 59.9568 39.4245C59.2099 39.4245 58.5852 38.9124 58.5852 38.0228C58.5852 37.5645 58.721 36.9715 58.9519 36.2841C59.1827 35.5967 59.7803 34.1545 60.7037 32.0384H60.3099C58.9111 34.8284 57.7568 36.7963 56.8062 37.9015C55.8556 39.0067 54.7963 39.5593 53.6827 39.5593C51.7679 39.5593 51.1025 37.7667 52.2432 35.3541L54.5654 30.1245C54.9728 29.3024 55 28.7363 54.5111 28.7363C54.0222 28.7363 53.3975 29.3967 52.6506 30.7311L51.8222 30.475C52.9765 27.995 54.2531 26.7415 55.6111 26.7415C56.6704 26.7415 57.2136 27.2267 57.2136 28.1971C57.2136 28.6824 56.9827 29.4237 56.5481 30.3941L54.3481 35.2328C54.063 35.9202 53.9136 36.4324 53.9136 36.7963C53.9136 37.2815 54.1988 37.5376 54.742 37.5376C55.4617 37.5376 56.2901 36.9445 57.2136 35.7989C58.137 34.6532 58.9926 33.2919 59.7395 31.7554C60.4864 30.2189 61.1383 28.6554 61.6679 27.038H63.6506L60.8667 36.1224C60.7444 36.4863 60.6901 36.7558 60.6901 36.9715C60.6901 37.2545 60.8123 37.4028 61.0704 37.4028C61.5185 37.4297 62.1161 36.7693 62.863 35.408ZM76.4161 28.3454C76.4161 29.3967 75.8728 30.1919 74.9765 30.1919C74.5827 30.1919 74.3383 30.0706 74.1481 29.8011C74.0667 29.6932 73.7815 29.0058 73.5099 28.7767C72.5593 29.6528 71.5272 31.0545 70.4136 32.9954C69.3 34.9363 68.3765 37.0119 67.6296 39.1954H65.6469L68.3358 30.2863C68.5123 29.6932 68.5938 29.2889 68.5938 29.1137C68.5938 28.8845 68.458 28.7497 68.2272 28.7497C67.7926 28.7497 67.1951 29.4102 66.4482 30.7445L65.6198 30.4884C66.7877 28.0084 68.0506 26.755 69.4086 26.755C70.4136 26.755 70.9025 27.2402 70.9025 28.1837C70.9025 28.5745 70.7531 29.1271 70.4679 29.8954C70.1827 30.6637 69.5444 32.1193 68.5802 34.2489H68.9469C70.6173 31.0006 71.9346 28.8711 72.8716 27.9006C73.5099 27.1324 74.1889 26.755 74.8272 26.755C75.6691 26.755 76.4161 27.3211 76.4161 28.3454ZM83.4099 22.0511C84.0481 22.6845 84.0481 23.8706 83.4099 24.5041C82.758 25.1376 81.5765 25.1376 80.9383 24.5041C80.3 23.8571 80.3 22.6845 80.9383 22.0511C81.5765 21.4041 82.758 21.4041 83.4099 22.0511ZM79.0506 36.338C78.7383 37.0793 78.8198 37.4432 79.2543 37.4432C79.716 37.4432 80.3407 36.7828 81.1148 35.4215L81.9432 35.6776C80.7617 38.1845 79.4988 39.438 78.1272 39.438C77.2037 39.438 76.579 38.9258 76.579 37.9284C76.579 37.4163 76.7284 36.8232 77.0136 36.1358L79.7296 29.8684C80.042 29.1271 79.9605 28.7632 79.5259 28.7632C79.0642 28.7632 78.4395 29.4237 77.6926 30.785L76.8642 30.5289C78.0185 28.0219 79.2951 26.7684 80.6531 26.7684C81.6852 26.7684 82.2012 27.2806 82.2012 28.278C82.2012 28.8171 82.0518 29.4371 81.7667 30.0706L79.0506 36.338ZM96.379 35.6641C95.2247 38.1711 93.9482 39.4245 92.5901 39.4245C91.6667 39.4245 91.042 38.8584 91.042 37.915C91.042 37.3758 91.2457 36.6615 91.6667 35.718L93.5272 31.3915C93.8395 30.4884 93.9889 29.8819 93.9889 29.545C93.9889 29.0058 93.7309 28.7497 93.2148 28.7497C92.5494 28.7497 91.7481 29.3158 90.8383 30.4615C89.9284 31.6206 89.0864 32.9415 88.3123 34.505C87.5383 36.0684 86.9 37.6319 86.3568 39.1954H84.3741L87.063 30.3671C87.4025 29.235 87.4568 28.7497 86.9543 28.7497C86.5198 28.7497 85.9222 29.4102 85.1753 30.7445L84.3469 30.4884C85.5148 28.0084 86.7914 26.755 88.163 26.755C89.0728 26.755 89.5753 27.2402 89.5753 28.1432C89.5753 28.6284 89.4531 29.2484 89.1679 29.9358C88.8827 30.6502 88.2852 32.0924 87.3346 34.2354H87.7012C89.0185 31.5263 90.1728 29.5989 91.1642 28.4532C92.142 27.3345 93.1469 26.7684 94.2062 26.7684C95.5778 26.7684 96.379 27.4289 96.379 28.6689C96.379 29.3832 96.1753 30.2054 95.7543 31.095L93.7988 35.7584C93.5136 36.3919 93.3642 36.8367 93.3642 37.0389C93.3642 37.3219 93.4864 37.4432 93.7444 37.4432C94.179 37.4432 94.8037 36.7828 95.5778 35.4215L96.379 35.6641ZM109.756 27.5232H106.116C105.491 27.0111 104.717 26.755 103.767 26.755C102.395 26.755 101.322 27.3211 100.494 28.4397C99.6654 29.545 99.258 30.6906 99.258 31.9441C99.258 33.3324 99.8556 34.3028 101.01 34.8824C99.8284 35.3137 99.2309 36.0145 99.2309 36.931C99.2309 37.5511 99.5432 38.0767 100.154 38.5215C97.1395 38.8584 95.6185 39.8019 95.6185 41.3924C95.6185 42.3358 96.216 43.1311 97.3704 43.778C98.5518 44.4115 100.059 44.7215 101.852 44.7215C105.152 44.7215 107.352 43.4141 107.352 41.4732C107.352 40.7589 107.121 40.1658 106.686 39.7345C106.225 39.2763 105.396 38.7371 104.242 38.1441L103.319 37.6858C102.409 37.2276 101.852 36.8906 101.621 36.6884C101.39 36.5132 101.254 36.2841 101.254 36.055C101.254 35.7719 101.363 35.4619 101.567 35.1115C101.933 35.2463 102.341 35.2867 102.83 35.2867C104.147 35.2867 105.233 34.7206 106.075 33.6019C106.877 32.4967 107.284 31.3241 107.284 30.0976C107.284 29.6663 107.202 29.2754 107.08 28.898H109.348L109.756 27.5232ZM101.879 39.5054L102.68 39.8693C104.459 40.6915 104.975 41.1767 104.975 42.0258C104.975 42.9693 103.767 43.7376 101.933 43.7376C99.7333 43.7376 97.9815 42.7941 97.9815 41.3789C97.9815 40.1793 98.8914 39.5054 100.969 39.0741C101.159 39.1684 101.675 39.4111 101.879 39.5054ZM104.337 32.5506C103.74 33.7232 103.074 34.3163 102.327 34.3163C101.784 34.3163 101.241 33.9524 101.241 33.0628C101.241 31.8632 101.553 30.6502 102.191 29.4776C102.789 28.305 103.454 27.7119 104.201 27.7119C104.799 27.7119 105.288 28.0489 105.288 28.9384C105.288 30.1111 104.975 31.3106 104.337 32.5506ZM5.25556 46.2041L0 60.4641V60.7741H3.10988L4.23704 57.5124H9.6963L10.7963 60.7741H13.9605V60.4641L8.71852 46.2041H5.25556ZM4.97037 55.248L6.8716 49.6276H7.07531L8.97654 55.248H4.97037ZM18.7951 58.4558H25.8432V60.7606H15.658V46.2041H18.7951V58.4558ZM34.0049 48.3202C32.0222 48.3202 30.3111 49.3984 28.8444 51.5415C27.5815 53.4824 26.9568 55.3828 26.9568 57.2563C26.9568 59.9384 28.5321 61.1245 30.8272 61.1245C32.8099 61.1245 34.5481 60.0463 35.9605 57.9032C37.2235 55.9893 37.8481 54.0889 37.8481 52.1884C37.8481 49.5063 36.2728 48.3202 34.0049 48.3202ZM34.2086 56.4341C33.0272 58.8602 31.8049 60.0732 30.542 60.0732C29.6321 60.0732 29.1704 59.4532 29.1704 58.2537C29.1704 56.798 29.6593 55.0324 30.6099 53.0106C31.7778 50.5845 32.9864 49.3715 34.2765 49.3715C35.1864 49.3715 35.6481 49.9915 35.6481 51.1911C35.6617 52.5928 35.1728 54.3584 34.2086 56.4341ZM51.0074 56.9732L51.8358 57.2293C50.6815 59.7363 49.4049 60.9897 48.0469 60.9897C47.1235 60.9897 46.4988 60.4237 46.4988 59.4802C46.4988 58.9411 46.7025 58.2267 47.1235 57.2832L48.984 52.9567C49.2963 52.0537 49.4457 51.4471 49.4457 51.1102C49.4457 50.5711 49.1877 50.315 48.6716 50.315C48.0062 50.315 47.2049 50.8811 46.2951 52.0267C45.3852 53.1858 44.5432 54.5067 43.7691 56.0702C42.9951 57.6337 42.3568 59.1971 41.8136 60.7606H39.8309L42.5198 51.9324C42.8593 50.8002 42.9136 50.315 42.4111 50.315C41.9765 50.315 41.379 50.9754 40.6321 52.3097L39.8037 52.0537C40.9716 49.5737 42.2481 48.3202 43.6198 48.3202C44.5296 48.3202 45.0321 48.8054 45.0321 49.7084C45.0321 50.1937 44.9099 50.8137 44.6247 51.5011C44.3395 52.2154 43.742 53.6576 42.7914 55.8006H43.158C44.4753 53.0915 45.6296 51.1641 46.621 50.0184C47.5988 48.8997 48.6037 48.3337 49.663 48.3337C51.0346 48.3337 51.8358 48.9941 51.8358 50.2341C51.8358 50.9484 51.6321 51.7706 51.2111 52.6602L49.2556 57.3237C48.9704 57.9571 48.821 58.4019 48.821 58.6041C48.821 58.8871 48.9432 59.0084 49.2012 59.0084C49.6222 58.995 50.2333 58.3345 51.0074 56.9732ZM60.921 48.3202C59.6309 48.3202 58.3951 48.8324 57.2272 49.8297C56.0457 50.8271 55.1358 52.0267 54.4975 53.4419C53.8593 54.8571 53.5198 56.178 53.5198 57.4584C53.5198 59.9924 54.8642 61.1245 57.0235 61.1245C58.2864 61.1245 59.4679 60.4911 60.2556 59.5611C61.0296 58.6445 61.4642 57.7954 61.7765 56.9732L60.9753 56.7441C60.0654 58.2537 59.0198 58.995 57.8247 58.995C56.358 58.995 55.6383 58.1997 55.6383 56.5824C55.6383 56.1511 55.6926 55.6389 55.8148 55.0458C58.0827 55.0189 59.9704 54.5337 61.437 53.5902C62.9037 52.6467 63.6235 51.5954 63.6235 50.3824C63.6235 49.0076 62.7272 48.3202 60.921 48.3202ZM59.6852 52.7815C58.7753 53.4958 57.5938 53.9406 56.0728 54.1158C56.4802 52.9163 57.0778 51.865 57.8519 50.9619C58.5988 50.0858 59.3457 49.6545 60.0926 49.6545C60.7173 49.6545 61.0161 49.9645 61.0161 50.5711C61.0296 51.3124 60.5815 52.0671 59.6852 52.7815Z" fill="#7E64FF"/>
</svg>
