<svg width="110" height="34" viewBox="0 0 110 34" fill="none" xmlns="http://www.w3.org/2000/svg">
<path d="M77.8894 20.0561C77.6727 18.6699 77.2846 18.1027 76.0297 17.7247V17.5716C77.429 17.2205 78.3046 16.2394 78.3046 14.682C78.3046 12.6116 76.6255 11.5674 74.5041 11.5674H69.2229V22.6217H71.5972V18.3817H73.3214C74.9825 18.3817 75.443 18.9939 75.5874 20.2992L75.6686 20.9744C75.7589 21.8025 75.8491 22.1986 76.1109 22.6217H78.5485V22.3877C78.2414 21.9735 78.1331 21.5865 78.0428 20.9293L77.8894 20.0561ZM74.1158 16.6624H71.5881V13.2957H74.1158C75.2533 13.2957 76.0117 13.8629 76.0117 14.9701C76.0117 16.0773 75.2533 16.6624 74.1158 16.6624ZM87.1517 11.5674H89.5079V11.8014L85.5358 22.6306H82.9178L78.9546 11.7924V11.5584H81.338L84.1546 20.0202H84.308L87.1517 11.5674ZM93.173 20.8663H98.4993V22.6127H90.7988V11.5674H93.173V20.8663ZM26.5044 11.0903C29.7724 11.0903 32.4266 13.7368 32.4266 16.9955C32.4266 20.2542 29.7724 22.9007 26.5044 22.9007C23.2365 22.9007 20.5825 20.2542 20.5825 16.9955C20.5825 13.7368 23.2365 11.0903 26.5044 11.0903ZM26.5044 0C16.8359 0 7.85353 6.94943 0.604401 17.0045C7.85353 27.0505 16.8359 34.009 26.5044 34.009C36.173 34.009 45.1555 27.0596 52.4046 17.0045C45.1555 6.94943 36.182 0 26.5044 0ZM26.5044 31.2994C21.1512 31.2994 12.9812 28.77 3.97168 16.9955C12.9903 5.23007 21.1512 2.70056 26.5044 2.70056C31.8578 2.70056 40.0278 5.23007 49.0373 17.0045C40.0278 28.77 31.8669 31.2994 26.5044 31.2994ZM38.1951 16.6264C38.4028 23.0628 33.3383 28.4459 26.8836 28.6529C26.7572 28.6529 26.6309 28.6619 26.4955 28.6619C20.2123 28.6619 15.0214 23.6839 14.8137 17.3826C14.6062 10.9463 19.6707 5.56314 26.1254 5.35611C26.2517 5.35611 26.3781 5.34711 26.5135 5.34711V7.23749C26.4052 7.23749 26.2969 7.23749 26.1885 7.24649C20.79 7.41753 16.5381 11.9455 16.7096 17.3286C16.8811 22.6306 21.1783 26.7805 26.4955 26.7805C26.6038 26.7805 26.7121 26.7805 26.8204 26.7715C29.4384 26.6905 31.8578 25.5923 33.6543 23.6929C35.4508 21.7935 36.3806 19.309 36.2994 16.6985C36.1279 11.3964 31.8307 7.24649 26.5135 7.24649V5.35611C32.7967 5.3381 37.9876 10.3161 38.1951 16.6264ZM83.4865 0C73.818 0 64.8356 6.94943 57.5865 17.0045C64.8356 27.0505 73.818 34.009 83.4865 34.009C93.155 34.009 102.137 27.0596 109.387 17.0045C102.137 6.94943 93.1641 0 83.4865 0ZM83.4865 31.2994C78.1331 31.2994 69.9632 28.77 60.9537 16.9955C69.9632 5.23007 78.1331 2.70056 83.4865 2.70056C88.8399 2.70056 97.0097 5.23007 106.019 17.0045C97.0097 28.77 88.8488 31.2994 83.4865 31.2994Z" fill="#7E64FF"/>
</svg>
