<svg width="110" height="84" viewBox="0 0 110 84" fill="none" xmlns="http://www.w3.org/2000/svg">
<path d="M60.8573 13.185C60.5838 13.185 60.3323 13.0213 60.1463 12.672L57.2587 7.18191C59.0853 6.67984 60.2338 5.33732 60.2338 3.56912C60.2338 2.30302 59.8182 1.38617 59.0087 0.829522C58.1775 0.272869 57.1383 0 55.8914 0H49.9303C49.7444 0 49.5584 0.141892 49.5584 0.371101V0.600311C49.5584 0.829522 49.7444 0.993244 49.9303 0.993244H50.4334C51.0788 0.993244 51.1991 1.15696 51.1991 1.96466V12.1263C51.1991 12.9776 51.0569 13.1414 50.2475 13.1414H49.8319C49.6459 13.1414 49.46 13.3051 49.46 13.5344V13.7635C49.46 13.9927 49.6022 14.1346 49.8319 14.1346C50.1053 14.1346 50.5428 14.1346 51.1225 14.1128C51.7023 14.0691 52.1398 14.0691 52.4132 14.0691C52.7085 14.0691 53.146 14.0691 53.7257 14.1128C54.3055 14.1346 54.743 14.1346 55.0383 14.1346C55.268 14.1346 55.4102 13.9927 55.4102 13.7635V13.5344C55.4102 13.3051 55.2242 13.1414 55.0383 13.1414H54.5789C53.8132 13.1414 53.6491 12.9776 53.6491 12.1263V7.37838H54.8962L57.9259 13.8072C58.0354 14.0364 58.1556 14.1346 58.2978 14.1346C58.5494 14.1346 59.2276 14.0691 59.4791 14.0691C59.7963 14.0691 60.4964 14.1346 60.8354 14.1346C61.0213 14.1346 61.2073 13.9927 61.2073 13.7635V13.5344C61.1964 13.316 61.087 13.185 60.8573 13.185ZM54.9618 6.4288H53.6272V0.949585H55.3993C56.7446 0.949585 57.6197 1.89917 57.6197 3.66736C57.6197 5.34823 56.8103 6.4288 54.9618 6.4288ZM35.8968 35.3419C35.8968 35.5275 35.8312 36.379 35.8312 36.7937C35.8312 37.143 35.8968 38.3654 35.8968 38.6819C35.8968 38.8675 35.7547 39.053 35.525 39.053H35.1094C34.8797 39.053 34.7375 38.8675 34.7375 38.6819V38.409C34.7375 36.5644 34.0922 35.8768 32.5389 35.8768H29.531V41.0832H31.0295C31.9482 41.0832 32.3967 40.6683 32.3967 39.8388C32.3967 39.697 32.3749 39.315 32.3749 39.1731C32.3749 38.9876 32.5171 38.802 32.7468 38.802H33.2499C33.4796 38.802 33.6218 38.9876 33.6218 39.1731C33.6218 39.446 33.6218 39.8388 33.5999 40.3955C33.578 40.9522 33.5562 41.3451 33.5562 41.6179C33.5562 41.869 33.578 42.2402 33.5999 42.7531C33.6218 43.2771 33.6218 43.67 33.6218 43.9101C33.6218 44.1392 33.4796 44.2811 33.2499 44.2811H32.7468C32.5171 44.2811 32.3749 44.1392 32.3749 43.9101C32.3749 43.7682 32.3967 43.4298 32.3967 43.288C32.3967 42.4365 31.9373 42.0218 31.0295 42.0218H29.531V46.9989C29.531 47.8066 29.881 48.0577 30.5701 48.0577H32.3311C33.9937 48.0577 34.6828 47.4356 34.6828 45.2962V44.7942C34.6828 44.6086 34.8687 44.4231 35.0547 44.4231H35.4703C35.6563 44.4231 35.8422 44.6086 35.8422 44.7942C35.8422 45.0233 35.8422 45.3726 35.8203 45.8748C35.7985 46.3877 35.7766 46.7698 35.7766 47.0098C35.7766 47.3592 35.8422 48.4179 35.8422 48.5817C35.8422 48.909 35.7547 48.9964 35.4266 48.9964H25.5605C25.3308 48.9964 25.1886 48.8545 25.1886 48.6252V48.3961C25.1886 48.1668 25.3745 48.0031 25.5605 48.0031H26.1402C26.9496 48.0031 27.0918 47.8394 27.0918 46.988V36.9137C27.0918 36.0624 26.9715 35.8987 26.3262 35.8987H25.659C25.473 35.8987 25.2871 35.7349 25.2871 35.5057V35.2765C25.2871 35.0473 25.473 34.9054 25.659 34.9054H35.4922C35.8203 34.9272 35.8968 35.0146 35.8968 35.3419ZM85.5661 35.2547V35.5057C85.5661 35.7349 85.4239 35.8768 85.1942 35.8768H84.9646C84.6145 35.8768 84.363 36.1279 84.2207 36.6081L80.6222 48.8872C80.6003 49.0073 80.5018 49.0728 80.3487 49.0728H79.1893C79.0689 49.0728 78.9815 49.0073 78.9159 48.8872L75.0329 36.5863C74.8688 36.0078 74.6828 35.8768 74.3219 35.8768H74.0922C73.8625 35.8768 73.7203 35.7349 73.7203 35.5057V35.2547C73.7203 35.0255 73.8625 34.8836 74.0922 34.8836C74.4423 34.8836 75.8204 34.9491 76.1704 34.9491C76.4439 34.9491 76.8814 34.9272 77.483 34.9054C78.0846 34.8836 78.5221 34.8836 78.8174 34.8836C79.0033 34.8836 79.1893 35.0255 79.1893 35.2547V35.5057C79.1893 35.7349 79.0033 35.8768 78.8174 35.8768H78.2377C77.5923 35.8768 77.5486 36.2261 77.8877 37.2411L80.3377 45.7438L82.9957 36.7828C83.2254 36.0951 82.9957 35.8659 82.4159 35.8659H81.4863C81.3004 35.8659 81.1144 35.724 81.1144 35.4949V35.2547C81.1144 35.0255 81.3004 34.8836 81.4863 34.8836C81.7598 34.8836 82.1535 34.8836 82.6895 34.9054C83.2254 34.9272 83.6191 34.9491 83.8926 34.9491C84.2207 34.9491 84.8661 34.8836 85.2052 34.8836C85.4239 34.8836 85.5661 35.0255 85.5661 35.2547ZM11.374 70.2693C11.374 70.4547 11.3084 71.3062 11.3084 71.7209C11.3084 72.0702 11.374 73.2926 11.374 73.6092C11.374 73.7947 11.2318 73.9802 11.0021 73.9802H10.5864C10.3567 73.9802 10.2146 73.7947 10.2146 73.6092V73.3363C10.2146 71.4917 9.56922 70.804 8.01602 70.804H4.99715V76.0104H6.49565C7.41444 76.0104 7.8629 75.5957 7.8629 74.7662C7.8629 74.6242 7.84102 74.2422 7.84102 74.1003C7.84102 73.9147 7.98322 73.7292 8.21291 73.7292H8.71606C8.94576 73.7292 9.08795 73.9147 9.08795 74.1003C9.08795 74.3732 9.08795 74.7662 9.06608 75.3228C9.0442 75.8794 9.02233 76.2724 9.02233 76.5453C9.02233 76.7962 9.0442 77.1674 9.06608 77.6803C9.08795 78.2043 9.08795 78.5972 9.08795 78.8373C9.08795 79.0666 8.94576 79.2085 8.71606 79.2085H8.22385C7.99416 79.2085 7.85195 79.0666 7.85195 78.8373C7.85195 78.6954 7.87384 78.357 7.87384 78.2152C7.87384 77.3639 7.41444 76.9491 6.50659 76.9491H4.99715V81.9262C4.99715 82.7338 5.34716 82.9849 6.03626 82.9849H7.79727C9.45984 82.9849 10.1489 82.3628 10.1489 80.2235V79.7214C10.1489 79.5359 10.3349 79.3503 10.5208 79.3503H10.9365C11.1224 79.3503 11.3084 79.5359 11.3084 79.7214C11.3084 79.9507 11.3084 80.2999 11.2865 80.802C11.2646 81.315 11.2427 81.697 11.2427 81.9371C11.2427 82.2864 11.3084 83.3451 11.3084 83.5089C11.3084 83.8363 11.2208 83.9236 10.8927 83.9236H1.02668C0.796979 83.9563 0.654785 83.8144 0.654785 83.5853V83.3561C0.654785 83.1268 0.840731 82.9631 1.02668 82.9631H1.60639C2.41579 82.9631 2.55799 82.7993 2.55799 81.948V71.8737C2.55799 71.0224 2.43768 70.8586 1.79233 70.8586H1.13605C0.95011 70.8586 0.764164 70.6949 0.764164 70.4656V70.2365C0.764164 70.0073 0.95011 69.8654 1.13605 69.8654H10.9693C11.2974 69.8545 11.374 69.9418 11.374 70.2693ZM60.562 82.9958H60.4635C60.1136 82.9958 59.9604 82.8758 59.7963 82.3737L55.968 69.909C55.9024 69.7453 55.8039 69.6581 55.618 69.6581H53.8351C53.6054 69.6581 53.5179 69.778 53.5835 70.0509L54.0429 71.5462L50.6959 82.2646C50.5099 82.8212 50.346 82.9849 49.9522 82.9849H49.6786C49.4928 82.9849 49.3069 83.1268 49.3069 83.3561V83.607C49.3069 83.8363 49.4928 83.9782 49.6786 83.9782C49.9522 83.9782 51.221 83.8908 51.4834 83.8908C51.8335 83.8908 53.1241 83.9782 53.4742 83.9782C53.7039 83.9782 53.8461 83.8363 53.8461 83.607V83.3561C53.8461 83.1268 53.7039 82.9849 53.4742 82.9849H52.5007C51.8991 82.9849 51.7569 82.7338 51.9428 82.0681L52.7304 79.4922H56.4711L57.3462 82.3519C57.4884 82.8321 57.3462 82.974 56.9087 82.974H56.165C55.979 82.974 55.7931 83.1159 55.7931 83.3451V83.5961C55.7931 83.8253 55.979 83.9673 56.165 83.9673C56.4384 83.9673 56.8759 83.9454 57.4338 83.9236C57.9915 83.9018 58.429 83.8799 58.7244 83.8799C59.0745 83.8799 60.0588 83.9673 60.573 83.9673C60.7589 83.9673 60.9447 83.8253 60.9447 83.5961V83.3451C60.9447 83.1487 60.7589 82.9958 60.562 82.9958ZM53.0695 78.4225L54.6117 73.3799L56.154 78.4225H53.0695ZM109.236 83.7489C109.236 83.8908 109.17 83.9563 109.028 83.9563H99.0527C98.8667 83.9563 98.6808 83.8144 98.6808 83.5853V83.3779C98.6808 83.1487 98.8667 82.9849 99.0527 82.9849H99.4683C100.278 82.9849 100.42 82.7993 100.42 81.948V71.8191C100.42 70.9678 100.3 70.804 99.6543 70.804H99.1511C98.9652 70.804 98.7792 70.6403 98.7792 70.4112V70.1819C98.7792 69.9527 98.9215 69.8108 99.1511 69.8108C99.501 69.8108 100.857 69.8763 101.229 69.8763C101.503 69.8763 101.973 69.8545 102.662 69.8326C103.351 69.8108 103.8 69.8108 104.073 69.8108C104.259 69.8108 104.445 69.9527 104.445 70.1819V70.4112C104.445 70.6403 104.259 70.804 104.073 70.804H103.329C102.936 70.804 102.848 70.9678 102.848 71.8191V81.8608C102.848 82.6248 103.176 82.9849 104.095 82.9849H105.43C107.42 82.9849 108.109 82.0572 108.109 79.3721C108.109 79.143 108.251 78.9792 108.481 78.9792H108.94C109.126 78.9792 109.334 79.1865 109.334 79.3721C109.334 79.7214 109.247 81.0311 109.225 81.3805C109.214 81.817 109.258 83.3124 109.236 83.7489Z" fill="#7E64FF"/>
</svg>
