<svg width="110" height="70" viewBox="0 0 110 70" fill="none" xmlns="http://www.w3.org/2000/svg">
<path d="M38.578 11.1898H31.4425L31.8522 9.66162L34.4299 7.98059C37.2379 6.15524 38.561 4.64403 38.561 3.01395C38.561 1.91874 37.861 1.22256 36.4869 1.22256C34.9334 1.22256 34.1481 2.06306 33.7641 3.54881H33.0386C33.2946 1.46876 34.5067 0 36.8282 0C37.7671 0 38.561 0.22923 39.2097 0.679199C39.8583 1.12917 40.1827 1.82535 40.1827 2.74227C40.1827 3.76107 39.8241 4.661 39.0987 5.45057C38.3731 6.24015 37.1185 7.19102 35.3687 8.26925L33.0812 9.65312H36.3076C37.0075 9.65312 37.5196 9.50879 37.8952 9.22014C38.2707 8.94845 38.6122 8.3202 38.9536 7.35234H39.6876L38.578 11.1898ZM41.0447 7.27592C41.0447 4.71195 42.1799 2.40267 44.3223 1.03578C45.3893 0.3396 46.6097 0 47.984 0C48.7265 0 49.3582 0.09339 49.8959 0.28866L49.6654 0.98484C49.1789 0.857489 48.6582 0.789569 48.0949 0.789569C46.7293 0.789569 45.4063 1.34142 44.365 2.31777C43.3066 3.30261 42.5811 4.93269 42.564 6.86841H42.6921C43.2298 5.16192 44.2796 4.30443 45.8843 4.30443C46.7122 4.30443 47.4121 4.55063 47.9925 5.04305C48.5644 5.54397 48.8546 6.26561 48.8546 7.23347C48.8546 9.10128 47.6084 11.4105 44.7662 11.4105C42.9395 11.436 41.0447 10.4172 41.0447 7.27592ZM42.8799 8.76167C42.8799 10.1031 43.6907 10.7313 44.7405 10.7313C45.5001 10.7313 46.1232 10.3918 46.5756 9.71255C47.011 9.03336 47.2414 8.24378 47.2414 7.36083C47.2414 5.83263 46.4306 5.26379 45.5257 5.26379C44.6979 5.26379 44.0491 5.62038 43.5797 6.32505C43.1017 7.04669 42.8799 7.85324 42.8799 8.76167ZM57.0229 11.1898H52.3028L52.465 10.638C53.0369 10.604 53.4551 10.5106 53.7282 10.3493C53.9843 10.188 54.1977 9.81444 54.3598 9.2541L56.4339 2.08005C56.5022 1.83384 56.5278 1.63008 56.5278 1.48575C56.5278 0.908429 56.1523 0.789569 55.2987 0.78108L55.4609 0.22923H59.9334C62.0075 0.22923 63.1256 1.11219 63.1256 2.61492C63.1256 4.1601 61.9222 5.24682 59.9846 5.58642L62.2892 9.55125C62.6647 10.1965 63.0488 10.57 63.4927 10.6465L63.3305 11.1983H61.3674L58.3203 5.69679H56.9716L55.9303 9.27956C55.8535 9.56822 55.8023 9.79745 55.8023 9.94178C55.8023 10.4766 56.1779 10.604 57.168 10.6549L57.0229 11.1898ZM57.1509 5.03456H58.4824C61.0771 5.03456 61.5295 3.71013 61.5295 2.72529C61.5295 1.50273 60.8467 0.882959 59.4981 0.882959H58.3459L57.1509 5.03456ZM65.1741 8.77017C64.4572 10.2899 64.8839 11.4191 66.0789 11.4191C66.7787 11.4191 67.4445 11.0625 68.042 10.3663C68.6395 9.67011 69.3735 8.43056 70.2442 6.67313H70.4916C69.9112 8.01455 69.5357 8.9145 69.3906 9.34748C69.2454 9.78048 69.1602 10.154 69.1602 10.4427C69.1602 11.0115 69.5528 11.3257 70.0222 11.3257C70.9952 11.3257 71.6781 10.4512 72.3694 8.95695L71.8487 8.79563C71.3793 9.65312 71.0038 10.0691 70.7307 10.0691C70.5685 10.0691 70.4916 9.97574 70.4916 9.79745C70.4916 9.67011 70.5258 9.49181 70.6026 9.26259L72.3523 3.54033H71.1062C70.7647 4.55912 70.3636 5.54397 69.8942 6.51183C69.4247 7.47969 68.887 8.33717 68.3066 9.05882C67.7262 9.78896 67.2055 10.154 66.7531 10.154C66.4118 10.154 66.2325 9.99272 66.2325 9.68708C66.2325 9.45785 66.3264 9.13523 66.5057 8.70225L67.8884 5.65434C68.1614 5.04305 68.3066 4.57611 68.3066 4.27047C68.3066 3.65918 67.9652 3.35355 67.2994 3.35355C66.4374 3.35355 65.6435 4.14311 64.9181 5.70527L65.4387 5.86659C65.9082 5.02608 66.3008 4.61007 66.608 4.61007C66.9153 4.61007 66.8983 4.96664 66.6423 5.48453L65.1741 8.77017ZM73.2742 9.10977C73.2742 8.30321 73.4875 7.4627 73.8887 6.57975C74.2899 5.69679 74.8618 4.93269 75.6043 4.30443C76.3298 3.67617 77.115 3.35355 77.926 3.35355C79.0611 3.35355 79.6244 3.78654 79.6244 4.661C79.6244 5.41661 79.1721 6.07883 78.2503 6.67313C77.3285 7.26743 76.142 7.57307 74.7167 7.59006C74.6398 7.96362 74.6057 8.28624 74.6057 8.55792C74.6057 9.57671 75.058 10.0776 75.9798 10.0776C76.7224 10.0776 77.3882 9.61067 77.9601 8.6598L78.4637 8.80413C78.2673 9.32201 77.9942 9.85689 77.5076 10.4342C77.0211 11.0115 76.2786 11.4191 75.4762 11.4191C74.1106 11.4191 73.2742 10.7059 73.2742 9.10977ZM74.8787 6.99576C75.8348 6.88539 76.5773 6.60521 77.1492 6.15524C77.7211 5.70527 77.9942 5.23833 77.9942 4.77138C77.9942 4.38084 77.7979 4.19406 77.4138 4.19406C76.9444 4.19406 76.4749 4.46574 76.0054 5.01759C75.5104 5.57793 75.1349 6.24015 74.8787 6.99576ZM5.35848 30.1734C4.40253 30.1564 4.06111 29.9018 4.06111 29.4348C4.06111 29.2735 4.07818 29.1292 4.1294 28.9848L5.15364 25.453H10.2919L9.31889 28.8235C9.17378 29.3754 8.97747 29.7234 8.76408 29.8848C8.5507 30.063 8.14954 30.1564 7.56061 30.1734L7.39843 30.7253H11.8881L12.0331 30.1734C11.1113 30.1564 10.7699 29.9782 10.7699 29.4772C10.7699 29.265 10.804 29.0613 10.8809 28.8151L12.9379 21.658C13.1 21.0891 13.2964 20.7411 13.5097 20.5627C13.7231 20.4015 14.0901 20.3165 14.662 20.3081L14.8071 19.7562H10.4285L10.2663 20.3081C11.1711 20.325 11.4954 20.5203 11.4954 20.9873C11.4954 21.1825 11.4612 21.4033 11.3845 21.6664L10.5053 24.6804H5.35848L6.23762 21.6664C6.38272 21.1316 6.56197 20.7835 6.77535 20.6053C6.98874 20.4269 7.37282 20.3336 7.96176 20.3165L8.12394 19.7647H3.6941L3.53193 20.2996C4.41959 20.3165 4.77809 20.4269 4.77809 21.0043C4.77809 21.1485 4.74394 21.3608 4.68419 21.5985L2.60157 28.781C2.4394 29.3499 2.22602 29.715 1.96996 29.8763C1.69682 30.0375 1.27005 30.131 0.689657 30.165L0.544556 30.7168H5.19631L5.35848 30.1734ZM20.099 24.188C20.099 24.9436 19.6467 25.6058 18.7248 26.2001C17.803 26.7945 16.6166 27.1001 15.1912 27.117C15.1143 27.4906 15.0802 27.8132 15.0802 28.0849C15.0802 29.1037 15.5327 29.6046 16.4545 29.6046C17.197 29.6046 17.8628 29.1376 18.4346 28.1868L18.9382 28.3311C18.7419 28.849 18.4688 29.3839 17.9823 29.9612C17.4958 30.5385 16.7531 30.946 15.9509 30.946C14.5851 30.946 13.7487 30.2329 13.7487 28.6368C13.7487 27.8302 13.9621 26.9897 14.3633 26.1067C14.7644 25.2237 15.3363 24.4596 16.0788 23.8314C16.8044 23.2031 17.5897 22.8805 18.4005 22.8805C19.5357 22.8805 20.099 23.3135 20.099 24.188ZM18.4602 24.2983C18.4602 23.9078 18.2639 23.721 17.8798 23.721C17.4104 23.721 16.941 23.9927 16.4715 24.5446C15.985 25.1134 15.6094 25.7671 15.3534 26.5312C16.3093 26.4208 17.0605 26.1407 17.6237 25.6908C18.1871 25.2408 18.4602 24.7653 18.4602 24.2983ZM22.4206 24.1371C22.7279 24.1371 22.6938 24.4427 22.4889 25.1558L20.7989 30.7168H22.0451C22.3865 29.732 22.7876 28.7471 23.2742 27.7623C23.7607 26.7774 24.2983 25.937 24.8617 25.2153C25.4336 24.4851 25.9286 24.1371 26.3555 24.1371C26.6798 24.1371 26.842 24.2983 26.842 24.6379C26.842 24.8502 26.7481 25.2323 26.5517 25.8011L25.3823 28.5264C25.1263 29.1207 24.9897 29.5706 24.9897 29.9102C24.9897 30.5046 25.3823 30.8611 25.9628 30.8611C26.8249 30.8611 27.6186 30.0716 28.3442 28.4924L27.8235 28.3311C27.337 29.1886 26.9443 29.6046 26.6712 29.6046C26.509 29.6046 26.4237 29.5282 26.4237 29.3499C26.4237 29.2226 26.5176 28.9424 26.6968 28.5434L27.926 25.6058C28.182 25.037 28.3186 24.5276 28.3186 24.0776C28.3186 23.3051 27.815 22.8805 26.9529 22.8805C26.2872 22.8805 25.6555 23.2372 25.041 23.9418C24.4264 24.6634 23.6924 25.8775 22.8644 27.584H22.634C23.2315 26.2256 23.607 25.3257 23.7862 24.8757C23.9655 24.4427 24.0423 24.0521 24.0423 23.7465C24.0423 23.1862 23.718 22.8721 23.1547 22.8721C22.2926 22.8721 21.4817 23.6616 20.7562 25.2237L21.2769 25.3851C21.7719 24.5616 22.1475 24.1371 22.4206 24.1371ZM34.6773 24.154C34.8566 24.2983 35.0359 24.7313 35.0786 24.7992C35.1894 24.9606 35.3516 25.0455 35.5992 25.0455C36.1626 25.0455 36.5039 24.5446 36.5039 23.8824C36.5039 23.2372 36.0345 22.8805 35.4968 22.8805C35.0956 22.8805 34.6688 23.1268 34.2676 23.6021C33.6872 24.2134 32.8593 25.5549 31.801 27.601H31.5705C32.168 26.2595 32.5776 25.3426 32.7569 24.8588C32.9362 24.3748 33.0301 24.0182 33.0301 23.7804C33.0301 23.1862 32.7228 22.8805 32.0911 22.8805C31.2291 22.8805 30.4353 23.6701 29.7098 25.2323L30.2305 25.3936C30.6999 24.553 31.0754 24.1371 31.3486 24.1371C31.4937 24.1371 31.579 24.222 31.579 24.3662C31.579 24.4767 31.5279 24.7399 31.4169 25.105L29.7269 30.7168H30.9731C31.4425 29.3499 32.0315 28.0424 32.7228 26.8114C33.4312 25.5888 34.0799 24.7058 34.6773 24.154ZM35.1553 33.544C35.0871 33.493 35.0444 33.3148 35.0273 33.0261C34.9761 32.4318 34.7798 31.846 34.1481 31.846C33.6275 31.846 33.2861 32.245 33.2861 32.7799C33.2861 33.5695 33.9519 34.1977 34.9761 34.1977C36.4869 34.1977 38.2196 33.1789 40.1827 31.1667C42.3678 28.9254 43.4773 26.7945 43.4773 24.7823C43.4773 23.5088 43.1017 22.8805 42.3591 22.8805C41.7873 22.8805 41.4032 23.2711 41.4032 23.8314C41.4032 24.154 41.5142 24.4257 41.7276 24.6379C41.9238 24.8333 42.4274 25.1389 42.6664 25.5719C42.5384 27.0576 41.4629 28.832 39.4742 30.9121C39.8754 29.766 40.0717 28.3481 40.0717 26.6501C40.0717 24.1371 39.6023 22.8721 38.6805 22.8721C37.8866 22.8721 37.221 23.789 36.7174 25.6143L37.221 25.7587C37.5965 24.6805 37.9037 24.1286 38.1769 24.1286C38.5183 24.1286 38.6975 25.1474 38.6975 27.1595C38.6975 29.3075 38.4073 30.8697 37.8098 31.8205C37.1953 32.7969 36.3161 33.3657 35.1553 33.544ZM51.0909 21.624L48.5985 28.4585C48.3424 29.1547 48.1119 29.5876 47.8986 29.7999C47.6852 30.0122 47.3353 30.1225 46.8146 30.1734L46.6524 30.7253H50.5787L50.7238 30.1734C49.9471 30.1395 49.4777 30.0122 49.3325 29.7744C49.1874 29.5451 49.2386 29.1122 49.4777 28.4669L51.9785 21.6325L52.7552 30.7592H53.9245L59.5152 21.7429L58.508 28.6283C58.4226 29.2395 58.252 29.6471 57.9703 29.8339C57.6972 30.0461 57.2107 30.1564 56.5278 30.1734L56.3827 30.7253H60.8894L61.0515 30.1734C60.0273 30.1564 59.8481 29.8678 60.0273 28.7047L61.0515 21.624C61.1967 20.5458 61.521 20.3505 62.477 20.2996L62.6391 19.7478H59.7798L54.0867 28.9085L53.3271 19.7478H50.3568L50.1946 20.2996C51.381 20.3165 51.5347 20.5713 51.0909 21.624ZM63.4842 24.9096C64.406 23.5513 65.4814 22.8805 66.7275 22.8805C68.153 22.8805 69.1431 23.6192 69.1431 25.3171C69.1431 26.5142 68.7504 27.7028 67.9567 28.9169C67.069 30.2753 65.9765 30.946 64.7303 30.946C63.2878 30.946 62.2977 30.2074 62.2977 28.5094C62.2977 27.3293 62.6903 26.1407 63.4842 24.9096ZM63.6975 29.1376C63.6975 29.8933 63.9878 30.2839 64.5595 30.2839C65.3534 30.2839 66.1131 29.5282 66.8641 27.9915C67.4616 26.684 67.7688 25.5719 67.7688 24.6889C67.7688 23.9333 67.4787 23.5427 66.9068 23.5427C66.096 23.5427 65.3363 24.2983 64.6022 25.835C64.0048 27.1086 63.6975 28.2207 63.6975 29.1376ZM70.355 25.2323L70.8757 25.3936C71.3451 24.553 71.7208 24.1371 71.9938 24.1371C72.3012 24.1371 72.267 24.4427 72.0621 25.1558L70.3721 30.7168H71.6183C71.9597 29.732 72.3608 28.7471 72.8473 27.7623C73.334 26.7774 73.8717 25.937 74.4349 25.2153C74.9983 24.4851 75.5019 24.1371 75.9286 24.1371C76.253 24.1371 76.4152 24.2983 76.4152 24.6379C76.4152 24.8502 76.3213 25.2323 76.125 25.8011L74.9556 28.5264C74.6996 29.1207 74.563 29.5706 74.563 29.9102C74.563 30.5046 74.9556 30.8611 75.536 30.8611C76.398 30.8611 77.1919 30.0716 77.9174 28.4924L77.3968 28.3311C76.9103 29.1886 76.5176 29.6046 76.2445 29.6046C76.0823 29.6046 76.0054 29.5282 76.0054 29.3499C76.0054 29.2226 76.0993 28.9424 76.2786 28.5434L77.5076 25.6058C77.7638 25.037 77.9003 24.5276 77.9003 24.0776C77.9003 23.3051 77.3968 22.8805 76.5346 22.8805C75.8689 22.8805 75.2373 23.2372 74.6227 23.9418C74.0082 24.6634 73.2742 25.8775 72.4462 27.584H72.2414C72.8389 26.2256 73.2144 25.3257 73.3936 24.8757C73.5729 24.4427 73.6497 24.0521 73.6497 23.7465C73.6497 23.1862 73.3253 22.8721 72.7621 22.8721C71.8999 22.8805 71.0891 23.6701 70.355 25.2323ZM79.8122 25.402C80.2817 24.5616 80.6572 24.1455 80.9304 24.1455C81.2376 24.1455 81.2035 24.4512 80.9987 25.1643L79.3086 30.7253H80.5549C80.8962 29.7405 81.2974 28.7556 81.7839 27.7708C82.2704 26.7859 82.8081 25.9454 83.3715 25.2237C83.9348 24.4937 84.4384 24.1455 84.8651 24.1455C85.1895 24.1455 85.3516 24.3068 85.3516 24.6465C85.3516 24.8587 85.2577 25.2408 85.0615 25.8095L83.8921 28.5348C83.6361 29.1292 83.4995 29.5792 83.4995 29.9188C83.4995 30.513 83.8921 30.8697 84.4725 30.8697C85.3346 30.8697 86.1284 30.0801 86.8539 28.5009L86.3332 28.3396C85.8467 29.1971 85.4541 29.6131 85.181 29.6131C85.0188 29.6131 84.942 29.5367 84.942 29.3584C84.942 29.231 85.0359 28.9509 85.2151 28.5519L86.4442 25.6143C86.7003 25.0455 86.8368 24.5361 86.8368 24.0861C86.8368 23.3135 86.3332 22.889 85.4712 22.889C84.8054 22.889 84.1738 23.2456 83.5593 23.9503C82.9447 24.6719 82.2106 25.886 81.3827 27.5925H81.1522C81.7497 26.234 82.1254 25.3341 82.3045 24.8841C82.4838 24.4512 82.5606 24.0606 82.5606 23.755C82.5606 23.1947 82.2362 22.8805 81.6729 22.8805C80.8109 22.8805 80 23.6701 79.2745 25.2323L79.8122 25.402ZM91.5056 28.4924L90.985 28.3311C90.4984 29.1886 90.1058 29.6046 89.8157 29.6046C89.5425 29.6046 89.4913 29.3754 89.6876 28.9085L91.3946 24.9606C91.5739 24.5616 91.6678 24.171 91.6678 23.8314C91.6678 23.2031 91.3435 22.8805 90.6948 22.8805C89.8328 22.8805 89.0389 23.6701 88.3134 25.2492L88.834 25.4105C89.3036 24.553 89.6962 24.1371 89.9863 24.1371C90.2595 24.1371 90.3107 24.3662 90.1144 24.8333L88.4073 28.781C88.2281 29.2141 88.1342 29.5876 88.1342 29.9102C88.1342 30.5385 88.5268 30.8611 89.1072 30.8611C89.9693 30.8611 90.7631 30.0716 91.5056 28.4924ZM92.4274 21.4627C92.8287 21.0637 92.8287 20.3165 92.4274 19.9175C92.0177 19.51 91.2752 19.51 90.8741 19.9175C90.4728 20.3165 90.4728 21.0637 90.8741 21.4627C91.2752 21.8618 92.0263 21.8618 92.4274 21.4627ZM94.1516 27.1255C94.0747 27.4991 94.0406 27.8217 94.0406 28.0934C94.0406 29.1122 94.4931 29.6131 95.4149 29.6131C96.1574 29.6131 96.8232 29.1461 97.395 28.1952L97.8986 28.3396C97.7023 28.8575 97.4292 29.3923 96.9427 29.9697C96.4562 30.547 95.7135 30.9545 94.9113 30.9545C93.5456 30.9545 92.7091 30.2413 92.7091 28.6452C92.7091 27.8387 92.9225 26.9982 93.3237 26.1152C93.7248 25.2323 94.2967 24.4682 95.0392 23.8399C95.7648 23.2117 96.55 22.889 97.3609 22.889C98.4961 22.889 99.0595 23.322 99.0595 24.1965C99.0595 24.952 98.6071 25.6143 97.6852 26.2087C96.7634 26.8029 95.577 27.1086 94.1516 27.1255ZM94.3138 26.5228C95.2697 26.4124 96.0123 26.1322 96.5841 25.6822C97.156 25.2323 97.4292 24.7653 97.4292 24.2983C97.4292 23.9078 97.2328 23.721 96.8488 23.721C96.3793 23.721 95.9099 23.9927 95.4405 24.5446C94.9454 25.105 94.5698 25.7671 94.3138 26.5228ZM101.381 24.1371C101.526 24.1371 101.611 24.222 101.611 24.3662C101.611 24.4767 101.56 24.7399 101.449 25.105L99.7593 30.7168H101.005C101.475 29.3499 102.055 28.0424 102.755 26.8114C103.455 25.5888 104.104 24.6974 104.701 24.154C104.881 24.2983 105.06 24.7313 105.102 24.7992C105.213 24.9606 105.376 25.0455 105.623 25.0455C106.195 25.0455 106.528 24.5446 106.528 23.8824C106.528 23.2372 106.058 22.8805 105.521 22.8805C105.119 22.8805 104.693 23.1268 104.292 23.6021C103.711 24.2134 102.883 25.5549 101.825 27.601H101.594C102.192 26.2595 102.602 25.3426 102.781 24.8588C102.96 24.3748 103.054 24.0182 103.054 23.7804C103.054 23.1862 102.747 22.8805 102.115 22.8805C101.253 22.8805 100.459 23.6701 99.7337 25.2323L100.254 25.3936C100.732 24.5616 101.108 24.1371 101.381 24.1371ZM106.801 28.8151C106.169 28.8151 105.683 29.231 105.683 29.8933C105.683 30.5215 106.135 30.895 106.724 30.895C106.886 30.895 107.083 30.8442 107.296 30.7508C107.296 31.5063 106.613 32.2959 105.265 32.3129L105.085 32.9072C106.024 32.9072 106.758 32.6525 107.262 32.1517C107.765 31.6507 108.022 31.0394 108.022 30.3432C108.013 29.4009 107.467 28.8151 106.801 28.8151ZM1.08228 39.7926H8.08979C5.50358 42.8575 4.18061 46.1007 3.67703 50.006V50.2522H5.15364C5.60602 46.3214 6.77535 43.2395 9.74565 39.6567V38.6379H1.08228V39.7926ZM15.1912 42.4585C13.6804 42.4585 12.9379 43.0868 12.5452 43.5112H12.4002L12.7757 39.8011H18.4517V38.6379H11.4954L10.8467 45.396H12.2209C12.5964 44.4112 13.433 43.6046 14.8498 43.6046C16.5398 43.6046 17.6066 44.7847 17.6066 46.3979C17.6066 48.1213 16.5484 49.3014 14.7388 49.3014C12.9038 49.3014 11.9989 48.1382 11.9477 46.9327H10.5565V47.1789C10.7016 48.7581 12.0672 50.456 14.7559 50.456C17.4616 50.456 19.0236 48.7581 19.0236 46.3469C19.015 43.9867 17.4445 42.4585 15.1912 42.4585ZM29.7952 44.4367C29.7952 48.1298 28.0454 50.439 25.0751 50.439C22.1048 50.439 20.3551 48.1298 20.3551 44.4367C20.3551 40.7265 22.1048 38.4342 25.0751 38.4342C28.0454 38.4342 29.7952 40.735 29.7952 44.4367ZM28.3271 44.4367C28.3271 41.4652 27.1236 39.6143 25.0836 39.6143C23.0437 39.6143 21.8402 41.4652 21.8402 44.4367C21.8402 47.4082 23.0437 49.2419 25.0836 49.2419C27.1236 49.2419 28.3271 47.4082 28.3271 44.4367ZM31.323 44.4367C31.323 40.7265 33.0728 38.4342 36.043 38.4342C39.0133 38.4342 40.7631 40.7265 40.7631 44.4367C40.7631 48.1298 39.0133 50.439 36.043 50.439C33.0728 50.439 31.323 48.1382 31.323 44.4367ZM32.7996 44.4367C32.7996 47.4082 34.0031 49.2419 36.043 49.2419C38.083 49.2419 39.2864 47.3996 39.2864 44.4367C39.2864 41.4736 38.083 39.6143 36.043 39.6143C34.0031 39.6143 32.7996 41.4736 32.7996 44.4367ZM49.5204 44.4536H49.3582C48.9229 45.2942 47.9669 46.211 46.1147 46.211C43.8102 46.211 42.1714 44.6659 42.1714 42.3906C42.1714 40.1322 43.7931 38.4427 46.3537 38.4427C49.0424 38.4427 50.9457 40.1492 50.9457 44.1225C50.9457 48.6053 49.0168 50.4476 46.311 50.4476C43.7504 50.4476 42.6921 48.8684 42.5128 47.544V47.2978H43.8614C44.0065 48.3165 44.5954 49.3014 46.294 49.3014C48.1888 49.2929 49.4862 47.943 49.5204 44.4536ZM49.1789 42.3311C49.1789 40.684 48.0267 39.5719 46.3708 39.5719C44.732 39.5719 43.5968 40.684 43.5968 42.3311C43.5968 43.9782 44.732 45.0733 46.3708 45.0733C48.0267 45.0733 49.1789 43.9697 49.1789 42.3311ZM79.3769 41.9915C79.3769 44.1564 77.7211 45.3621 75.647 45.3621H72.0963V50.2522H70.6026V38.6379H75.647C77.7211 38.6379 79.3769 39.8436 79.3769 41.9915ZM77.9003 42.0085C77.9003 40.6077 76.8761 39.8181 75.3823 39.8181H72.0878V44.2074H75.3823C76.8761 44.1989 77.9003 43.3923 77.9003 42.0085ZM87.5965 48.4099C87.5965 49.0891 87.6648 49.5901 87.8269 50.006V50.2522H86.4954C86.3844 49.9297 86.3332 49.5731 86.3161 49.0722H86.154C85.7357 49.7684 84.9249 50.4305 83.3032 50.4305C81.5364 50.4305 80.2902 49.4457 80.2902 47.9599C80.2902 46.3638 81.5535 45.6846 83.1751 45.5404L85.1554 45.3621C85.8808 45.2942 86.2564 45.1073 86.2564 44.4791C86.2564 43.4348 85.4968 42.8999 84.2164 42.8999C82.9362 42.8999 82.0912 43.4009 82.0144 44.4026H80.6913V44.148C80.8877 42.7302 82.2192 41.8387 84.225 41.8387C86.2478 41.8387 87.5965 42.7217 87.5965 44.7592V48.4099ZM86.2478 46.0497H86.0857C85.8381 46.1941 85.5821 46.2959 84.8224 46.3553L83.5081 46.4827C82.3558 46.5761 81.69 46.9837 81.69 47.8836C81.69 48.7665 82.4326 49.3694 83.5507 49.3694C84.8993 49.3694 86.2394 48.5967 86.2394 46.61V46.0497H86.2478ZM91.4885 43.1631H91.3264V42.0339H89.9351V50.2438H91.3606V45.5828C91.3606 43.5706 92.3677 43.0358 93.9724 43.1461V41.949C92.4275 41.8302 91.7788 42.4245 91.4885 43.1631ZM95.577 50.2438H97.0024V42.0339H95.577V50.2438ZM95.3978 40.5057H97.1816V38.9267H95.3978V40.5057ZM103.327 45.5998L101.996 45.3705C101.108 45.2262 100.391 44.9545 100.391 44.148C100.391 43.3414 101.151 42.8914 102.405 42.8914C103.668 42.8914 104.496 43.3414 104.582 44.3942H105.913V44.148C105.717 42.7641 104.471 41.8387 102.397 41.8387C100.323 41.8387 99.0424 42.7131 99.0424 44.1905C99.0424 45.6252 100.143 46.2704 101.688 46.5166L103.02 46.7459C104.087 46.9242 104.821 47.1959 104.821 48.0195C104.821 48.826 104.104 49.3863 102.713 49.3863C101.321 49.3863 100.331 48.8175 100.212 47.7392H98.8802V47.9854C99.0936 49.4712 100.451 50.439 102.704 50.439C104.94 50.439 106.186 49.4881 106.186 47.9345C106.178 46.4063 105 45.88 103.327 45.5998ZM107.672 48.5882V50.2522H108.551V50.7362C108.551 51.2711 108.354 51.5088 107.808 51.5088H107.629V52.2983H107.919C108.909 52.2983 109.455 51.7635 109.455 50.7701V48.5967H107.672V48.5882ZM34.6773 58.8102L34.5152 59.3621C35.3773 59.379 35.7443 59.4894 35.7443 60.0667C35.7443 60.211 35.7101 60.4232 35.6503 60.661L33.5764 67.835C33.4142 68.4039 33.2007 68.769 32.9447 68.9303C32.6715 69.0915 32.2448 69.1849 31.6814 69.219L31.5192 69.7708H36.8026L36.9648 69.219C35.5565 69.168 35.1042 68.9727 35.1042 68.3445C35.1042 68.1322 35.1553 67.8775 35.2492 67.5549L36.1284 64.49H37.75C39.0645 64.49 39.3888 64.5664 39.3888 65.2117C39.3888 65.4069 39.3376 65.7126 39.2609 66.1116H39.9778L41.113 62.2062H40.396C40.1485 62.9363 39.8754 63.3863 39.5852 63.5646C39.2949 63.7429 38.7402 63.8363 37.9464 63.8363H36.3076L37.5709 59.447H40.3106C41.5398 59.447 42.0434 59.7186 42.0434 60.5592C42.0434 60.8308 41.9921 61.1704 41.8982 61.561H42.675L43.4858 58.7847H34.6773V58.8102ZM49.5972 62.9363C49.5972 62.2911 49.1277 61.9345 48.5899 61.9345C48.1888 61.9345 47.762 62.1807 47.3609 62.6561C46.7805 63.2674 45.9526 64.6089 44.8942 66.655H44.6722C45.2697 65.3135 45.6794 64.3966 45.8587 63.9126C46.0379 63.4287 46.1318 63.0722 46.1318 62.8344C46.1318 62.2402 45.8245 61.9345 45.1929 61.9345C44.3309 61.9345 43.537 62.724 42.8116 64.2863L43.3322 64.4476C43.8017 63.607 44.1772 63.1911 44.4503 63.1911C44.5954 63.1911 44.6808 63.276 44.6808 63.4202C44.6808 63.5306 44.6296 63.7938 44.5186 64.1589L42.8287 69.7708H44.0748C44.5442 68.4039 45.1331 67.0964 45.8245 65.8654C46.5244 64.6428 47.1731 63.7514 47.7706 63.208C47.9498 63.3523 48.129 63.7853 48.1717 63.8532C48.2827 64.0146 48.4449 64.0994 48.6924 64.0994C49.2557 64.0994 49.5972 63.5985 49.5972 62.9363ZM54.5306 67.9964C54.3854 68.4294 54.4367 68.6586 54.6757 68.6586C54.9829 68.6586 55.3755 68.2426 55.862 67.402L56.3485 67.5464C55.717 68.9812 54.889 69.9151 54.027 69.9151C53.3612 69.9151 53.0369 69.5925 53.0369 68.9642C53.0369 68.4633 53.5746 67.2237 54.6415 65.2541H54.3684C53.2502 67.1389 52.4223 68.4124 51.8846 69.0407C51.3469 69.6689 50.7323 69.9915 50.0666 69.9915C49.2386 69.9915 48.6582 69.4736 48.6582 68.3615C48.6582 67.7841 48.8375 67.1219 49.1959 66.3748C49.5545 65.6276 49.9898 64.9569 50.5275 64.3287C51.0652 63.7174 51.6457 63.1995 52.2943 62.7665C52.9259 62.3336 53.5063 62.1213 54.0441 62.1213C54.4623 62.1213 54.8207 62.2147 55.1024 62.4099L55.2987 61.7986H56.6644L54.5306 67.9964ZM54.6757 63.8873C54.283 63.2929 53.7879 62.9873 53.165 62.9702C52.8576 62.9873 52.4479 63.276 51.9529 63.8702C51.4493 64.4645 50.997 65.1437 50.6044 65.9333C49.8105 67.4954 49.7934 68.6586 50.6555 68.6586C51.1079 68.6586 51.6457 68.285 52.2431 67.5464C52.8405 66.8078 53.6515 65.5768 54.6757 63.8873ZM63.5182 68.6586C63.3561 68.6586 63.2793 68.5822 63.2793 68.4039C63.2793 68.2766 63.3732 67.9964 63.5524 67.5974L64.7815 64.6598C65.0376 64.091 65.1741 63.5815 65.1741 63.1316C65.1741 62.3591 64.6705 61.9345 63.8085 61.9345C63.1427 61.9345 62.5112 62.2911 61.8966 62.9957C61.282 63.7174 60.5479 64.9315 59.7201 66.6379H59.4896C60.087 65.2796 60.4627 64.3797 60.6419 63.9297C60.8211 63.4967 60.898 63.1061 60.898 62.8005C60.898 62.2402 60.5736 61.926 60.0102 61.926C59.1482 61.926 58.3374 62.7156 57.6118 64.2777L58.1325 64.439C58.6019 63.5985 58.9774 63.1825 59.2506 63.1825C59.5579 63.1825 59.5237 63.4881 59.3189 64.2014L57.6289 69.7623H58.875C59.2165 68.7774 59.6176 67.7926 60.1041 66.8078C60.5906 65.823 61.1284 64.9824 61.6917 64.2608C62.255 63.5306 62.7586 63.1825 63.1854 63.1825C63.5098 63.1825 63.6719 63.3439 63.6719 63.6835C63.6719 63.8957 63.578 64.2777 63.3817 64.8466L62.2124 67.5719C61.9562 68.1661 61.8198 68.6162 61.8198 68.9557C61.8198 69.55 62.2124 69.9066 62.7928 69.9066C63.6548 69.9066 64.4487 69.117 65.1741 67.5379L64.6534 67.3766C64.1755 68.2426 63.7914 68.6586 63.5182 68.6586ZM70.7818 61.9345C69.9881 61.9345 69.2284 62.2571 68.5115 62.8854C67.7859 63.5306 67.2311 64.2862 66.8385 65.1777C66.4459 66.0606 66.2581 66.9012 66.2581 67.7077C66.2581 69.2698 67.0861 70 68.3834 70C69.1771 70 69.9198 69.5925 70.3977 68.9982C70.8672 68.4208 71.1403 67.903 71.3537 67.3681L70.8501 67.2237C70.2868 68.1746 69.6211 68.6586 68.887 68.6586C68.025 68.6586 67.5897 68.1577 67.5897 67.1729C67.5897 66.154 67.8969 65.1438 68.5285 64.1249C69.1602 63.1061 69.8771 62.6053 70.6965 62.5967C70.7818 62.7411 70.8074 62.9873 70.8074 63.2929C70.8074 63.5985 70.8074 63.7938 70.8245 63.8702C70.8928 64.2862 71.1489 64.4984 71.6013 64.4984C72.1987 64.4984 72.5913 64.0485 72.5913 63.3863C72.5999 62.5627 71.8999 61.9345 70.7818 61.9345ZM79.1977 63.2419C79.1977 63.9976 78.7453 64.6598 77.8235 65.2541C76.9017 65.8484 75.7153 66.154 74.2899 66.171C74.2131 66.5446 74.1789 66.8672 74.1789 67.1389C74.1789 68.1577 74.6313 68.6586 75.5531 68.6586C76.2957 68.6586 76.9614 68.1916 77.5333 67.2408L78.0368 67.3851C77.8406 67.903 77.5674 68.4378 77.0809 69.0152C76.5944 69.5925 75.8519 70 75.0495 70C73.6839 70 72.8473 69.2869 72.8473 67.6908C72.8473 66.8841 73.0608 66.0437 73.4619 65.1607C73.8632 64.2777 74.4349 63.5136 75.1775 62.8854C75.9031 62.2571 76.6883 61.9345 77.4991 61.9345C78.6258 61.9345 79.1977 62.3675 79.1977 63.2419ZM77.5589 63.3523C77.5589 62.9618 77.3626 62.775 76.9785 62.775C76.509 62.775 76.0396 63.0467 75.5702 63.5985C75.0836 64.1674 74.7081 64.8211 74.452 65.5852C75.4079 65.4748 76.1506 65.1947 76.7224 64.7448C77.2943 64.2948 77.5589 63.8193 77.5589 63.3523Z" fill="#7E64FF"/>
</svg>
