<svg width="60" height="60" viewBox="0 0 60 60" fill="none" xmlns="http://www.w3.org/2000/svg">
<path d="M0.5 30C0.5 13.7076 13.7076 0.5 30 0.5C46.2924 0.5 59.5 13.7076 59.5 30C59.5 46.2924 46.2924 59.5 30 59.5C13.7076 59.5 0.5 46.2924 0.5 30Z" stroke="#F6F2E8"/>
<g clip-path="url(#clip0_2_2476)">
<path d="M33.2258 24C34.6803 25.613 35.9376 26.8402 36.9984 27.6801C38.0592 28.5201 39.0595 29.146 40 29.558V30.3257C38.9175 30.8486 37.8679 31.5247 36.8505 32.3533C35.8338 33.1819 34.6198 34.3977 33.2094 36H31.9462C32.9741 33.7637 34.0513 32.0444 35.1778 30.8426H20L20 29.1567H35.1772C34.3458 28.0887 33.7668 27.2902 33.4388 26.7619C33.1108 26.2336 32.6238 25.3127 31.9791 24L33.2258 24Z" fill="#F6F2E8"/>
</g>
<defs>
<clipPath id="clip0_2_2476">
<rect width="20" height="12" fill="white" transform="translate(20 24)"/>
</clipPath>
</defs>
</svg>
