<svg width="60" height="60" viewBox="0 0 60 60" fill="none" xmlns="http://www.w3.org/2000/svg">
<path d="M0.5 30C0.5 13.7076 13.7076 0.5 30 0.5C46.2924 0.5 59.5 13.7076 59.5 30C59.5 46.2924 46.2924 59.5 30 59.5C13.7076 59.5 0.5 46.2924 0.5 30Z" stroke="#F6F2E8"/>
<g clip-path="url(#clip0_2_2480)">
<path d="M26.7742 36C25.3197 34.387 24.0624 33.1598 23.0016 32.3199C21.9408 31.4799 20.9405 30.854 20 30.442L20 29.6743C21.0825 29.1514 22.1321 28.4753 23.1495 27.6467C24.1662 26.8181 25.3802 25.6023 26.7906 24L28.0538 24C27.0259 26.2363 25.9487 27.9556 24.8222 29.1574H40V30.8433H24.8228C25.6542 31.9113 26.2333 32.7098 26.5612 33.2381C26.8892 33.7664 27.3762 34.6872 28.0209 36H26.7742Z" fill="#F6F2E8"/>
</g>
<defs>
<clipPath id="clip0_2_2480">
<rect width="20" height="12" fill="white" transform="translate(20 24)"/>
</clipPath>
</defs>
</svg>
