<svg width="724" height="688" viewBox="0 0 724 688" fill="none" xmlns="http://www.w3.org/2000/svg">
<path d="M117 294.297C117 170.033 217.736 69.2969 342 69.2969C466.264 69.2969 567 170.033 567 294.297V619.297H117V294.297Z" fill="#E2DEDA"/>
<g clip-path="url(#clip0_2_292)">
<path d="M501.56 105.892V539.991C501.56 542.481 499.756 544.502 497.533 544.502H183.414C181.191 544.502 179.387 542.481 179.387 539.991V105.892C179.387 103.403 181.191 101.382 183.414 101.382H497.533C499.756 101.382 501.56 103.403 501.56 105.892Z" fill="#FAFAF6"/>
<path d="M501.56 598.905V662.047H179.387V598.905H501.56Z" fill="#FAFAF6"/>
<path d="M501.515 660.852V661.979H179.342V660.852H501.515Z" fill="#0A151B" fill-opacity="0.08"/>
<path d="M247.622 627.601H249.132C249.132 625.91 247.823 624.783 246.011 624.783C244.199 624.783 242.789 625.909 242.789 627.712C242.789 629.178 243.695 629.967 245.105 630.305L246.112 630.646C247.018 630.87 247.722 631.208 247.722 631.997C247.722 632.786 247.018 633.35 246.011 633.35C245.004 633.35 244.199 632.901 244.199 631.773H242.588C242.688 633.689 243.997 634.815 246.011 634.815C248.125 634.815 249.333 633.689 249.333 631.885C249.333 630.194 248.024 629.404 246.716 629.066L245.91 628.839C245.205 628.614 244.4 628.276 244.4 627.486C244.4 626.698 245.004 626.247 246.011 626.247C246.917 626.247 247.521 626.699 247.622 627.601ZM252.253 630.42C252.253 629.404 252.857 628.729 253.662 628.729C254.468 628.729 254.971 629.292 254.971 630.305V634.704H256.481V629.967C256.481 628.164 255.575 627.148 254.267 627.148C253.26 627.148 252.555 627.713 252.253 628.502H252.152V627.375H250.642V634.704H252.152V630.42H252.253ZM260.911 634.815C262.824 634.815 264.032 633.239 264.032 630.984C264.032 628.729 262.824 627.148 260.911 627.148C258.998 627.148 257.79 628.729 257.79 630.984C257.69 633.351 258.998 634.815 260.911 634.815ZM260.911 633.465C259.804 633.465 259.3 632.448 259.3 631.095C259.3 629.741 259.804 628.614 260.911 628.614C261.918 628.614 262.522 629.741 262.522 631.095C262.522 632.336 261.918 633.465 260.911 633.465ZM266.549 634.704H268.16L269.368 629.741H269.469L270.677 634.704H272.288L274.201 627.375H272.59L271.483 632.56H271.382L270.174 627.375H268.563L267.355 632.56H267.254L266.046 627.375H264.435L266.549 634.704ZM278.631 627.375H277.221V626.811C277.221 626.247 277.423 625.91 278.027 625.91C278.228 625.91 278.43 626.021 278.631 626.021L278.933 624.668C278.732 624.555 278.329 624.444 277.725 624.444C276.617 624.444 275.711 625.232 275.711 626.699V627.375H274.704V628.729H275.711V634.815H277.221V628.729H278.631V627.375ZM281.45 624.893H279.94V634.704H281.45V624.893ZM284.873 634.815C285.88 634.815 286.484 634.252 286.786 633.688H286.887V634.704H288.397V629.741C288.397 627.826 286.987 627.263 285.678 627.263C284.269 627.263 283.262 627.939 282.859 629.293L284.269 629.518C284.47 629.066 284.873 628.614 285.578 628.614C286.283 628.614 286.685 629.065 286.685 629.741C286.685 630.192 286.182 630.306 285.074 630.42C283.766 630.532 282.557 630.984 282.557 632.675C282.658 634.14 283.665 634.815 284.873 634.815ZM285.276 633.576C284.672 633.576 284.168 633.238 284.168 632.56C284.168 631.884 284.672 631.659 285.376 631.548C285.779 631.434 286.585 631.321 286.786 631.21V632.112C286.786 632.901 286.283 633.576 285.276 633.576ZM289.907 634.704H291.417V632.222L292.021 631.548L294.035 634.704H295.847L293.129 630.531L295.646 627.375H293.833L291.417 630.305H291.316V624.893H289.806V634.704H289.907ZM299.472 634.815C300.982 634.815 302.089 634.028 302.291 632.675L300.881 632.449C300.68 633.125 300.176 633.35 299.472 633.35C298.465 633.35 297.76 632.561 297.76 631.321H302.391V630.757C302.391 628.165 300.982 627.038 299.371 627.038C297.458 627.038 296.25 628.614 296.25 630.869C296.25 633.35 297.458 634.815 299.472 634.815ZM297.76 630.305C297.76 629.403 298.465 628.614 299.371 628.614C300.277 628.614 300.881 629.292 300.881 630.305H297.76Z" fill="#0A151B"/>
<path d="M224.765 637.895L219.429 634.513C218.725 634.063 217.718 634.288 217.315 635.192C217.114 635.529 217.114 635.866 217.114 636.204V642.969C217.114 643.984 217.819 644.661 218.624 644.661C219.53 644.661 220.134 643.871 220.134 642.969V639.138L223.155 641.054C223.859 641.505 224.866 641.279 225.269 640.377C225.772 639.475 225.47 638.346 224.765 637.895Z" fill="#29B5E8"/>
<path d="M211.476 630.567C211.476 629.891 211.174 629.327 210.67 629.101L205.334 625.719C205.133 625.607 204.831 625.493 204.529 625.493C204.026 625.493 203.522 625.831 203.22 626.395C202.817 627.184 203.019 628.312 203.824 628.763L206.845 630.793L203.824 632.822C203.421 633.048 203.22 633.386 203.119 633.837C203.019 634.288 203.019 634.739 203.321 635.191C203.623 635.755 204.126 636.092 204.63 636.092C204.932 636.092 205.133 635.979 205.435 635.866L210.771 632.484C211.274 631.695 211.476 631.131 211.476 630.567Z" fill="#29B5E8"/>
<path d="M206.643 623.125L211.979 626.508C212.583 626.958 213.389 626.734 213.892 626.283C214.194 625.945 214.396 625.494 214.396 625.043V618.164C214.396 617.149 213.691 616.473 212.885 616.473C211.979 616.473 211.375 617.262 211.375 618.164V622.11L208.355 620.194C207.65 619.744 206.643 619.968 206.24 620.87C205.636 621.659 205.938 622.674 206.643 623.125Z" fill="#29B5E8"/>
<path d="M218.624 630.792C218.624 630.905 218.523 631.13 218.423 631.244L216.308 633.611C216.208 633.724 216.107 633.837 215.906 633.837H215.402C215.302 633.837 215.1 633.724 215 633.611L212.885 631.244C212.785 631.13 212.684 631.018 212.684 630.792V630.228C212.684 630.117 212.785 629.89 212.885 629.777L215 627.41C215.1 627.298 215.201 627.184 215.402 627.184H215.906C216.006 627.184 216.208 627.298 216.308 627.41L218.423 629.777C218.523 629.89 218.624 630.003 218.624 630.228V630.792ZM216.711 630.567C216.711 630.454 216.711 630.341 216.61 630.228L216.006 629.553C215.906 629.439 215.805 629.439 215.704 629.439C215.604 629.439 215.503 629.439 215.402 629.553L214.798 630.228C214.698 630.341 214.698 630.454 214.698 630.567C214.698 630.681 214.698 630.792 214.798 630.905L215.402 631.581C215.503 631.694 215.604 631.694 215.704 631.694C215.805 631.694 215.906 631.694 216.006 631.581L216.61 630.905C216.711 630.792 216.711 630.681 216.711 630.567Z" fill="#29B5E8"/>
<path d="M219.429 626.62L224.765 623.238C225.47 622.788 225.772 621.66 225.37 620.87C224.967 620.081 223.96 619.742 223.255 620.193L220.235 622.11V618.164C220.235 617.15 219.53 616.473 218.725 616.473C217.819 616.473 217.215 617.262 217.215 618.164V624.929C217.215 625.267 217.215 625.607 217.416 625.944C217.718 626.846 218.624 627.071 219.429 626.62Z" fill="#29B5E8"/>
<path d="M212.986 634.286C212.583 634.174 212.281 634.286 211.879 634.512L206.543 637.895C205.838 638.347 205.536 639.475 205.938 640.265C206.341 641.053 207.348 641.392 208.053 640.94L211.073 639.022V642.857C211.073 643.87 211.778 644.548 212.583 644.548C213.489 644.548 214.093 643.758 214.093 642.857V635.978C214.295 635.076 213.791 634.4 212.986 634.286Z" fill="#29B5E8"/>
<path d="M228.088 626.17C227.685 625.381 226.678 625.043 225.974 625.493L220.638 628.875C220.134 629.214 219.832 629.777 219.832 630.455C219.832 631.019 220.134 631.694 220.638 632.032L225.974 635.415C226.678 635.867 227.685 635.641 228.088 634.74C228.491 633.949 228.289 632.822 227.484 632.372L224.463 630.455L227.484 628.538C228.189 628.086 228.491 627.072 228.088 626.17Z" fill="#29B5E8"/>
<path d="M501.56 662.61V725.752H179.387V662.61H501.56Z" fill="#FAFAF6"/>
<path d="M470.425 682.624C464.864 682.624 460.357 687.672 460.357 693.899C460.357 700.127 464.864 705.175 470.425 705.175C475.984 705.175 480.493 700.127 480.493 693.899C480.493 687.672 475.984 682.624 470.425 682.624Z" fill="url(#paint0_linear_2_292)"/>
<path d="M501.56 599.469V662.61H179.387V599.469H501.56Z" fill="#FAFAF6"/>
<path d="M501.515 661.416V662.543H179.342V661.416H501.515Z" fill="#0A151B" fill-opacity="0.08"/>
<path d="M470.425 619.482C464.864 619.482 460.357 624.53 460.357 630.758C460.357 636.985 464.864 642.033 470.425 642.033C475.984 642.033 480.493 636.985 480.493 630.758C480.493 624.53 475.984 619.482 470.425 619.482Z" fill="url(#paint1_linear_2_292)"/>
<path d="M470.802 626.811C470.802 626.578 470.633 626.389 470.425 626.389C470.216 626.389 470.047 626.578 470.047 626.811V630.335H466.901C466.693 630.335 466.524 630.524 466.524 630.758C466.524 630.991 466.693 631.181 466.901 631.181H470.047V634.704C470.047 634.938 470.216 635.127 470.425 635.127C470.633 635.127 470.802 634.938 470.802 634.704V631.181H473.949C474.157 631.181 474.326 630.991 474.326 630.758C474.326 630.524 474.157 630.335 473.949 630.335H470.802V626.811Z" fill="white"/>
<path d="M215.304 615.536C214.398 615.536 213.592 616.099 213.089 617.001C212.686 617.903 212.686 619.031 213.189 619.82L214.196 618.693C214.196 618.58 214.095 618.467 214.095 618.354C214.095 617.678 214.599 617.227 215.102 617.227C215.706 617.227 216.109 617.791 216.109 618.354C216.109 618.918 215.606 619.482 215.102 619.482C215.002 619.482 214.901 619.482 214.8 619.369L213.793 620.497C214.7 621.173 215.807 621.173 216.713 620.384C217.519 619.707 217.921 618.467 217.519 617.34C217.317 616.325 216.411 615.536 215.304 615.536Z" fill="#34A853"/>
<path d="M214.297 623.541C214.297 622.639 213.995 621.737 213.491 620.948L212.082 622.527C212.485 623.428 212.384 624.444 211.679 625.12L212.384 627.149C213.693 626.36 214.297 625.008 214.297 623.541Z" fill="#FBBC04"/>
<path d="M210.572 625.796C209.666 625.796 208.961 625.232 208.659 624.33C208.357 623.428 208.659 622.413 209.263 621.85C209.968 621.286 210.874 621.286 211.579 621.737L212.887 620.272C211.579 619.031 209.766 619.031 208.357 620.045C206.947 621.061 206.343 623.091 206.847 624.894C207.35 626.699 208.86 627.938 210.572 627.938C210.874 627.938 211.075 627.938 211.377 627.827L210.572 625.796Z" fill="#EA4335"/>
<path d="M215.404 627.487C214.599 627.487 213.693 627.601 212.887 627.938L213.995 630.87C214.498 630.757 214.901 630.646 215.404 630.646C218.223 630.646 220.64 632.901 221.143 635.944C221.646 638.988 220.237 642.145 217.619 643.273C215.002 644.4 211.981 643.498 210.471 640.793C208.86 638.199 209.263 634.704 211.176 632.448C211.578 631.997 212.082 631.548 212.585 631.321L211.478 628.39C207.451 630.532 205.638 635.719 207.048 640.454C208.558 645.19 212.887 647.783 217.217 646.655C221.546 645.528 224.465 640.905 223.962 636.058C223.559 631.209 219.834 627.487 215.404 627.487Z" fill="#4285F4"/>
<path d="M242.89 636.395H248.326V634.929H244.501V626.585H242.89V636.395ZM252.555 636.508C254.468 636.508 255.676 634.929 255.676 632.674C255.676 630.419 254.468 628.841 252.555 628.841C250.642 628.841 249.434 630.419 249.434 632.674C249.333 635.042 250.642 636.508 252.555 636.508ZM252.555 635.155C251.448 635.155 250.944 634.14 250.944 632.787C250.944 631.434 251.448 630.306 252.555 630.306C253.562 630.306 254.166 631.434 254.166 632.787C254.065 634.027 253.562 635.155 252.555 635.155ZM259.905 636.508C261.817 636.508 263.026 634.929 263.026 632.674C263.026 630.419 261.817 628.841 259.905 628.841C257.992 628.841 256.784 630.419 256.784 632.674C256.683 635.042 257.992 636.508 259.905 636.508ZM259.905 635.155C258.797 635.155 258.294 634.14 258.294 632.787C258.294 631.434 258.797 630.306 259.905 630.306C260.911 630.306 261.515 631.434 261.515 632.787C261.415 634.027 260.911 635.155 259.905 635.155ZM264.334 636.395H265.845V633.914L266.449 633.238L268.462 636.395H270.275L267.556 632.223L270.073 629.066H268.261L265.845 631.998H265.744V626.585H264.234V636.395H264.334ZM273.899 636.508C275.409 636.508 276.517 635.718 276.718 634.365L275.308 634.14C275.107 634.816 274.604 635.042 273.899 635.042C272.892 635.042 272.187 634.253 272.187 633.012H276.819V632.449C276.819 629.855 275.409 628.728 273.798 628.728C271.885 628.728 270.677 630.306 270.677 632.561C270.677 635.042 271.885 636.508 273.899 636.508ZM272.187 631.998C272.187 631.096 272.892 630.306 273.798 630.306C274.704 630.306 275.308 630.983 275.308 631.998H272.187ZM278.128 636.395H279.638V632.11C279.638 631.208 280.242 630.532 281.148 630.532C281.45 630.532 281.752 630.532 281.853 630.645V629.066H281.249C280.443 629.066 279.839 629.517 279.638 630.419H279.537V629.066H278.128V636.395Z" fill="#0A151B"/>
<path d="M215.908 686.232C218.223 686.232 219.733 687.359 220.64 688.261L224.163 684.426C222.049 682.171 219.23 680.819 215.908 680.819C211.075 680.819 206.947 683.863 204.934 688.373L208.961 691.869C209.968 688.712 212.686 686.232 215.908 686.232Z" fill="#EB4335"/>
<path d="M501.56 535.763V598.905H179.387V535.763H501.56Z" fill="#FAFAF6"/>
<path d="M501.515 597.71V598.838H179.342V597.71H501.515Z" fill="#0A151B" fill-opacity="0.08"/>
<path d="M470.425 555.777C464.864 555.777 460.357 560.825 460.357 567.052C460.357 573.28 464.864 578.328 470.425 578.328C475.984 578.328 480.493 573.28 480.493 567.052C480.493 560.825 475.984 555.777 470.425 555.777Z" fill="url(#paint2_linear_2_292)"/>
<path d="M470.802 563.106C470.802 562.873 470.633 562.683 470.425 562.683C470.216 562.683 470.047 562.873 470.047 563.106V566.629H466.901C466.693 566.629 466.524 566.819 466.524 567.052C466.524 567.286 466.693 567.475 466.901 567.475H470.047V570.999C470.047 571.232 470.216 571.421 470.425 571.421C470.633 571.421 470.802 571.232 470.802 570.999V567.475H473.949C474.157 567.475 474.326 567.286 474.326 567.052C474.326 566.819 474.157 566.629 473.949 566.629H470.802V563.106Z" fill="white"/>
<path d="M501.56 472.622V535.763H179.387V472.622H501.56Z" fill="#FAFAF6"/>
<path d="M501.515 534.568V535.696H179.342V534.568H501.515Z" fill="#0A151B" fill-opacity="0.08"/>
<path d="M470.425 492.635C464.864 492.635 460.357 497.683 460.357 503.911C460.357 510.138 464.864 515.186 470.425 515.186C475.984 515.186 480.493 510.138 480.493 503.911C480.493 497.683 475.984 492.635 470.425 492.635Z" fill="url(#paint3_linear_2_292)"/>
<path d="M470.802 499.964C470.802 499.73 470.633 499.541 470.425 499.541C470.216 499.541 470.047 499.73 470.047 499.964V503.487H466.901C466.693 503.487 466.524 503.677 466.524 503.91C466.524 504.144 466.693 504.333 466.901 504.333H470.047V507.857C470.047 508.09 470.216 508.279 470.425 508.279C470.633 508.279 470.802 508.09 470.802 507.857V504.333H473.949C474.157 504.333 474.326 504.144 474.326 503.91C474.326 503.677 474.157 503.487 473.949 503.487H470.802V499.964Z" fill="white"/>
<path d="M501.56 409.48V472.622H179.387V409.48H501.56Z" fill="#FAFAF6"/>
<path d="M501.515 471.427V472.554H179.342V471.427H501.515Z" fill="#0A151B" fill-opacity="0.08"/>
<path d="M470.425 429.493C464.864 429.493 460.357 434.541 460.357 440.768C460.357 446.996 464.864 452.044 470.425 452.044C475.984 452.044 480.493 446.996 480.493 440.768C480.493 434.541 475.984 429.493 470.425 429.493Z" fill="url(#paint4_linear_2_292)"/>
<path d="M470.802 436.822C470.802 436.589 470.633 436.399 470.425 436.399C470.216 436.399 470.047 436.589 470.047 436.822V440.346H466.901C466.693 440.346 466.524 440.535 466.524 440.769C466.524 441.002 466.693 441.191 466.901 441.191H470.047V444.715C470.047 444.948 470.216 445.138 470.425 445.138C470.633 445.138 470.802 444.948 470.802 444.715V441.191H473.949C474.157 441.191 474.326 441.002 474.326 440.769C474.326 440.535 474.157 440.346 473.949 440.346H470.802V436.822Z" fill="white"/>
<path d="M501.56 346.338V409.48H179.387V346.338H501.56Z" fill="#FAFAF6"/>
<path d="M501.515 408.285V409.413H179.342V408.285H501.515Z" fill="#0A151B" fill-opacity="0.08"/>
<path d="M470.425 366.352C464.864 366.352 460.357 371.4 460.357 377.627C460.357 383.854 464.864 388.902 470.425 388.902C475.984 388.902 480.493 383.854 480.493 377.627C480.493 371.4 475.984 366.352 470.425 366.352Z" fill="url(#paint5_linear_2_292)"/>
<path d="M470.802 373.681C470.802 373.447 470.633 373.258 470.425 373.258C470.216 373.258 470.047 373.447 470.047 373.681V377.204H466.901C466.693 377.204 466.524 377.394 466.524 377.627C466.524 377.86 466.693 378.05 466.901 378.05H470.047V381.573C470.047 381.807 470.216 381.996 470.425 381.996C470.633 381.996 470.802 381.807 470.802 381.573V378.05H473.949C474.157 378.05 474.326 377.86 474.326 377.627C474.326 377.394 474.157 377.204 473.949 377.204H470.802V373.681Z" fill="white"/>
<path d="M501.56 283.196V346.338H179.387V283.196H501.56Z" fill="#FAFAF6"/>
<path d="M501.515 345.144V346.271H179.342V345.144H501.515Z" fill="#0A151B" fill-opacity="0.08"/>
<path d="M470.425 303.21C464.864 303.21 460.357 308.258 460.357 314.485C460.357 320.713 464.864 325.761 470.425 325.761C475.984 325.761 480.493 320.713 480.493 314.485C480.493 308.258 475.984 303.21 470.425 303.21Z" fill="url(#paint6_linear_2_292)"/>
<path d="M470.802 310.539C470.802 310.306 470.633 310.116 470.425 310.116C470.216 310.116 470.047 310.306 470.047 310.539V314.063H466.901C466.693 314.063 466.524 314.252 466.524 314.485C466.524 314.719 466.693 314.908 466.901 314.908H470.047V318.432C470.047 318.665 470.216 318.855 470.425 318.855C470.633 318.855 470.802 318.665 470.802 318.432V314.908H473.949C474.157 314.908 474.326 314.719 474.326 314.485C474.326 314.252 474.157 314.063 473.949 314.063H470.802V310.539Z" fill="white"/>
<path d="M501.56 220.055V283.196H179.387V220.055H501.56Z" fill="#FAFAF6"/>
<path d="M501.515 282.002V283.129H179.342V282.002H501.515Z" fill="#0A151B" fill-opacity="0.08"/>
<path d="M470.425 240.068C464.864 240.068 460.357 245.116 460.357 251.344C460.357 257.571 464.864 262.619 470.425 262.619C475.984 262.619 480.493 257.571 480.493 251.344C480.493 245.116 475.984 240.068 470.425 240.068Z" fill="url(#paint7_linear_2_292)"/>
<path d="M470.802 247.397C470.802 247.164 470.633 246.975 470.425 246.975C470.216 246.975 470.047 247.164 470.047 247.397V250.921H466.901C466.693 250.921 466.524 251.11 466.524 251.344C466.524 251.577 466.693 251.767 466.901 251.767H470.047V255.29C470.047 255.524 470.216 255.713 470.425 255.713C470.633 255.713 470.802 255.524 470.802 255.29V251.767H473.949C474.157 251.767 474.326 251.577 474.326 251.344C474.326 251.11 474.157 250.921 473.949 250.921H470.802V247.397Z" fill="white"/>
<path d="M501.56 156.913V220.055H179.387V156.913H501.56Z" fill="#FAFAF6"/>
<path d="M501.515 218.86V219.988H179.342V218.86H501.515Z" fill="#0A151B" fill-opacity="0.08"/>
<path d="M470.425 176.927C464.864 176.927 460.357 181.975 460.357 188.202C460.357 194.429 464.864 199.477 470.425 199.477C475.984 199.477 480.493 194.429 480.493 188.202C480.493 181.975 475.984 176.927 470.425 176.927Z" fill="url(#paint8_linear_2_292)"/>
<path d="M470.802 184.256C470.802 184.022 470.633 183.833 470.425 183.833C470.216 183.833 470.047 184.022 470.047 184.256V187.779H466.901C466.693 187.779 466.524 187.969 466.524 188.202C466.524 188.436 466.693 188.625 466.901 188.625H470.047V192.149C470.047 192.382 470.216 192.571 470.425 192.571C470.633 192.571 470.802 192.382 470.802 192.149V188.625H473.949C474.157 188.625 474.326 188.436 474.326 188.202C474.326 187.969 474.157 187.779 473.949 187.779H470.802V184.256Z" fill="white"/>
<path d="M213.995 179.069C215.002 177.829 216.512 177.152 218.123 177.152C220.237 177.152 222.15 178.505 223.056 180.422C223.962 179.971 224.868 179.745 225.875 179.745C229.701 179.745 232.822 183.241 232.822 187.638C232.822 191.923 229.701 195.531 225.875 195.531C225.372 195.531 224.969 195.531 224.465 195.418C223.559 197.109 221.948 198.35 220.036 198.35C219.23 198.35 218.525 198.124 217.821 197.786C216.915 200.154 214.901 201.732 212.485 201.732C209.968 201.732 207.853 199.928 207.048 197.448C206.645 197.56 206.343 197.56 205.94 197.56C203.021 197.56 200.604 194.854 200.604 191.472C200.604 189.217 201.712 187.3 203.323 186.172C203.021 185.27 202.819 184.368 202.819 183.353C202.819 179.52 205.638 176.363 209.062 176.363C211.075 176.363 212.887 177.49 213.995 179.069Z" fill="#00A1E0"/>
<path d="M205.236 189.442C205.236 189.555 205.236 189.555 205.236 189.442L205.437 189.668C205.739 189.893 206.041 189.893 206.444 189.893C207.149 189.893 207.551 189.555 207.551 188.879C207.551 188.315 207.048 188.089 206.645 187.977H206.545C206.243 187.864 205.94 187.751 205.94 187.526C205.94 187.3 206.142 187.187 206.343 187.187C206.645 187.187 206.947 187.3 207.149 187.413H207.249C207.249 187.413 207.35 187.075 207.35 186.962V186.849C207.149 186.736 206.746 186.511 206.444 186.511H206.343C205.739 186.511 205.336 186.962 205.336 187.526C205.336 188.089 205.84 188.315 206.243 188.54H206.343C206.645 188.653 206.947 188.766 206.947 188.991C206.947 189.217 206.746 189.442 206.444 189.442C206.343 189.442 205.94 189.442 205.638 189.217C205.638 189.217 205.538 189.217 205.538 189.104H205.437L205.236 189.442ZM214.901 189.442C214.901 189.555 215.002 189.555 214.901 189.442C215.002 189.555 215.002 189.555 215.102 189.668C215.404 189.893 215.706 189.893 216.109 189.893C216.814 189.893 217.217 189.555 217.217 188.879C217.217 188.315 216.713 188.089 216.31 187.977H216.21C215.908 187.864 215.606 187.751 215.606 187.526C215.606 187.3 215.807 187.187 216.008 187.187C216.31 187.187 216.612 187.3 216.814 187.413H216.915C216.915 187.413 217.015 187.075 217.015 186.962V186.849C216.814 186.736 216.411 186.511 216.109 186.511H216.008C215.404 186.511 215.002 186.962 215.002 187.526C215.002 188.089 215.505 188.315 215.908 188.54H216.008C216.31 188.653 216.612 188.766 216.612 188.991C216.612 189.217 216.411 189.442 216.109 189.442C216.008 189.442 215.606 189.442 215.304 189.217C215.304 189.217 215.203 189.217 215.203 189.104H215.102L214.901 189.442ZM221.546 188.202C221.546 188.54 221.445 188.879 221.344 188.991C221.244 189.217 221.042 189.33 220.841 189.33C220.64 189.33 220.438 189.217 220.338 188.991C220.237 188.766 220.136 188.54 220.136 188.202C220.136 187.864 220.237 187.526 220.338 187.413C220.438 187.187 220.64 187.075 220.841 187.075C221.042 187.075 221.244 187.187 221.344 187.413C221.445 187.526 221.546 187.864 221.546 188.202ZM222.15 187.526C222.049 187.3 222.049 187.187 221.948 186.962C221.848 186.849 221.646 186.736 221.546 186.623C221.344 186.511 221.143 186.511 220.942 186.511C220.74 186.511 220.539 186.511 220.338 186.623C220.136 186.736 220.036 186.849 219.935 186.962C219.834 187.075 219.734 187.3 219.734 187.526C219.633 187.751 219.633 187.977 219.633 188.202C219.633 188.428 219.633 188.653 219.734 188.879C219.834 189.104 219.834 189.217 219.935 189.442C220.036 189.555 220.237 189.668 220.338 189.781C220.539 189.893 220.74 189.893 220.942 189.893C221.143 189.893 221.344 189.893 221.546 189.781C221.747 189.668 221.848 189.555 221.948 189.442C222.049 189.33 222.15 189.104 222.15 188.879C222.251 188.653 222.251 188.428 222.251 188.202C222.15 187.977 222.15 187.751 222.15 187.526ZM226.68 189.217C226.58 189.217 226.58 189.217 226.68 189.217H226.378H226.076C225.774 189.217 225.573 189.104 225.472 188.991C225.271 188.766 225.271 188.54 225.271 188.202C225.271 187.864 225.372 187.638 225.472 187.413C225.573 187.187 225.774 187.075 226.076 187.075C226.278 187.075 226.479 187.075 226.68 187.187H226.781C226.781 187.075 226.882 186.962 226.882 186.736V186.623C226.781 186.623 226.68 186.511 226.479 186.511H226.076C225.875 186.511 225.674 186.511 225.472 186.623C225.271 186.736 225.17 186.849 225.07 186.962C224.969 187.075 224.868 187.3 224.767 187.526C224.667 187.751 224.667 187.977 224.667 188.202C224.667 188.766 224.767 189.104 225.07 189.442C225.271 189.781 225.674 189.893 226.177 189.893C226.479 189.893 226.781 189.781 226.982 189.781V189.668L226.68 189.217ZM227.587 187.864C227.587 187.638 227.687 187.526 227.687 187.413C227.788 187.187 227.989 187.075 228.191 187.075C228.392 187.075 228.593 187.187 228.694 187.413C228.795 187.526 228.795 187.751 228.795 187.864H227.587ZM229.499 187.413C229.499 187.187 229.298 186.962 229.298 186.962C229.197 186.849 229.097 186.736 228.895 186.623C228.694 186.511 228.593 186.511 228.392 186.511C228.191 186.511 227.989 186.511 227.788 186.623C227.587 186.736 227.486 186.849 227.385 186.962C227.284 187.075 227.184 187.3 227.083 187.526C226.982 187.751 226.982 187.977 226.982 188.202C226.982 188.428 226.982 188.653 227.083 188.879C227.184 189.104 227.184 189.217 227.385 189.442C227.486 189.555 227.687 189.668 227.889 189.781C228.09 189.893 228.291 189.893 228.593 189.893C229.097 189.893 229.399 189.781 229.499 189.668V189.555L229.399 189.217C229.399 189.104 229.298 189.217 229.298 189.217C229.197 189.217 228.996 189.33 228.493 189.33C228.191 189.33 227.989 189.217 227.889 189.104C227.788 188.991 227.687 188.766 227.687 188.428H229.6H229.701C229.499 188.315 229.6 187.864 229.499 187.413ZM212.686 187.864C212.686 187.638 212.787 187.526 212.787 187.413C212.887 187.187 213.089 187.075 213.29 187.075C213.491 187.075 213.693 187.187 213.793 187.413C213.894 187.526 213.894 187.751 213.894 187.864H212.686ZM214.498 187.413C214.498 187.187 214.297 186.962 214.297 186.962C214.196 186.849 214.095 186.736 213.894 186.623C213.693 186.511 213.592 186.511 213.391 186.511C213.189 186.511 212.988 186.511 212.787 186.623C212.585 186.736 212.485 186.849 212.384 186.962C212.283 187.075 212.183 187.3 212.082 187.526C211.981 187.751 211.981 187.977 211.981 188.202C211.981 188.428 211.981 188.653 212.082 188.879C212.183 189.104 212.183 189.217 212.384 189.442C212.485 189.555 212.686 189.668 212.887 189.781C213.089 189.893 213.29 189.893 213.592 189.893C214.095 189.893 214.398 189.781 214.498 189.668V189.555L214.398 189.217C214.398 189.104 214.297 189.217 214.297 189.217C214.196 189.217 213.995 189.33 213.491 189.33C213.189 189.33 212.988 189.217 212.887 189.104C212.787 188.991 212.686 188.766 212.686 188.428H214.599H214.7C214.599 188.315 214.599 187.864 214.498 187.413ZM208.558 189.217L208.457 189.104C208.457 188.991 208.357 188.991 208.357 188.879C208.357 188.653 208.457 188.54 208.558 188.428C208.558 188.428 208.759 188.315 209.062 188.315H209.565V189.217C209.565 189.217 209.364 189.33 209.062 189.33C208.759 189.442 208.558 189.217 208.558 189.217ZM209.364 187.751H209.062C208.86 187.751 208.759 187.751 208.558 187.864C208.457 187.864 208.256 187.977 208.155 188.089C208.055 188.202 207.954 188.315 207.853 188.428C207.753 188.54 207.753 188.766 207.753 188.879C207.753 189.104 207.753 189.217 207.853 189.33C207.954 189.442 207.954 189.555 208.055 189.668C208.155 189.781 208.256 189.781 208.457 189.893C208.558 189.893 208.759 190.006 208.961 190.006H209.565C209.766 190.006 209.968 189.893 210.068 189.893H210.169V189.781V187.864C210.169 187.413 210.068 187.187 209.867 186.962C209.666 186.736 209.364 186.623 208.961 186.623H208.457C208.457 186.623 208.055 186.736 207.853 186.849V186.962L207.954 187.413H208.055C208.457 187.187 208.86 187.187 208.86 187.187C209.062 187.187 209.263 187.187 209.364 187.3C209.464 187.413 209.565 187.526 209.565 187.751V187.864C209.464 187.751 209.364 187.751 209.364 187.751ZM224.365 186.736C224.465 186.623 224.365 186.623 224.365 186.736C224.264 186.623 224.163 186.623 224.063 186.623C223.861 186.623 223.66 186.623 223.559 186.736C223.459 186.849 223.358 186.849 223.257 186.962V186.736C223.257 186.736 223.257 186.623 223.157 186.623H222.754C222.754 186.623 222.653 186.623 222.653 186.736V189.893C222.653 189.893 222.653 190.006 222.754 190.006H223.257V188.428C223.257 188.202 223.257 187.977 223.358 187.864C223.358 187.751 223.459 187.638 223.559 187.526C223.66 187.413 223.66 187.413 223.761 187.413H223.962H224.163C224.163 187.413 224.264 187.413 224.264 187.3C224.264 187.075 224.365 186.736 224.365 186.736Z" fill="white"/>
<path d="M219.834 185.27H219.633H219.331C219.029 185.27 218.727 185.383 218.525 185.609C218.324 185.834 218.223 186.172 218.123 186.511V186.623H217.72C217.72 186.623 217.619 186.623 217.619 186.736L217.519 187.187C217.519 187.187 217.519 187.3 217.619 187.3H218.022L217.72 189.781C217.72 190.006 217.619 190.119 217.619 190.344C217.619 190.457 217.519 190.57 217.519 190.683C217.519 190.795 217.418 190.795 217.317 190.795H217.116H217.015H216.915H216.814C216.814 190.795 216.713 191.134 216.713 191.246V191.359H216.915H217.217C217.418 191.359 217.519 191.359 217.72 191.246C217.821 191.246 217.921 191.134 218.022 191.021C218.123 190.908 218.223 190.795 218.223 190.57C218.324 190.344 218.324 190.119 218.425 189.893L218.827 187.187H219.431C219.431 187.187 219.532 187.187 219.532 187.075L219.633 186.623C219.633 186.623 219.633 186.511 219.532 186.511H218.928C218.928 186.511 218.928 186.285 219.029 186.06C219.029 185.947 219.129 185.834 219.129 185.834C219.129 185.834 219.23 185.721 219.331 185.721H219.532H219.734H219.834H219.935L219.834 185.27ZM211.478 189.781C211.478 189.781 211.478 189.893 211.478 189.781L210.874 189.893C210.874 189.893 210.773 189.893 210.773 189.781V185.27C210.773 185.27 210.773 185.158 210.874 185.158H211.377C211.377 185.158 211.478 185.158 211.478 185.27V189.781Z" fill="white"/>
<path d="M248.628 186.736H250.139C250.139 185.045 248.83 183.917 247.018 183.917C245.205 183.917 243.796 185.045 243.796 186.849C243.796 188.315 244.702 189.104 246.111 189.442L247.118 189.781C248.024 190.006 248.729 190.344 248.729 191.134C248.729 191.923 248.024 192.487 247.018 192.487C246.011 192.487 245.205 192.036 245.205 190.908H243.595C243.695 192.825 245.004 193.952 247.018 193.952C249.132 193.952 250.34 192.825 250.34 191.021C250.34 189.33 249.031 188.54 247.722 188.202L246.917 187.976C246.212 187.751 245.407 187.413 245.407 186.623C245.407 185.834 246.011 185.383 247.018 185.383C247.924 185.383 248.528 185.834 248.628 186.736ZM253.562 193.952C254.569 193.952 255.173 193.389 255.475 192.825H255.575V193.84H257.086V188.878C257.086 186.962 255.676 186.398 254.367 186.398C252.958 186.398 251.951 187.074 251.548 188.427L252.958 188.653C253.159 188.202 253.562 187.751 254.267 187.751C254.971 187.751 255.374 188.202 255.374 188.878C255.374 189.33 254.871 189.442 253.763 189.555C252.454 189.668 251.246 190.119 251.246 191.81C251.347 193.276 252.253 193.952 253.562 193.952ZM253.964 192.712C253.36 192.712 252.857 192.374 252.857 191.697C252.857 191.021 253.36 190.795 254.065 190.683C254.468 190.57 255.273 190.457 255.475 190.344V191.246C255.475 192.036 254.871 192.712 253.964 192.712ZM260.106 184.03H258.596V193.84H260.106V184.03ZM264.636 193.952C266.147 193.952 267.254 193.163 267.455 191.81L266.046 191.697C265.845 192.374 265.341 192.599 264.636 192.599C263.63 192.599 262.925 191.81 262.925 190.57H267.556V190.006C267.556 187.413 266.147 186.285 264.536 186.285C262.623 186.285 261.415 187.864 261.415 190.119C261.415 192.487 262.724 193.952 264.636 193.952ZM263.026 189.442C263.026 188.54 263.73 187.751 264.636 187.751C265.543 187.751 266.147 188.427 266.147 189.442H263.026ZM274.1 188.427C273.899 187.187 272.993 186.398 271.483 186.398C269.872 186.398 268.764 187.3 268.865 188.653C268.865 189.781 269.469 190.457 270.677 190.683L271.785 190.908C272.389 191.021 272.691 191.359 272.691 191.697C272.691 192.148 272.187 192.599 271.483 192.599C270.778 192.599 270.275 192.261 270.174 191.585L268.664 191.697C268.865 193.05 269.872 193.84 271.483 193.84C273.094 193.84 274.302 192.938 274.302 191.472C274.302 190.457 273.698 189.781 272.489 189.442L271.382 189.217C270.677 189.104 270.476 188.766 270.476 188.315C270.476 187.864 270.979 187.413 271.583 187.413C272.288 187.413 272.691 187.864 272.791 188.315L274.1 188.427ZM278.832 186.511H277.423V185.947C277.423 185.383 277.624 185.045 278.228 185.045C278.43 185.045 278.631 185.158 278.832 185.158L279.134 183.805C278.933 183.692 278.53 183.579 277.926 183.579C276.819 183.579 275.913 184.368 275.913 185.834V186.511H274.906V187.864H275.913V193.952H277.423V187.864H278.832V186.511ZM282.759 193.952C284.672 193.952 285.88 192.374 285.88 190.119C285.88 187.864 284.672 186.285 282.759 186.285C280.846 186.285 279.638 187.864 279.638 190.119C279.537 192.487 280.745 193.952 282.759 193.952ZM282.759 192.599C281.651 192.599 281.148 191.585 281.148 190.232C281.148 188.878 281.651 187.751 282.759 187.751C283.766 187.751 284.37 188.878 284.37 190.232C284.269 191.472 283.766 192.599 282.759 192.599ZM287.189 193.84H288.699V189.555C288.699 188.653 289.303 187.976 290.209 187.976C290.511 187.976 290.813 187.976 290.914 188.089V186.511H290.31C289.504 186.511 288.9 186.962 288.699 187.864H288.598V186.511H287.189V193.84ZM294.639 193.952C296.25 193.952 297.357 192.825 297.458 191.246H295.948C295.847 192.036 295.344 192.487 294.639 192.487C293.632 192.487 293.028 191.585 293.028 190.119C293.028 188.653 293.632 187.751 294.639 187.751C295.344 187.751 295.847 188.315 295.948 188.991H297.458C297.357 187.413 296.25 186.285 294.639 186.285C292.726 186.285 291.518 187.864 291.518 190.119C291.417 192.374 292.625 193.952 294.639 193.952ZM301.586 193.952C303.096 193.952 304.203 193.163 304.405 191.81L302.995 191.585C302.794 192.261 302.29 192.487 301.586 192.487C300.579 192.487 299.874 191.697 299.874 190.457H304.505V189.893C304.505 187.3 303.096 186.172 301.485 186.172C299.572 186.172 298.364 187.751 298.364 190.006C298.364 192.487 299.572 193.952 301.586 193.952ZM299.975 189.442C299.975 188.54 300.68 187.751 301.586 187.751C302.492 187.751 303.096 188.427 303.096 189.442H299.975Z" fill="#0A151B"/>
<path d="M222.754 247.51V244.353C223.157 244.127 223.459 243.789 223.66 243.451C223.861 243.113 223.962 242.662 223.962 242.098V241.985C223.962 240.632 222.955 239.504 221.747 239.504C220.539 239.504 219.532 240.632 219.532 241.985V242.098C219.532 242.549 219.633 243 219.834 243.451C220.036 243.789 220.338 244.127 220.74 244.353V247.51C219.633 247.735 218.626 248.186 217.821 248.976L210.068 242.211C210.169 241.985 210.169 241.76 210.169 241.534C210.169 240.97 210.068 240.407 209.766 239.955C209.464 239.504 209.162 239.166 208.659 238.941C208.155 238.715 207.753 238.715 207.249 238.828C206.746 238.941 206.343 239.166 205.94 239.617C205.538 240.068 205.336 240.519 205.236 241.083C205.135 241.647 205.236 242.211 205.336 242.662C205.538 243.113 205.84 243.564 206.243 243.902C206.645 244.24 207.149 244.353 207.652 244.353C208.055 244.353 208.457 244.24 208.86 244.015L216.512 250.667C215.102 253.035 215.102 256.192 216.612 258.447L214.297 261.04C214.096 260.928 213.894 260.928 213.693 260.928C212.585 260.928 211.679 261.942 211.679 263.183C211.679 264.423 212.585 265.438 213.693 265.438C214.8 265.438 215.706 264.423 215.706 263.183C215.706 262.957 215.706 262.732 215.606 262.506L217.921 259.913C219.935 261.717 222.855 261.83 224.969 260.251C227.184 258.673 228.291 255.741 227.788 252.922C227.385 250.103 225.372 247.961 222.754 247.51ZM221.848 257.996C221.445 257.996 221.042 257.883 220.64 257.77C220.237 257.545 219.834 257.319 219.532 256.981C219.23 256.643 219.029 256.305 218.827 255.854C218.626 255.403 218.626 254.952 218.626 254.501C218.626 254.05 218.727 253.599 218.827 253.148C219.029 252.697 219.23 252.358 219.532 252.02C219.834 251.682 220.237 251.456 220.64 251.231C221.042 251.005 221.445 251.005 221.848 251.005C223.559 251.118 224.969 252.697 224.969 254.613C224.868 256.305 223.559 257.883 221.848 257.996Z" fill="#FF7A59"/>
<path d="M243.897 256.981H245.507V252.809H249.535V256.981H251.145V247.172H249.535V251.344H245.507V247.172H243.897V256.981ZM256.985 253.824C256.985 254.952 256.28 255.516 255.575 255.516C254.871 255.516 254.367 254.952 254.367 253.937V249.652H252.857V254.388C252.857 256.192 253.763 257.207 255.072 257.207C256.079 257.207 256.783 256.643 257.086 255.854H257.186V257.207H258.696V249.652H256.985V253.824ZM260.207 256.981H261.717V255.854H261.817C262.019 256.418 262.623 257.094 263.73 257.094C265.241 257.094 266.449 255.741 266.449 253.261C266.449 250.78 265.241 249.427 263.73 249.427C262.522 249.427 262.119 250.216 261.817 250.78H261.717V247.059H260.207V256.981ZM261.717 253.261C261.717 251.795 262.22 250.893 263.227 250.893C264.234 250.893 264.838 251.907 264.838 253.261C264.838 254.614 264.334 255.628 263.227 255.628C262.321 255.628 261.717 254.726 261.717 253.261ZM272.993 251.569C272.791 250.329 271.885 249.54 270.375 249.54C268.764 249.54 267.657 250.442 267.758 251.795C267.758 252.922 268.362 253.599 269.57 253.824L270.677 254.05C271.281 254.163 271.583 254.501 271.583 254.839C271.583 255.29 271.08 255.741 270.375 255.741C269.67 255.741 269.167 255.403 269.066 254.726L267.556 254.839C267.758 256.192 268.764 256.981 270.375 256.981C271.986 256.981 273.194 256.079 273.194 254.614C273.194 253.599 272.59 252.922 271.382 252.584L270.275 252.358C269.57 252.246 269.368 251.907 269.368 251.456C269.368 251.005 269.872 250.554 270.476 250.554C271.181 250.554 271.583 251.005 271.684 251.456L272.993 251.569ZM274.402 259.8H275.913V255.854H276.013C276.215 256.418 276.819 257.094 277.926 257.094C279.436 257.094 280.644 255.741 280.644 253.261C280.644 250.78 279.436 249.427 277.926 249.427C276.718 249.427 276.315 250.216 276.013 250.78H275.913V249.652H274.402V259.8ZM275.913 253.261C275.913 251.795 276.416 250.893 277.423 250.893C278.43 250.893 279.034 251.907 279.034 253.261C279.034 254.614 278.53 255.628 277.423 255.628C276.517 255.628 275.913 254.726 275.913 253.261ZM284.772 257.094C286.685 257.094 287.893 255.516 287.893 253.261C287.893 251.005 286.685 249.427 284.772 249.427C282.859 249.427 281.651 251.005 281.651 253.261C281.651 255.628 282.859 257.094 284.772 257.094ZM284.873 255.741C283.766 255.741 283.262 254.726 283.262 253.373C283.262 252.02 283.766 250.893 284.873 250.893C285.88 250.893 286.484 252.02 286.484 253.373C286.383 254.614 285.88 255.741 284.873 255.741ZM292.625 249.652H291.316V247.848H289.806V249.652H288.9V251.005H289.806V255.065C289.806 256.418 290.712 257.094 291.82 257.094C292.223 257.094 292.525 256.981 292.726 256.869L292.424 255.516C292.323 255.516 292.122 255.628 291.921 255.628C291.518 255.628 291.216 255.516 291.216 254.726V250.893H292.525V249.652H292.625Z" fill="#0A151B"/>
<path d="M216.109 314.372H204.632V301.519H216.109V314.372Z" fill="#F1511B"/>
<path d="M228.795 314.372H217.316V301.519H228.795V314.372Z" fill="#80CC28"/>
<path d="M216.109 328.579H204.632V315.726H216.109V328.579Z" fill="#00ADEF"/>
<path d="M228.795 328.579H217.316V315.726H228.795V328.579Z" fill="#FBBC09"/>
<path d="M243.897 310.313V320.123H245.407V313.358H245.507L247.924 320.123H249.031L251.447 313.358H251.548V320.123H253.058V310.313H251.145L248.528 317.417H248.427L245.809 310.313H243.897ZM254.77 320.123H256.28V312.794H254.77V320.123ZM255.575 311.666C256.079 311.666 256.481 311.215 256.481 310.764C256.481 310.201 256.079 309.862 255.575 309.862C255.072 309.862 254.669 310.313 254.669 310.764C254.669 311.328 255.072 311.666 255.575 311.666ZM260.811 320.236C262.422 320.236 263.529 319.108 263.63 317.53H262.119C262.019 318.319 261.515 318.77 260.811 318.77C259.804 318.77 259.2 317.868 259.2 316.402C259.2 314.936 259.804 314.034 260.811 314.034C261.515 314.034 262.019 314.598 262.119 315.274H263.63C263.529 313.696 262.422 312.568 260.811 312.568C258.898 312.568 257.69 314.147 257.69 316.402C257.589 318.657 258.797 320.236 260.811 320.236ZM264.838 320.123H266.348V315.838C266.348 314.936 266.952 314.26 267.858 314.26C268.16 314.26 268.462 314.26 268.563 314.372V312.794H267.959C267.153 312.794 266.549 313.245 266.348 314.147H266.247V312.794H264.737V320.123H264.838ZM272.288 320.236C274.201 320.236 275.409 318.657 275.409 316.402C275.409 314.147 274.201 312.568 272.288 312.568C270.375 312.568 269.167 314.147 269.167 316.402C269.167 318.77 270.375 320.236 272.288 320.236ZM272.288 318.883C271.181 318.883 270.677 317.868 270.677 316.515C270.677 315.162 271.181 314.034 272.288 314.034C273.295 314.034 273.899 315.162 273.899 316.515C273.899 317.755 273.295 318.883 272.288 318.883ZM281.953 314.711C281.752 313.47 280.846 312.681 279.336 312.681C277.725 312.681 276.617 313.583 276.718 314.936C276.718 316.064 277.322 316.74 278.53 316.966L279.638 317.191C280.242 317.304 280.544 317.642 280.544 317.981C280.544 318.432 280.04 318.883 279.336 318.883C278.631 318.883 278.128 318.544 278.027 317.868L276.517 317.981C276.718 319.334 277.725 320.123 279.336 320.123C280.947 320.123 282.155 319.221 282.155 317.755C282.155 316.74 281.551 316.064 280.342 315.725L279.235 315.5C278.53 315.387 278.329 315.049 278.329 314.598C278.329 314.147 278.832 313.696 279.436 313.696C280.141 313.696 280.544 314.147 280.644 314.598L281.953 314.711ZM286.283 320.236C288.195 320.236 289.404 318.657 289.404 316.402C289.404 314.147 288.195 312.568 286.283 312.568C284.37 312.568 283.161 314.147 283.161 316.402C283.061 318.77 284.37 320.236 286.283 320.236ZM286.283 318.883C285.175 318.883 284.672 317.868 284.672 316.515C284.672 315.162 285.175 314.034 286.283 314.034C287.289 314.034 287.893 315.162 287.893 316.515C287.893 317.755 287.289 318.883 286.283 318.883ZM294.035 312.794H292.625V312.23C292.625 311.666 292.827 311.328 293.431 311.328C293.632 311.328 293.833 311.441 294.035 311.441L294.337 310.088C294.136 309.975 293.733 309.862 293.129 309.862C292.021 309.862 291.115 310.652 291.115 312.117V312.794H290.108V314.147H291.115V320.236H292.625V314.147H294.035V312.794ZM298.565 312.794H297.257V310.99H295.746V312.794H294.84V314.147H295.746V318.206C295.746 319.559 296.652 320.236 297.76 320.236C298.163 320.236 298.465 320.123 298.666 320.01L298.364 318.657C298.263 318.657 298.062 318.77 297.861 318.77C297.458 318.77 297.156 318.657 297.156 317.868V314.034H298.465V312.794H298.565Z" fill="#0A151B"/>
<path d="M202.618 372.327H208.155V371.425H202.618V372.327ZM208.86 371.425V372.327H216.713C216.713 372.327 215.908 371.425 214.901 371.425H208.86ZM218.223 371.425V372.327H222.955L222.653 371.425H218.223ZM226.378 371.425L226.076 372.327H230.808V371.425H226.378ZM202.618 374.019H208.155V373.117H202.618V374.019ZM208.86 373.117V374.019H217.619C217.619 374.019 217.519 373.342 217.317 373.117H208.86ZM218.223 373.117V374.019H223.459L223.157 373.117H218.223ZM225.774 373.117L225.472 374.019H230.808V373.117H225.774ZM204.229 375.71H206.645V374.808H204.229V375.71ZM210.471 375.71H212.887V374.808H210.471V375.71ZM215.102 374.808V375.71H217.519C217.519 375.71 217.619 375.259 217.619 374.808H215.102ZM219.834 374.808V375.71H224.063L223.761 374.808H219.834ZM225.271 374.808L224.969 375.71H229.197V374.808H225.271ZM204.229 377.401H206.645V376.499H204.229V377.401ZM210.471 376.499V377.401H216.512C216.512 377.401 217.015 376.95 217.217 376.499H210.471ZM219.834 376.499V377.401H222.25V376.95L222.351 377.401H226.68L226.882 376.95V377.401H229.298V376.499H224.767L224.566 377.176L224.365 376.499H219.834ZM204.229 379.093H206.645V378.19H204.229V379.093ZM210.471 378.19V379.093H217.217C217.015 378.641 216.512 378.19 216.512 378.19H210.471ZM219.834 379.093H222.25V378.19H219.834V379.093ZM222.653 378.19L222.955 379.093H226.177L226.479 378.19H222.653ZM226.882 379.093H229.298V378.19H226.882V379.093ZM204.229 380.784H206.645V379.882H204.229V380.784ZM210.471 380.784H212.887V379.882H210.471V380.784ZM215.102 379.882V380.784H217.72C217.72 380.333 217.619 379.882 217.619 379.882H215.102ZM219.834 380.784H222.25V379.882H219.834V380.784ZM223.157 379.882L223.459 380.784H225.674L225.976 379.882H223.157ZM226.882 380.784H229.298V379.882H226.882V380.784ZM202.618 382.362H208.155V381.46H202.618V382.362ZM208.86 381.46V382.362H217.317C217.519 382.137 217.619 381.46 217.619 381.46H208.86ZM218.324 382.362H222.25V381.46H218.324V382.362ZM223.66 381.46L223.962 382.362H225.07L225.372 381.46H223.66ZM226.882 382.362H230.808V381.46H226.882V382.362ZM202.618 384.054H208.155V383.152H202.618V384.054ZM208.86 383.152V384.054H214.8C215.908 384.054 216.612 383.152 216.612 383.152H208.86ZM218.324 384.054H222.25V383.152H218.324V384.054ZM224.264 383.152L224.566 384.054L224.868 383.152H224.264ZM226.882 384.054H230.808V383.152H226.882V384.054Z" fill="#1F70C1"/>
<path d="M245.507 373.455H243.897V383.265H245.507V373.455ZM247.219 383.265H250.743C252.756 383.265 253.763 382.137 253.763 380.559C253.763 379.093 252.857 378.191 251.85 378.191V378.078C252.756 377.852 253.36 377.176 253.36 375.936C253.36 374.47 252.454 373.342 250.541 373.342H247.219V383.265ZM248.83 381.799V378.867H250.541C251.548 378.867 252.152 379.544 252.152 380.446C252.152 381.235 251.649 381.799 250.541 381.799H248.83ZM248.83 377.627V374.921H250.441C251.347 374.921 251.85 375.485 251.85 376.274C251.85 377.176 251.246 377.627 250.441 377.627H248.83ZM255.173 373.455V383.265H256.683V376.499H256.784L259.2 383.265H260.307L262.724 376.499H262.824V383.265H264.334V373.455H262.422L259.804 380.559H259.703L257.086 373.455H255.173Z" fill="#0A151B"/>
<path d="M225.774 431.636C225.774 431.523 225.674 431.41 225.573 431.41C225.472 431.41 223.358 431.185 223.358 431.185C223.358 431.185 221.848 429.606 221.747 429.381C221.546 429.155 221.244 429.268 221.143 429.268C221.143 429.268 220.841 429.381 220.338 429.606C219.834 428.027 219.029 426.562 217.418 426.562H217.317C216.915 425.885 216.31 425.66 215.908 425.66C212.384 425.66 210.672 430.621 210.169 433.101C208.76 433.552 207.853 433.891 207.652 434.003C206.847 434.229 206.847 434.342 206.746 435.131C206.645 435.695 204.632 453.171 204.632 453.171L220.237 456.441L228.694 454.412C228.694 454.299 225.774 431.748 225.774 431.636ZM219.432 429.832L218.123 430.283V429.944C218.123 428.93 218.022 428.14 217.821 427.576C218.525 427.689 219.029 428.704 219.432 429.832ZM216.814 427.802C217.015 428.366 217.217 429.268 217.217 430.508V430.734C216.31 431.072 215.404 431.41 214.498 431.636C214.901 429.268 215.908 428.253 216.814 427.802ZM215.706 426.674C215.908 426.674 216.008 426.787 216.21 426.9C215.102 427.464 213.894 429.042 213.391 431.974L211.276 432.763C211.78 430.395 213.189 426.674 215.706 426.674Z" fill="#95BF46"/>
<path d="M225.472 431.41C225.372 431.41 223.257 431.184 223.257 431.184C223.257 431.184 221.747 429.606 221.646 429.38C221.546 429.268 221.546 429.268 221.445 429.268L220.237 456.328L228.694 454.299C228.694 454.299 225.674 431.748 225.674 431.635C225.774 431.41 225.573 431.41 225.472 431.41Z" fill="#5E8E3E"/>
<path d="M217.418 436.597L216.411 440.092C216.411 440.092 215.505 439.528 214.398 439.528C212.787 439.528 212.686 440.656 212.686 440.994C212.686 442.572 216.411 443.249 216.411 446.97C216.411 449.901 214.8 451.818 212.485 451.818C209.766 451.818 208.457 449.901 208.457 449.901L209.162 447.195C209.162 447.195 210.572 448.548 211.78 448.548C212.585 448.548 212.887 447.872 212.887 447.308C212.887 445.279 209.867 445.166 209.867 441.783C209.867 438.964 211.679 436.146 215.404 436.146C216.713 436.146 217.418 436.597 217.418 436.597Z" fill="white"/>
<path d="M248.629 439.303H250.139C250.139 437.611 248.83 436.484 247.018 436.484C245.205 436.484 243.796 437.611 243.796 439.415C243.796 440.881 244.702 441.67 246.112 442.009L247.118 442.347C248.024 442.572 248.729 442.911 248.729 443.7C248.729 444.489 248.024 445.053 247.018 445.053C246.011 445.053 245.205 444.602 245.205 443.474H243.595C243.695 445.391 245.004 446.519 247.018 446.519C249.132 446.519 250.34 445.391 250.34 443.587C250.34 441.896 249.031 441.107 247.722 440.768L246.917 440.543C246.212 440.317 245.407 439.979 245.407 439.19C245.407 438.401 246.011 437.95 247.018 437.95C247.924 437.95 248.528 438.401 248.629 439.303ZM253.26 442.121C253.26 441.107 253.864 440.43 254.669 440.43C255.475 440.43 255.978 440.994 255.978 442.009V446.406H257.488V441.67C257.488 439.866 256.582 438.852 255.173 438.852C254.166 438.852 253.562 439.415 253.26 440.205H253.159V436.484H251.649V446.293H253.159V442.121H253.26ZM261.918 446.519C263.831 446.519 265.039 444.94 265.039 442.685C265.039 440.43 263.831 438.852 261.918 438.852C260.005 438.852 258.797 440.43 258.797 442.685C258.797 445.053 260.005 446.519 261.918 446.519ZM261.918 445.166C260.811 445.166 260.307 444.151 260.307 442.798C260.307 441.445 260.811 440.317 261.918 440.317C262.925 440.317 263.529 441.445 263.529 442.798C263.529 444.038 263.026 445.166 261.918 445.166ZM266.449 449.225H267.959V445.279H268.06C268.261 445.842 268.865 446.519 269.973 446.519C271.483 446.519 272.691 445.166 272.691 442.685C272.691 440.205 271.483 438.852 269.973 438.852C268.764 438.852 268.362 439.641 268.06 440.205H267.959V439.077H266.449V449.225ZM267.959 442.685C267.959 441.219 268.462 440.317 269.469 440.317C270.476 440.317 271.08 441.332 271.08 442.685C271.08 444.038 270.577 445.053 269.469 445.053C268.462 445.053 267.959 444.151 267.959 442.685ZM274 446.406H275.51V439.077H274V446.406ZM274.704 437.95C275.208 437.95 275.611 437.499 275.611 437.048C275.611 436.484 275.208 436.146 274.704 436.146C274.201 436.146 273.798 436.597 273.798 437.048C273.899 437.611 274.302 437.95 274.704 437.95ZM280.443 439.077H279.134V438.513C279.134 437.95 279.336 437.611 279.94 437.611C280.141 437.611 280.342 437.724 280.544 437.724L280.846 436.371C280.645 436.258 280.242 436.146 279.638 436.146C278.53 436.146 277.624 436.935 277.624 438.401V439.077H276.617V440.43H277.624V446.519H279.134V440.43H280.544V439.077H280.443ZM282.658 449.225C283.866 449.225 284.571 448.548 284.974 447.308L287.591 439.077H285.98L284.47 444.602H284.37L282.859 439.077H281.148L283.564 446.632L283.464 447.083C283.161 447.872 282.759 447.985 282.054 447.759L281.651 449.112C281.853 449.112 282.255 449.225 282.658 449.225Z" fill="#0A151B"/>
<path d="M225.472 512.818C215.706 518.005 209.666 513.72 205.739 511.014C205.538 510.901 205.135 511.014 205.437 511.465C206.746 513.269 210.974 517.441 216.512 517.441C222.049 517.441 225.372 514.058 225.774 513.494C226.177 512.931 225.875 512.592 225.472 512.818ZM228.191 511.127C227.889 510.788 226.58 510.676 225.774 510.788C224.969 510.901 223.66 511.465 223.761 511.803C223.861 511.916 223.962 511.916 224.465 511.803C225.07 511.69 226.68 511.465 226.982 512.029C227.285 512.48 226.479 514.847 226.278 515.298C226.076 515.637 226.378 515.75 226.58 515.524C226.882 515.298 227.385 514.622 227.687 513.72C228.191 512.705 228.392 511.352 228.191 511.127Z" fill="#FF9900"/>
<path d="M218.827 502.106H218.727V501.317C216.512 501.317 214.095 501.768 214.095 504.812C214.095 506.391 214.8 507.406 216.008 507.406C216.914 507.406 217.72 506.842 218.223 505.827C218.827 504.587 218.827 503.459 218.827 502.106ZM222.049 510.676C221.848 510.901 221.546 510.901 221.344 510.788C220.338 509.774 220.136 509.323 219.532 508.421C217.821 510.337 216.612 511.014 214.398 511.014C211.78 511.014 209.666 509.21 209.666 505.489C209.666 502.67 211.075 500.753 212.988 499.739C214.7 498.949 217.116 498.724 218.928 498.498V498.047C218.928 497.258 219.029 496.243 218.525 495.454C218.123 494.777 217.418 494.552 216.814 494.552C215.606 494.552 214.599 495.228 214.297 496.694C214.196 497.032 213.995 497.371 213.793 497.371L210.773 497.032C210.471 496.92 210.27 496.694 210.27 496.243C210.974 492.071 214.297 490.831 217.317 490.831C218.827 490.831 220.841 491.282 222.049 492.522C223.559 494.101 223.459 496.243 223.459 498.611V504.136C223.459 505.827 224.063 506.504 224.667 507.406C224.868 507.744 224.868 508.082 224.667 508.308C223.761 508.984 222.653 510.112 222.049 510.676Z" fill="black"/>
<path d="M245.004 509.548L245.709 507.067H249.031L249.736 509.548H251.447L248.326 499.738H246.313L243.192 509.548H245.004ZM246.212 505.714L247.42 501.768H247.521L248.729 505.714H246.212ZM252.555 509.548H254.065V505.038C254.065 504.136 254.569 503.459 255.273 503.459C255.978 503.459 256.381 503.91 256.381 504.699V509.435H257.992V504.812C257.992 504.023 258.394 503.459 259.2 503.459C259.804 503.459 260.307 503.91 260.307 504.812V509.548H261.817V504.587C261.817 502.895 261.012 502.106 259.804 502.106C258.797 502.106 258.092 502.67 257.79 503.459H257.69C257.388 502.67 256.783 502.106 255.877 502.106C254.971 502.106 254.367 502.67 254.065 503.459H253.964V502.219H252.454V509.548H252.555ZM265.341 509.661C266.348 509.661 266.952 509.097 267.254 508.533H267.355V509.548H268.865V504.587C268.865 502.67 267.455 502.106 266.147 502.106C264.737 502.106 263.73 502.783 263.328 504.136L264.737 504.361C264.938 503.91 265.341 503.459 266.046 503.459C266.751 503.459 267.153 503.91 267.153 504.587C267.153 505.038 266.65 505.15 265.543 505.263C264.234 505.376 263.026 505.827 263.026 507.518C263.126 508.984 264.032 509.661 265.341 509.661ZM265.744 508.42C265.14 508.42 264.636 508.082 264.636 507.405C264.636 506.729 265.14 506.503 265.845 506.391C266.247 506.278 267.053 506.165 267.254 506.052V506.954C267.254 507.744 266.65 508.42 265.744 508.42ZM270.274 509.548H275.711V508.082H272.389V507.969L275.61 503.234V502.219H270.375V503.685H273.698V503.797L270.274 508.533V509.548ZM279.839 509.661C281.752 509.661 282.96 508.082 282.96 505.827C282.96 503.572 281.752 501.993 279.839 501.993C277.926 501.993 276.718 503.572 276.718 505.827C276.617 508.195 277.825 509.661 279.839 509.661ZM279.839 508.307C278.732 508.307 278.228 507.293 278.228 505.94C278.228 504.587 278.732 503.459 279.839 503.459C280.846 503.459 281.45 504.587 281.45 505.94C281.349 507.18 280.846 508.307 279.839 508.307ZM285.88 505.263C285.88 504.248 286.484 503.572 287.289 503.572C288.095 503.572 288.598 504.136 288.598 505.15V509.548H290.108V504.812C290.108 503.008 289.202 501.993 287.893 501.993C286.887 501.993 286.182 502.557 285.88 503.346H285.779V502.219H284.269V509.548H285.779V505.263H285.88Z" fill="#0A151B"/>
<path d="M202.819 565.586C202.819 565.248 203.121 565.023 203.625 565.023C204.33 565.023 205.135 565.248 205.84 565.699V563.331C205.135 562.993 204.33 562.88 203.625 562.88C201.813 562.88 200.604 563.895 200.604 565.699C200.604 568.518 204.028 568.067 204.028 569.194C204.028 569.645 203.625 569.758 203.121 569.758C202.417 569.758 201.41 569.42 200.705 568.969V571.337C201.511 571.788 202.417 571.9 203.121 571.9C204.934 571.9 206.243 570.886 206.243 569.082C206.243 566.15 202.819 566.714 202.819 565.586ZM208.961 560.851L206.746 561.414V569.42C206.746 570.886 207.753 572.013 209.062 572.013C209.766 572.013 210.37 571.9 210.672 571.675V569.645C210.37 569.758 208.961 570.209 208.961 568.743V565.135H210.672V563.106H208.961V560.851ZM213.391 563.782L213.29 562.993H211.377V571.788H213.592V565.812C214.095 565.023 215.002 565.135 215.304 565.248V562.993C215.002 562.993 213.894 562.767 213.391 563.782ZM215.807 563.106H218.022V571.9H215.807V563.106ZM215.807 562.316L218.022 561.753V559.723L215.807 560.287V562.316ZM222.754 562.88C221.848 562.88 221.344 563.331 221.042 563.67L220.942 562.993H218.928V574.719L221.143 574.156V571.337C221.445 571.562 221.948 572.013 222.754 572.013C224.365 572.013 225.774 570.547 225.774 567.39C225.774 564.459 224.264 562.88 222.754 562.88ZM222.15 569.758C221.646 569.758 221.344 569.533 221.143 569.307V565.586C221.344 565.248 221.747 565.135 222.251 565.135C223.056 565.135 223.66 566.15 223.66 567.503C223.559 568.743 222.955 569.758 222.15 569.758ZM232.822 567.503C232.822 564.91 231.714 562.88 229.6 562.88C227.486 562.88 226.177 564.91 226.177 567.503C226.177 570.547 227.687 572.013 229.902 572.013C231.01 572.013 231.815 571.788 232.419 571.337V569.307C231.815 569.645 231.11 569.871 230.204 569.871C229.298 569.871 228.593 569.533 228.493 568.292H232.822V567.503ZM228.392 566.488C228.392 565.361 228.996 564.91 229.6 564.91C230.103 564.91 230.708 565.361 230.708 566.488H228.392Z" fill="#6772E5"/>
<path d="M248.629 565.586H250.139C250.139 563.895 248.83 562.767 247.018 562.767C245.205 562.767 243.796 563.895 243.796 565.699C243.796 567.165 244.702 567.954 246.112 568.292L247.118 568.631C248.024 568.856 248.729 569.194 248.729 569.984C248.729 570.773 248.024 571.337 247.018 571.337C246.011 571.337 245.205 570.886 245.205 569.758H243.595C243.695 571.675 245.004 572.802 247.018 572.802C249.132 572.802 250.34 571.675 250.34 569.871C250.34 568.18 249.031 567.39 247.722 567.052L246.917 566.827C246.212 566.601 245.407 566.263 245.407 565.474C245.407 564.684 246.011 564.233 247.018 564.233C247.924 564.233 248.528 564.684 248.629 565.586ZM254.971 565.361H253.662V563.557H252.152V565.361H251.246V566.714H252.152V570.773C252.152 572.126 253.058 572.802 254.166 572.802C254.569 572.802 254.871 572.69 255.072 572.577L254.77 571.224C254.669 571.224 254.468 571.337 254.267 571.337C253.864 571.337 253.562 571.224 253.562 570.435V566.601H254.971V565.361ZM256.28 572.69H257.79V568.405C257.79 567.503 258.394 566.827 259.301 566.827C259.603 566.827 259.905 566.827 260.005 566.939V565.361H259.401C258.596 565.361 257.992 565.812 257.79 566.714H257.69V565.361H256.179V572.69H256.28ZM261.012 572.69H262.522V565.361H261.012V572.69ZM261.817 564.233C262.321 564.233 262.724 563.782 262.724 563.331C262.724 562.767 262.321 562.429 261.817 562.429C261.314 562.429 260.911 562.88 260.911 563.331C260.911 563.895 261.314 564.233 261.817 564.233ZM264.234 575.509H265.744V571.562H265.845C266.046 572.126 266.65 572.802 267.758 572.802C269.268 572.802 270.476 571.449 270.476 568.969C270.476 566.488 269.268 565.135 267.758 565.135C266.549 565.135 266.147 565.925 265.845 566.488H265.744V565.361H264.234V575.509ZM265.744 568.969C265.744 567.503 266.247 566.601 267.254 566.601C268.261 566.601 268.865 567.616 268.865 568.969C268.865 570.322 268.362 571.337 267.254 571.337C266.247 571.337 265.744 570.435 265.744 568.969ZM274.704 572.802C276.215 572.802 277.322 572.013 277.523 570.66L276.114 570.435C275.913 571.111 275.409 571.337 274.704 571.337C273.698 571.337 272.993 570.547 272.993 569.307H277.624V568.743C277.624 566.15 276.215 565.023 274.604 565.023C272.691 565.023 271.483 566.601 271.483 568.856C271.483 571.337 272.691 572.802 274.704 572.802ZM272.993 568.292C272.993 567.39 273.698 566.601 274.604 566.601C275.51 566.601 276.114 567.278 276.114 568.292H272.993Z" fill="#0A151B"/>
<path d="M501.055 598.161V1838.44H178.881V598.161H501.055Z" fill="url(#paint9_linear_2_292)"/>
<path d="M501.515 155.719V156.846H179.342V155.719H501.515Z" fill="#0A151B" fill-opacity="0.12"/>
<path d="M202.467 135.735V125.993H204.169C204.632 125.993 205.009 126.078 205.306 126.252C205.603 126.427 205.82 126.669 205.961 126.98C206.102 127.29 206.177 127.65 206.177 128.056C206.177 128.462 206.102 128.823 205.961 129.139C205.82 129.449 205.603 129.697 205.311 129.877C205.014 130.058 204.637 130.148 204.179 130.148H201.878V131.856H204.43C205.221 131.856 205.885 131.693 206.424 131.366C206.967 131.039 207.375 130.588 207.652 130.018C207.929 129.443 208.065 128.789 208.065 128.056C208.065 127.329 207.929 126.675 207.652 126.1C207.38 125.531 206.972 125.074 206.439 124.747C205.9 124.42 205.241 124.257 204.45 124.257H200.609V135.735H202.467ZM212.862 135.724C213.159 135.594 213.406 135.43 213.607 135.222C213.804 135.013 213.96 134.793 214.07 134.551H214.131V135.735H215.872V129.973C215.872 129.398 215.777 128.925 215.591 128.541C215.409 128.163 215.163 127.859 214.861 127.639C214.554 127.414 214.221 127.256 213.854 127.16C213.486 127.058 213.119 127.013 212.746 127.013C212.208 127.013 211.719 127.104 211.276 127.278C210.833 127.459 210.456 127.724 210.149 128.073C209.842 128.428 209.62 128.868 209.489 129.387L211.181 129.657C211.271 129.364 211.443 129.105 211.704 128.891C211.961 128.676 212.313 128.564 212.756 128.564C213.179 128.564 213.501 128.682 213.723 128.913C213.944 129.144 214.06 129.471 214.06 129.894V129.928C214.06 130.12 213.995 130.266 213.864 130.356C213.738 130.447 213.532 130.514 213.255 130.559C212.973 130.599 212.605 130.65 212.157 130.7C211.785 130.745 211.422 130.819 211.075 130.915C210.723 131.016 210.411 131.163 210.134 131.349C209.857 131.54 209.64 131.794 209.479 132.115C209.318 132.431 209.238 132.831 209.238 133.316C209.238 133.886 209.353 134.359 209.575 134.743C209.802 135.126 210.109 135.419 210.496 135.616C210.884 135.808 211.322 135.91 211.81 135.91C212.213 135.91 212.56 135.848 212.862 135.724ZM211.352 134.134C211.105 133.942 210.984 133.66 210.984 133.282C210.984 133.023 211.045 132.809 211.171 132.645C211.292 132.476 211.463 132.347 211.674 132.256C211.891 132.161 212.132 132.093 212.404 132.053C212.52 132.031 212.666 132.008 212.827 131.986C212.993 131.958 213.154 131.929 213.325 131.896C213.491 131.862 213.642 131.822 213.773 131.777C213.909 131.732 214.005 131.681 214.065 131.631V132.645C214.065 132.961 213.99 133.26 213.844 133.525C213.703 133.795 213.496 134.01 213.23 134.173C212.963 134.337 212.646 134.416 212.283 134.416C211.906 134.416 211.594 134.32 211.352 134.134ZM219.512 135.735V130.672C219.512 130.306 219.582 129.984 219.734 129.703C219.885 129.421 220.091 129.201 220.353 129.043C220.614 128.885 220.911 128.806 221.244 128.806C221.395 128.806 221.556 128.817 221.722 128.84C221.883 128.868 222.004 128.896 222.084 128.925V127.058C221.999 127.036 221.893 127.025 221.772 127.013C221.646 127.008 221.531 127.002 221.43 127.002C220.992 127.002 220.599 127.137 220.257 127.408C219.915 127.679 219.673 128.062 219.537 128.558H219.457V127.126H217.7V135.735H219.512ZM222.709 127.126V128.693H227.128V127.126H222.709ZM223.801 133.48C223.796 134.021 223.902 134.466 224.113 134.827C224.324 135.188 224.611 135.447 224.974 135.622C225.341 135.791 225.749 135.87 226.202 135.853C226.459 135.848 226.675 135.819 226.857 135.774C227.033 135.729 227.174 135.69 227.269 135.65L226.962 134.066C226.912 134.077 226.841 134.094 226.746 134.117C226.65 134.134 226.544 134.145 226.434 134.145C226.283 134.145 226.147 134.117 226.021 134.066C225.9 134.01 225.799 133.914 225.724 133.767C225.648 133.626 225.613 133.418 225.613 133.147V125.063H223.801V133.48ZM230.667 129.629C230.803 129.336 230.994 129.116 231.241 128.958C231.488 128.806 231.765 128.727 232.082 128.727C232.55 128.727 232.917 128.891 233.184 129.218C233.446 129.539 233.582 129.99 233.582 130.565V135.735H235.394V130.255C235.394 129.567 235.288 128.981 235.072 128.496C234.851 128.017 234.543 127.65 234.151 127.391C233.753 127.137 233.29 127.013 232.761 127.013C232.188 127.013 231.704 127.154 231.317 127.436C230.929 127.724 230.642 128.107 230.466 128.586H230.375V127.126H228.644V135.735H230.456V130.689C230.456 130.278 230.526 129.922 230.667 129.629ZM242.235 135.599C242.698 135.397 243.081 135.103 243.378 134.737C243.675 134.365 243.881 133.925 243.987 133.423L242.296 133.215C242.215 133.457 242.094 133.66 241.938 133.824C241.782 133.987 241.596 134.111 241.385 134.196C241.168 134.28 240.932 134.32 240.67 134.32C240.272 134.32 239.93 134.23 239.638 134.038C239.341 133.852 239.114 133.576 238.953 133.22C238.787 132.865 238.707 132.437 238.707 131.935V130.74C238.712 130.356 238.787 130.001 238.943 129.68C239.099 129.353 239.316 129.094 239.598 128.891C239.879 128.693 240.202 128.592 240.574 128.592C240.921 128.592 241.223 128.682 241.485 128.857C241.747 129.032 241.953 129.274 242.099 129.578C242.245 129.883 242.321 130.227 242.326 130.616H237.76V131.986H244.063V131.36C244.063 130.61 243.967 129.956 243.781 129.409C243.594 128.863 243.338 128.411 243.011 128.056C242.688 127.701 242.316 127.436 241.893 127.267C241.47 127.098 241.022 127.013 240.549 127.013C239.814 127.013 239.175 127.199 238.631 127.577C238.087 127.949 237.664 128.474 237.362 129.144C237.06 129.815 236.909 130.593 236.909 131.478C236.909 132.38 237.06 133.164 237.357 133.824C237.659 134.489 238.087 135.002 238.646 135.363C239.205 135.724 239.874 135.904 240.645 135.904C241.239 135.904 241.772 135.802 242.235 135.599ZM247.405 135.735V130.672C247.405 130.306 247.481 129.984 247.632 129.703C247.783 129.421 247.989 129.201 248.251 129.043C248.513 128.885 248.805 128.806 249.137 128.806C249.293 128.806 249.449 128.817 249.615 128.84C249.781 128.868 249.902 128.896 249.978 128.925V127.058C249.897 127.036 249.791 127.025 249.665 127.013C249.54 127.008 249.429 127.002 249.328 127.002C248.885 127.002 248.498 127.137 248.155 127.408C247.813 127.679 247.571 128.062 247.43 128.558H247.35V127.126H245.593V135.735H247.405ZM256.3 127.656C255.777 127.228 255.067 127.013 254.166 127.013C253.557 127.013 253.013 127.12 252.545 127.335C252.077 127.549 251.709 127.853 251.447 128.242C251.186 128.631 251.055 129.094 251.06 129.624C251.055 130.255 251.231 130.774 251.583 131.18C251.941 131.591 252.484 131.879 253.224 132.053L254.533 132.358C254.886 132.448 255.147 132.572 255.319 132.73C255.485 132.893 255.57 133.096 255.57 133.339C255.57 133.632 255.439 133.88 255.178 134.077C254.916 134.275 254.569 134.37 254.141 134.37C253.723 134.37 253.381 134.275 253.124 134.077C252.862 133.88 252.691 133.581 252.61 133.198L250.843 133.384C250.954 134.179 251.296 134.793 251.87 135.239C252.444 135.684 253.204 135.904 254.141 135.904C254.785 135.904 255.349 135.786 255.847 135.554C256.34 135.323 256.723 135.002 257.005 134.59C257.282 134.173 257.423 133.7 257.428 133.158C257.423 132.538 257.242 132.042 256.889 131.659C256.532 131.281 255.993 130.999 255.263 130.824L253.954 130.509C253.562 130.407 253.285 130.283 253.114 130.125C252.948 129.967 252.862 129.765 252.867 129.511C252.862 129.223 252.988 128.981 253.245 128.8C253.501 128.62 253.818 128.524 254.191 128.524C254.473 128.524 254.709 128.575 254.906 128.676C255.097 128.778 255.253 128.913 255.369 129.077C255.48 129.24 255.565 129.415 255.611 129.601L257.262 129.398C257.136 128.665 256.819 128.085 256.3 127.656ZM267.536 127.656C267.018 127.228 266.308 127.013 265.407 127.013C264.793 127.013 264.249 127.12 263.781 127.335C263.313 127.549 262.945 127.853 262.683 128.242C262.422 128.631 262.291 129.094 262.296 129.624C262.291 130.255 262.467 130.774 262.824 131.18C263.177 131.591 263.72 131.879 264.46 132.053L265.769 132.358C266.121 132.448 266.383 132.572 266.554 132.73C266.721 132.893 266.806 133.096 266.806 133.339C266.806 133.632 266.675 133.88 266.413 134.077C266.152 134.275 265.804 134.37 265.376 134.37C264.959 134.37 264.621 134.275 264.36 134.077C264.098 133.88 263.927 133.581 263.846 133.198L262.079 133.384C262.19 134.179 262.532 134.793 263.106 135.239C263.68 135.684 264.44 135.904 265.381 135.904C266.021 135.904 266.59 135.786 267.083 135.554C267.576 135.323 267.964 135.002 268.241 134.59C268.518 134.173 268.659 133.7 268.664 133.158C268.659 132.538 268.482 132.042 268.125 131.659C267.768 131.281 267.229 130.999 266.499 130.824L265.19 130.509C264.798 130.407 264.521 130.283 264.35 130.125C264.183 129.967 264.098 129.765 264.103 129.511C264.098 129.223 264.224 128.981 264.48 128.8C264.737 128.62 265.054 128.524 265.432 128.524C265.709 128.524 265.945 128.575 266.142 128.676C266.333 128.778 266.489 128.913 266.605 129.077C266.721 129.24 266.801 129.415 266.846 129.601L268.498 129.398C268.377 128.665 268.055 128.085 267.536 127.656ZM274.815 133.203C274.654 133.491 274.448 133.711 274.201 133.857C273.949 134.004 273.693 134.077 273.426 134.077C272.988 134.077 272.64 133.914 272.374 133.592C272.107 133.271 271.971 132.837 271.971 132.29V127.126H270.159V132.606C270.159 133.294 270.269 133.88 270.486 134.365C270.702 134.85 271.004 135.216 271.387 135.47C271.775 135.724 272.218 135.848 272.721 135.848C273.3 135.848 273.788 135.695 274.181 135.385C274.579 135.081 274.86 134.686 275.037 134.207H275.117V135.735H276.874V127.126H275.062V132.115C275.062 132.55 274.981 132.916 274.815 133.203ZM283.932 138.751C284.475 138.514 284.903 138.159 285.215 137.68C285.527 137.195 285.688 136.597 285.688 135.876V127.126H283.901V128.547H283.801C283.71 128.338 283.579 128.118 283.403 127.876C283.232 127.639 282.995 127.436 282.703 127.267C282.411 127.098 282.044 127.013 281.591 127.013C281.002 127.013 280.463 127.182 279.985 127.521C279.507 127.859 279.124 128.355 278.842 129.003C278.56 129.657 278.419 130.458 278.419 131.399C278.419 132.341 278.56 133.119 278.842 133.745C279.124 134.365 279.502 134.833 279.985 135.143C280.463 135.453 280.997 135.611 281.586 135.611C282.029 135.611 282.391 135.537 282.683 135.385C282.975 135.239 283.212 135.053 283.393 134.833C283.569 134.613 283.705 134.399 283.801 134.19H283.891V135.819C283.891 136.434 283.72 136.885 283.383 137.161C283.046 137.437 282.623 137.573 282.109 137.573C281.742 137.573 281.445 137.516 281.203 137.409C280.967 137.296 280.775 137.161 280.634 136.998C280.493 136.834 280.388 136.676 280.317 136.524L278.686 136.969C278.792 137.358 278.993 137.714 279.275 138.041C279.557 138.362 279.935 138.621 280.403 138.819C280.866 139.01 281.425 139.112 282.079 139.112C282.769 139.112 283.388 138.993 283.932 138.751ZM281.087 133.694C280.816 133.474 280.609 133.164 280.473 132.769C280.332 132.38 280.267 131.918 280.267 131.388C280.267 130.87 280.332 130.407 280.473 129.996C280.609 129.59 280.811 129.268 281.082 129.032C281.354 128.795 281.686 128.676 282.094 128.676C282.482 128.676 282.814 128.789 283.081 129.015C283.348 129.24 283.554 129.562 283.69 129.967C283.831 130.373 283.901 130.847 283.901 131.388C283.901 131.941 283.831 132.409 283.69 132.803C283.549 133.198 283.343 133.497 283.076 133.705C282.804 133.914 282.477 134.021 282.094 134.021C281.697 134.021 281.359 133.908 281.087 133.694ZM292.746 138.751C293.29 138.514 293.718 138.159 294.03 137.68C294.347 137.195 294.503 136.597 294.503 135.876V127.126H292.716V128.547H292.615C292.525 128.338 292.394 128.118 292.218 127.876C292.046 127.639 291.815 127.436 291.523 127.267C291.231 127.098 290.858 127.013 290.405 127.013C289.816 127.013 289.283 127.182 288.799 127.521C288.321 127.859 287.939 128.355 287.657 129.003C287.375 129.657 287.234 130.458 287.234 131.399C287.234 132.341 287.375 133.119 287.657 133.745C287.939 134.365 288.321 134.833 288.799 135.143C289.278 135.453 289.811 135.611 290.4 135.611C290.843 135.611 291.211 135.537 291.503 135.385C291.795 135.239 292.026 135.053 292.207 134.833C292.384 134.613 292.52 134.399 292.615 134.19H292.706V135.819C292.706 136.434 292.535 136.885 292.197 137.161C291.86 137.437 291.437 137.573 290.924 137.573C290.556 137.573 290.259 137.516 290.018 137.409C289.781 137.296 289.59 137.161 289.449 136.998C289.313 136.834 289.202 136.676 289.132 136.524L287.501 136.969C287.611 137.358 287.808 137.714 288.09 138.041C288.372 138.362 288.749 138.621 289.217 138.819C289.68 139.01 290.244 139.112 290.894 139.112C291.583 139.112 292.202 138.993 292.746 138.751ZM289.902 133.694C289.63 133.474 289.429 133.164 289.288 132.769C289.152 132.38 289.081 131.918 289.081 131.388C289.081 130.87 289.147 130.407 289.288 129.996C289.424 129.59 289.625 129.268 289.897 129.032C290.169 128.795 290.506 128.676 290.909 128.676C291.296 128.676 291.629 128.789 291.895 129.015C292.162 129.24 292.369 129.562 292.504 129.967C292.645 130.373 292.716 130.847 292.716 131.388C292.716 131.941 292.645 132.409 292.504 132.803C292.364 133.198 292.157 133.497 291.89 133.705C291.618 133.914 291.291 134.021 290.909 134.021C290.511 134.021 290.174 133.908 289.902 133.694ZM301.359 135.599C301.822 135.397 302.205 135.103 302.502 134.737C302.804 134.365 303.005 133.925 303.111 133.423L301.42 133.215C301.339 133.457 301.223 133.66 301.062 133.824C300.906 133.987 300.72 134.111 300.508 134.196C300.297 134.28 300.055 134.32 299.794 134.32C299.401 134.32 299.054 134.23 298.762 134.038C298.47 133.852 298.238 133.576 298.077 133.22C297.911 132.865 297.83 132.437 297.83 131.935V130.74C297.835 130.356 297.911 130.001 298.067 129.68C298.223 129.353 298.44 129.094 298.721 128.891C299.003 128.693 299.325 128.592 299.698 128.592C300.045 128.592 300.347 128.682 300.609 128.857C300.871 129.032 301.077 129.274 301.223 129.578C301.369 129.883 301.445 130.227 301.45 130.616H296.884V131.986H303.187V131.36C303.187 130.61 303.091 129.956 302.905 129.409C302.718 128.863 302.462 128.411 302.139 128.056C301.812 127.701 301.44 127.436 301.017 127.267C300.594 127.098 300.146 127.013 299.673 127.013C298.938 127.013 298.299 127.199 297.755 127.577C297.211 127.949 296.788 128.474 296.486 129.144C296.184 129.815 296.033 130.593 296.033 131.478C296.033 132.38 296.184 133.164 296.486 133.824C296.783 134.489 297.216 135.002 297.775 135.363C298.334 135.724 298.998 135.904 299.768 135.904C300.368 135.904 300.896 135.802 301.359 135.599ZM309.831 127.656C309.313 127.228 308.603 127.013 307.702 127.013C307.088 127.013 306.544 127.12 306.076 127.335C305.608 127.549 305.24 127.853 304.979 128.242C304.717 128.631 304.591 129.094 304.591 129.624C304.591 130.255 304.767 130.774 305.12 131.18C305.472 131.591 306.016 131.879 306.756 132.053L308.064 132.358C308.422 132.448 308.684 132.572 308.85 132.73C309.021 132.893 309.101 133.096 309.101 133.339C309.101 133.632 308.971 133.88 308.709 134.077C308.447 134.275 308.1 134.37 307.672 134.37C307.254 134.37 306.917 134.275 306.655 134.077C306.393 133.88 306.227 133.581 306.147 133.198L304.38 133.384C304.49 134.179 304.828 134.793 305.401 135.239C305.975 135.684 306.735 135.904 307.677 135.904C308.316 135.904 308.885 135.786 309.378 135.554C309.872 135.323 310.259 135.002 310.536 134.59C310.813 134.173 310.959 133.7 310.959 133.158C310.959 132.538 310.778 132.042 310.42 131.659C310.068 131.281 309.524 130.999 308.799 130.824L307.486 130.509C307.098 130.407 306.816 130.283 306.65 130.125C306.479 129.967 306.398 129.765 306.398 129.511C306.398 129.223 306.524 128.981 306.776 128.8C307.032 128.62 307.35 128.524 307.727 128.524C308.009 128.524 308.246 128.575 308.437 128.676C308.628 128.778 308.784 128.913 308.9 129.077C309.016 129.24 309.096 129.415 309.142 129.601L310.793 129.398C310.672 128.665 310.35 128.085 309.831 127.656ZM311.875 127.126V128.693H316.295V127.126H311.875ZM312.968 133.48C312.962 134.021 313.068 134.466 313.28 134.827C313.491 135.188 313.778 135.447 314.145 135.622C314.508 135.791 314.916 135.87 315.369 135.853C315.625 135.848 315.842 135.819 316.023 135.774C316.199 135.729 316.34 135.69 316.436 135.65L316.129 134.066C316.079 134.077 316.008 134.094 315.912 134.117C315.817 134.134 315.711 134.145 315.6 134.145C315.449 134.145 315.313 134.117 315.187 134.066C315.067 134.01 314.966 133.914 314.89 133.767C314.815 133.626 314.78 133.418 314.78 133.147V125.063H312.968V133.48ZM322.809 135.599C323.272 135.397 323.655 135.103 323.952 134.737C324.249 134.365 324.455 133.925 324.561 133.423L322.869 133.215C322.789 133.457 322.668 133.66 322.512 133.824C322.356 133.987 322.17 134.111 321.958 134.196C321.742 134.28 321.505 134.32 321.243 134.32C320.846 134.32 320.503 134.23 320.211 134.038C319.914 133.852 319.688 133.576 319.527 133.22C319.361 132.865 319.28 132.437 319.28 131.935V130.74C319.28 130.356 319.361 130.001 319.517 129.68C319.673 129.353 319.889 129.094 320.171 128.891C320.448 128.693 320.775 128.592 321.148 128.592C321.495 128.592 321.797 128.682 322.059 128.857C322.321 129.032 322.527 129.274 322.673 129.578C322.819 129.883 322.894 130.227 322.9 130.616H318.334V131.986H324.636V131.36C324.636 130.61 324.541 129.956 324.354 129.409C324.168 128.863 323.911 128.411 323.584 128.056C323.262 127.701 322.889 127.436 322.467 127.267C322.044 127.098 321.596 127.013 321.123 127.013C320.388 127.013 319.748 127.199 319.205 127.577C318.661 127.949 318.238 128.474 317.936 129.144C317.634 129.815 317.483 130.593 317.483 131.478C317.483 132.38 317.634 133.164 317.931 133.824C318.233 134.489 318.661 135.002 319.22 135.363C319.778 135.724 320.443 135.904 321.218 135.904C321.812 135.904 322.346 135.802 322.809 135.599ZM330.118 135.639C330.405 135.475 330.642 135.278 330.818 135.041C330.994 134.81 331.13 134.585 331.221 134.376H331.331V135.735H333.113V124.257H331.296V128.547H331.221C331.13 128.338 330.999 128.118 330.828 127.876C330.657 127.639 330.425 127.436 330.138 127.267C329.846 127.098 329.474 127.013 329.026 127.013C328.432 127.013 327.898 127.182 327.42 127.521C326.937 127.859 326.554 128.355 326.272 129.015C325.99 129.674 325.849 130.486 325.849 131.439C325.849 132.386 325.99 133.192 326.267 133.852C326.544 134.511 326.922 135.019 327.4 135.363C327.873 135.712 328.417 135.887 329.021 135.887C329.459 135.887 329.826 135.802 330.118 135.639ZM328.522 133.857C328.251 133.621 328.044 133.288 327.908 132.865C327.767 132.448 327.697 131.969 327.697 131.428C327.697 130.898 327.767 130.418 327.903 130.007C328.039 129.59 328.246 129.268 328.512 129.032C328.784 128.795 329.122 128.676 329.524 128.676C329.917 128.676 330.244 128.789 330.516 129.02C330.783 129.246 330.984 129.567 331.125 129.979C331.261 130.39 331.331 130.875 331.331 131.428C331.331 131.986 331.261 132.476 331.12 132.893C330.984 133.311 330.778 133.638 330.506 133.869C330.234 134.106 329.907 134.224 329.524 134.224C329.127 134.224 328.794 134.1 328.522 133.857ZM337.901 127.126V128.693H342.441V127.126H337.901ZM340.851 135.735V126.444C340.851 126.111 340.921 125.852 341.057 125.672C341.198 125.491 341.435 125.395 341.772 125.395C341.918 125.395 342.049 125.412 342.164 125.44C342.28 125.469 342.376 125.497 342.451 125.519L342.814 123.952C342.698 123.907 342.517 123.856 342.275 123.8C342.029 123.744 341.752 123.715 341.44 123.715C340.992 123.715 340.589 123.811 340.226 124.003C339.864 124.195 339.572 124.482 339.356 124.865C339.144 125.249 339.033 125.734 339.033 126.314V135.735H340.851ZM349.172 135.346C349.72 134.979 350.148 134.461 350.45 133.795C350.752 133.13 350.903 132.352 350.903 131.461C350.903 130.576 350.752 129.793 350.45 129.127C350.148 128.457 349.72 127.938 349.172 127.566C348.618 127.199 347.969 127.013 347.219 127.013C346.469 127.013 345.814 127.199 345.265 127.566C344.717 127.938 344.289 128.457 343.987 129.127C343.685 129.793 343.534 130.576 343.534 131.461C343.534 132.352 343.685 133.13 343.987 133.795C344.289 134.461 344.717 134.979 345.265 135.346C345.814 135.718 346.469 135.904 347.219 135.904C347.969 135.904 348.618 135.718 349.172 135.346ZM346.192 133.897C345.915 133.649 345.708 133.305 345.572 132.882C345.437 132.454 345.371 131.98 345.371 131.456C345.371 130.932 345.437 130.452 345.572 130.024C345.708 129.595 345.915 129.257 346.192 129.003C346.463 128.75 346.811 128.62 347.229 128.62C347.636 128.62 347.974 128.75 348.251 129.003C348.522 129.257 348.729 129.595 348.865 130.024C348.996 130.452 349.066 130.932 349.066 131.456C349.066 131.98 348.996 132.454 348.865 132.882C348.729 133.305 348.522 133.649 348.251 133.897C347.974 134.151 347.636 134.275 347.229 134.275C346.811 134.275 346.463 134.151 346.192 133.897ZM354.246 135.735V130.672C354.246 130.306 354.322 129.984 354.473 129.703C354.619 129.421 354.825 129.201 355.087 129.043C355.348 128.885 355.645 128.806 355.978 128.806C356.129 128.806 356.29 128.817 356.456 128.84C356.622 128.868 356.743 128.896 356.818 128.925V127.058C356.733 127.036 356.632 127.025 356.506 127.013C356.38 127.008 356.265 127.002 356.169 127.002C355.726 127.002 355.333 127.137 354.991 127.408C354.649 127.679 354.412 128.062 354.271 128.558H354.191V127.126H352.434V135.735H354.246ZM363.871 138.689C364.213 138.514 364.505 138.26 364.742 137.939C364.978 137.612 365.17 137.223 365.311 136.778L368.401 127.137L366.463 127.126L364.686 133.626H364.606L362.834 127.126H360.911L363.7 135.915L363.544 136.377C363.373 136.857 363.151 137.133 362.879 137.217C362.612 137.302 362.28 137.28 361.888 137.155L361.47 138.728C361.591 138.79 361.757 138.841 361.968 138.881C362.174 138.926 362.401 138.948 362.648 138.948C363.121 138.948 363.529 138.858 363.871 138.689ZM374.956 135.346C375.509 134.979 375.932 134.461 376.234 133.795C376.536 133.13 376.687 132.352 376.687 131.461C376.687 130.576 376.536 129.793 376.234 129.127C375.932 128.457 375.509 127.938 374.956 127.566C374.407 127.199 373.758 127.013 373.008 127.013C372.252 127.013 371.603 127.199 371.054 127.566C370.501 127.938 370.078 128.457 369.776 129.127C369.474 129.793 369.323 130.576 369.323 131.461C369.323 132.352 369.474 133.13 369.776 133.795C370.078 134.461 370.501 134.979 371.054 135.346C371.603 135.718 372.252 135.904 373.008 135.904C373.758 135.904 374.407 135.718 374.956 135.346ZM371.976 133.897C371.699 133.649 371.497 133.305 371.361 132.882C371.226 132.454 371.16 131.98 371.16 131.456C371.16 130.932 371.226 130.452 371.361 130.024C371.497 129.595 371.699 129.257 371.976 129.003C372.252 128.75 372.6 128.62 373.013 128.62C373.42 128.62 373.763 128.75 374.035 129.003C374.311 129.257 374.513 129.595 374.649 130.024C374.785 130.452 374.85 130.932 374.85 131.456C374.85 131.98 374.785 132.454 374.649 132.882C374.513 133.305 374.311 133.649 374.035 133.897C373.763 134.151 373.42 134.275 373.013 134.275C372.6 134.275 372.252 134.151 371.976 133.897ZM382.879 133.203C382.713 133.491 382.512 133.711 382.26 133.857C382.008 134.004 381.752 134.077 381.485 134.077C381.052 134.077 380.699 133.914 380.433 133.592C380.166 133.271 380.03 132.837 380.03 132.29V127.126H378.218V132.606C378.218 133.294 378.328 133.88 378.545 134.365C378.761 134.85 379.063 135.216 379.451 135.47C379.834 135.724 380.277 135.848 380.785 135.848C381.359 135.848 381.847 135.695 382.24 135.385C382.638 135.081 382.919 134.686 383.096 134.207H383.176V135.735H384.933V127.126H383.121V132.115C383.121 132.55 383.04 132.916 382.879 133.203Z" fill="#0A151B"/>
<g opacity="0.01">
<path d="M470.132 227.719C481.867 227.719 491.395 238.39 491.395 251.533C491.395 264.675 481.867 275.346 470.132 275.346C458.396 275.346 448.868 264.675 448.868 251.533C448.868 238.39 458.396 227.719 470.132 227.719Z" fill="url(#paint10_linear_2_292)"/>
</g>
</g>
<defs>
<linearGradient id="paint0_linear_2_292" x1="460.903" y1="693.899" x2="481.137" y2="693.899" gradientUnits="userSpaceOnUse">
<stop stop-color="#5D2EC9"/>
<stop offset="0.5" stop-color="#6B44DF"/>
<stop offset="1" stop-color="#785AF5"/>
</linearGradient>
<linearGradient id="paint1_linear_2_292" x1="460.903" y1="630.758" x2="481.137" y2="630.758" gradientUnits="userSpaceOnUse">
<stop stop-color="#5D2EC9"/>
<stop offset="0.5" stop-color="#6B44DF"/>
<stop offset="1" stop-color="#785AF5"/>
</linearGradient>
<linearGradient id="paint2_linear_2_292" x1="460.903" y1="567.052" x2="481.137" y2="567.052" gradientUnits="userSpaceOnUse">
<stop stop-color="#5D2EC9"/>
<stop offset="0.5" stop-color="#6B44DF"/>
<stop offset="1" stop-color="#785AF5"/>
</linearGradient>
<linearGradient id="paint3_linear_2_292" x1="460.903" y1="503.911" x2="481.137" y2="503.911" gradientUnits="userSpaceOnUse">
<stop stop-color="#5D2EC9"/>
<stop offset="0.5" stop-color="#6B44DF"/>
<stop offset="1" stop-color="#785AF5"/>
</linearGradient>
<linearGradient id="paint4_linear_2_292" x1="460.903" y1="440.768" x2="481.137" y2="440.768" gradientUnits="userSpaceOnUse">
<stop stop-color="#5D2EC9"/>
<stop offset="0.5" stop-color="#6B44DF"/>
<stop offset="1" stop-color="#785AF5"/>
</linearGradient>
<linearGradient id="paint5_linear_2_292" x1="460.903" y1="377.627" x2="481.137" y2="377.627" gradientUnits="userSpaceOnUse">
<stop stop-color="#5D2EC9"/>
<stop offset="0.5" stop-color="#6B44DF"/>
<stop offset="1" stop-color="#785AF5"/>
</linearGradient>
<linearGradient id="paint6_linear_2_292" x1="460.903" y1="314.485" x2="481.137" y2="314.485" gradientUnits="userSpaceOnUse">
<stop stop-color="#5D2EC9"/>
<stop offset="0.5" stop-color="#6B44DF"/>
<stop offset="1" stop-color="#785AF5"/>
</linearGradient>
<linearGradient id="paint7_linear_2_292" x1="460.903" y1="251.344" x2="481.137" y2="251.344" gradientUnits="userSpaceOnUse">
<stop stop-color="#5D2EC9"/>
<stop offset="0.5" stop-color="#6B44DF"/>
<stop offset="1" stop-color="#785AF5"/>
</linearGradient>
<linearGradient id="paint8_linear_2_292" x1="460.903" y1="188.202" x2="481.137" y2="188.202" gradientUnits="userSpaceOnUse">
<stop stop-color="#5D2EC9"/>
<stop offset="0.5" stop-color="#6B44DF"/>
<stop offset="1" stop-color="#785AF5"/>
</linearGradient>
<linearGradient id="paint9_linear_2_292" x1="339.968" y1="601.433" x2="339.968" y2="713.91" gradientUnits="userSpaceOnUse">
<stop stop-color="#FAFAF6" stop-opacity="0"/>
<stop offset="0.5" stop-color="#FAFAF6" stop-opacity="0.5"/>
<stop offset="1" stop-color="#FAFAF6"/>
</linearGradient>
<linearGradient id="paint10_linear_2_292" x1="444.934" y1="263.787" x2="489.401" y2="235.828" gradientUnits="userSpaceOnUse">
<stop stop-color="#5D2DC8"/>
<stop offset="0.5" stop-color="#6B44DF"/>
<stop offset="1" stop-color="#785BF6"/>
</linearGradient>
<clipPath id="clip0_2_292">
<rect width="683" height="687" fill="white" transform="translate(41 0.296875)"/>
</clipPath>
</defs>
</svg>
