<svg width="721" height="825" viewBox="0 0 721 825" fill="none" xmlns="http://www.w3.org/2000/svg">
<path d="M117 363C117 238.736 217.736 138 342 138C466.264 138 567 238.736 567 363V688H117V363Z" fill="#E2DEDA"/>
<g clip-path="url(#clip0_2_1944)">
<path d="M523.636 242.267V364.18C523.636 369.812 520.235 374.386 516.047 374.386H172.017C167.829 374.386 164.428 369.812 164.428 364.18V242.267C164.428 236.634 167.829 232.061 172.017 232.061H516.047C520.235 232.061 523.636 236.634 523.636 242.267Z" fill="#FAFAF6"/>
<path d="M523.689 365.934V366.784H164.481V365.934H523.689Z" fill="#0A151B" fill-opacity="0.08"/>
<path d="M523.689 321.494V322.345H164.481V321.494H523.689Z" fill="#0A151B" fill-opacity="0.08"/>
<path d="M523.689 277.055V277.905H164.481V277.055H523.689Z" fill="#0A151B" fill-opacity="0.08"/>
<path d="M344.401 231.85V374.141H343.769V231.85H344.401Z" fill="#0A151B" fill-opacity="0.08"/>
<path d="M510.756 345.221C510.756 350.337 507.667 354.491 503.863 354.491H472.274C468.47 354.491 465.381 350.337 465.381 345.221C465.381 340.104 468.47 335.95 472.274 335.95H503.863C507.667 335.95 510.756 340.104 510.756 345.221Z" fill="#D7D7D5"/>
<path d="M474.639 342.511C474.507 342.196 474.336 341.924 474.127 341.703C473.918 341.482 473.684 341.32 473.425 341.201C473.166 341.091 472.888 341.031 472.59 341.031C472.103 341.031 471.667 341.184 471.288 341.499C470.908 341.814 470.605 342.256 470.383 342.834C470.168 343.421 470.054 344.11 470.054 344.927C470.054 345.726 470.162 346.424 470.383 347.002C470.605 347.589 470.902 348.031 471.288 348.346C471.667 348.66 472.103 348.813 472.59 348.813C472.9 348.813 473.185 348.754 473.45 348.626C473.71 348.507 473.944 348.329 474.146 348.108C474.355 347.878 474.519 347.614 474.652 347.3C474.785 346.985 474.873 346.645 474.918 346.27H474.058C474.026 346.509 473.963 346.721 473.868 346.908C473.779 347.095 473.665 347.257 473.539 347.385C473.406 347.512 473.261 347.606 473.103 347.674C472.944 347.742 472.774 347.776 472.597 347.776C472.274 347.776 471.983 347.665 471.73 347.444C471.471 347.231 471.269 346.908 471.123 346.483C470.971 346.058 470.902 345.539 470.902 344.927C470.902 344.314 470.971 343.795 471.123 343.37C471.269 342.945 471.471 342.622 471.724 342.401C471.983 342.179 472.274 342.077 472.597 342.077C472.78 342.077 472.944 342.103 473.109 342.171C473.267 342.239 473.412 342.341 473.545 342.469C473.672 342.605 473.786 342.758 473.874 342.945C473.963 343.132 474.026 343.353 474.058 343.6H474.918C474.867 343.192 474.778 342.826 474.639 342.511ZM478.396 347.155C478.295 347.368 478.168 347.521 478.01 347.623C477.858 347.725 477.707 347.776 477.555 347.776C477.295 347.776 477.087 347.665 476.929 347.436C476.771 347.206 476.688 346.9 476.688 346.509V343.03H475.866V346.645C475.866 347.112 475.929 347.504 476.043 347.827C476.163 348.142 476.328 348.38 476.537 348.541C476.745 348.703 476.986 348.788 477.258 348.788C477.574 348.788 477.839 348.686 478.048 348.482C478.263 348.286 478.421 348.031 478.516 347.725H478.56V348.711H479.37V343.03H478.548V346.355C478.548 346.679 478.497 346.942 478.396 347.155ZM483.12 343.353C482.861 343.089 482.5 342.953 482.045 342.953C481.722 342.953 481.444 343.021 481.197 343.166C480.951 343.311 480.761 343.506 480.622 343.761C480.483 344.008 480.413 344.306 480.413 344.637C480.413 345.046 480.502 345.377 480.691 345.641C480.881 345.905 481.172 346.1 481.564 346.219L482.279 346.432C482.481 346.492 482.633 346.585 482.728 346.704C482.829 346.823 482.88 346.976 482.88 347.146C482.88 347.368 482.797 347.555 482.633 347.708C482.475 347.861 482.26 347.937 481.988 347.937C481.741 347.937 481.539 347.861 481.387 347.725C481.235 347.58 481.134 347.368 481.084 347.087L480.287 347.257C480.356 347.759 480.54 348.142 480.837 348.414C481.134 348.686 481.52 348.822 481.994 348.822C482.336 348.822 482.639 348.754 482.899 348.601C483.158 348.448 483.36 348.244 483.506 347.98C483.651 347.708 483.721 347.41 483.721 347.07C483.721 346.67 483.626 346.338 483.436 346.092C483.246 345.837 482.956 345.65 482.57 345.53L481.893 345.326C481.665 345.25 481.495 345.156 481.387 345.037C481.286 344.918 481.235 344.765 481.235 344.578C481.235 344.357 481.311 344.178 481.469 344.042C481.621 343.897 481.817 343.829 482.051 343.829C482.222 343.829 482.361 343.872 482.475 343.94C482.589 344.017 482.684 344.11 482.747 344.229C482.816 344.34 482.861 344.467 482.892 344.595L483.639 344.416C483.556 343.974 483.386 343.617 483.12 343.353ZM484.29 343.03V343.914H486.598V343.03H484.29ZM484.91 347.274C484.91 347.614 484.967 347.903 485.08 348.125C485.201 348.354 485.346 348.524 485.536 348.626C485.725 348.737 485.928 348.788 486.143 348.788C486.276 348.779 486.383 348.771 486.472 348.745C486.56 348.72 486.63 348.694 486.674 348.669L486.529 347.75C486.497 347.759 486.459 347.767 486.408 347.784C486.364 347.793 486.301 347.801 486.238 347.801C486.149 347.801 486.067 347.784 485.991 347.742C485.915 347.708 485.852 347.631 485.801 347.529C485.757 347.419 485.732 347.257 485.732 347.044V341.669H484.91V347.274ZM490.323 348.456C490.62 348.218 490.848 347.878 491.012 347.436C491.177 346.993 491.253 346.483 491.253 345.896C491.253 345.309 491.177 344.791 491.012 344.348C490.848 343.906 490.62 343.566 490.323 343.319C490.026 343.072 489.684 342.953 489.286 342.953C488.887 342.953 488.546 343.072 488.249 343.319C487.952 343.566 487.724 343.906 487.559 344.348C487.395 344.791 487.313 345.309 487.313 345.896C487.313 346.483 487.395 346.993 487.559 347.436C487.724 347.878 487.952 348.218 488.249 348.456C488.546 348.703 488.887 348.822 489.286 348.822C489.684 348.822 490.026 348.703 490.323 348.456ZM488.647 347.623C488.476 347.444 488.35 347.197 488.268 346.891C488.186 346.594 488.148 346.253 488.148 345.896C488.148 345.53 488.186 345.199 488.268 344.893C488.35 344.586 488.476 344.34 488.647 344.161C488.818 343.974 489.027 343.88 489.286 343.88C489.545 343.88 489.76 343.974 489.925 344.161C490.095 344.34 490.222 344.586 490.304 344.893C490.386 345.199 490.424 345.53 490.424 345.896C490.424 346.253 490.386 346.594 490.304 346.891C490.222 347.197 490.095 347.444 489.925 347.623C489.76 347.81 489.545 347.895 489.286 347.895C489.027 347.895 488.818 347.81 488.647 347.623ZM492.992 348.711V345.207C492.992 344.952 493.036 344.722 493.112 344.527C493.194 344.34 493.302 344.187 493.428 344.076C493.561 343.966 493.706 343.906 493.858 343.906C494.092 343.906 494.276 344 494.421 344.187C494.56 344.374 494.636 344.629 494.636 344.935V348.711H495.452V345.088C495.452 344.748 495.528 344.459 495.68 344.238C495.825 344.017 496.034 343.906 496.299 343.906C496.514 343.906 496.704 344 496.862 344.17C497.014 344.34 497.096 344.62 497.096 345.003V348.711H497.918V344.901C497.918 344.246 497.792 343.761 497.551 343.438C497.311 343.115 496.995 342.953 496.609 342.953C496.306 342.953 496.046 343.047 495.825 343.226C495.604 343.404 495.446 343.651 495.344 343.957H495.3C495.205 343.642 495.066 343.396 494.876 343.217C494.68 343.047 494.446 342.953 494.162 342.953C493.884 342.953 493.643 343.038 493.447 343.217C493.245 343.396 493.099 343.642 493.011 343.957H492.96V343.03H492.17V348.711H492.992ZM501.662 348.635C501.902 348.507 502.105 348.329 502.263 348.099C502.427 347.869 502.535 347.597 502.598 347.291L501.82 347.104C501.77 347.283 501.7 347.427 501.605 347.546C501.51 347.674 501.403 347.759 501.27 347.818C501.144 347.878 501.004 347.912 500.846 347.912C500.606 347.912 500.397 347.844 500.214 347.699C500.037 347.563 499.898 347.359 499.797 347.095C499.695 346.832 499.645 346.509 499.645 346.126V345.479C499.645 345.19 499.695 344.927 499.784 344.688C499.879 344.442 500.012 344.246 500.182 344.093C500.353 343.94 500.555 343.872 500.783 343.872C500.998 343.872 501.182 343.932 501.34 344.068C501.498 344.195 501.624 344.374 501.713 344.595C501.801 344.825 501.846 345.08 501.846 345.377H499.291V346.202H502.649V345.811C502.649 345.292 502.598 344.859 502.497 344.493C502.396 344.136 502.25 343.838 502.073 343.617C501.896 343.387 501.694 343.217 501.472 343.115C501.251 343.004 501.017 342.953 500.777 342.953C500.385 342.953 500.043 343.081 499.752 343.328C499.461 343.574 499.234 343.923 499.069 344.365C498.905 344.808 498.829 345.326 498.829 345.905C498.829 346.5 498.905 347.01 499.069 347.444C499.234 347.886 499.461 348.227 499.765 348.465C500.062 348.703 500.423 348.822 500.84 348.822C501.144 348.822 501.422 348.762 501.662 348.635ZM504.388 348.711V345.241C504.388 344.995 504.432 344.774 504.521 344.578C504.609 344.391 504.729 344.238 504.881 344.127C505.033 344.017 505.204 343.957 505.4 343.957C505.482 343.957 505.57 343.966 505.653 343.983C505.735 344 505.798 344.017 505.83 344.025V342.97C505.785 342.962 505.735 342.953 505.659 342.953C505.589 342.945 505.532 342.945 505.482 342.945C505.229 342.945 505.008 343.03 504.812 343.209C504.622 343.387 504.483 343.625 504.407 343.932H504.363V343.03H503.566V348.711H504.388Z" fill="#0A151B"/>
<path d="M387.196 348.864C387.633 348.532 387.968 348.073 388.202 347.46C388.436 346.857 388.55 346.125 388.55 345.283C388.55 344.433 388.436 343.71 388.202 343.106C387.974 342.502 387.639 342.034 387.209 341.711C386.779 341.388 386.26 341.226 385.66 341.226H383.573V349.349H385.622C386.235 349.349 386.76 349.187 387.196 348.864ZM384.667 342.502H385.603C386.007 342.502 386.349 342.604 386.627 342.808C386.905 343.012 387.114 343.318 387.253 343.735C387.392 344.143 387.468 344.662 387.468 345.283C387.468 345.904 387.392 346.423 387.253 346.831C387.114 347.248 386.899 347.554 386.621 347.767C386.336 347.971 385.988 348.073 385.565 348.073H384.667V342.502ZM392.483 349.255C392.755 349.11 392.983 348.906 393.16 348.643C393.337 348.379 393.451 348.073 393.514 347.716L392.521 347.563C392.471 347.733 392.401 347.877 392.313 347.996C392.218 348.115 392.11 348.2 391.984 348.26C391.857 348.319 391.718 348.345 391.56 348.345C391.332 348.345 391.13 348.285 390.953 348.149C390.782 348.013 390.649 347.826 390.548 347.571C390.453 347.316 390.403 347.018 390.403 346.661V345.819C390.409 345.547 390.453 345.292 390.548 345.062C390.637 344.832 390.763 344.654 390.928 344.509C391.098 344.365 391.288 344.297 391.503 344.297C391.712 344.297 391.889 344.356 392.041 344.484C392.199 344.611 392.319 344.773 392.407 344.994C392.49 345.207 392.534 345.453 392.54 345.725H389.846V346.695H393.558V346.253C393.558 345.725 393.508 345.258 393.394 344.875C393.286 344.484 393.135 344.169 392.945 343.914C392.749 343.667 392.534 343.48 392.281 343.361C392.034 343.242 391.769 343.174 391.49 343.174C391.06 343.174 390.681 343.31 390.358 343.574C390.042 343.846 389.789 344.212 389.612 344.688C389.435 345.164 389.347 345.708 389.347 346.338C389.347 346.976 389.435 347.529 389.612 347.996C389.789 348.464 390.042 348.83 390.371 349.085C390.7 349.34 391.092 349.468 391.547 349.468C391.901 349.468 392.211 349.4 392.483 349.255ZM394.463 341.226V349.349H395.532V341.226H394.463ZM396.626 341.226V349.349H397.694V341.226H396.626ZM402.501 342.459V349.349H403.588V342.459H405.454V341.226H400.635V342.459H402.501ZM409.274 349.255C409.546 349.11 409.773 348.906 409.95 348.643C410.127 348.379 410.241 348.073 410.305 347.716L409.312 347.563C409.261 347.733 409.192 347.877 409.103 347.996C409.008 348.115 408.901 348.2 408.774 348.26C408.648 348.319 408.509 348.345 408.35 348.345C408.123 348.345 407.92 348.285 407.743 348.149C407.573 348.013 407.44 347.826 407.339 347.571C407.244 347.316 407.193 347.018 407.193 346.661V345.819C407.199 345.547 407.244 345.292 407.339 345.062C407.427 344.832 407.554 344.654 407.718 344.509C407.889 344.365 408.078 344.297 408.293 344.297C408.502 344.297 408.679 344.356 408.837 344.484C408.989 344.611 409.109 344.773 409.198 344.994C409.28 345.207 409.324 345.453 409.331 345.725H406.637V346.695H410.349V346.253C410.349 345.725 410.298 345.258 410.184 344.875C410.077 344.484 409.925 344.169 409.735 343.914C409.539 343.667 409.324 343.48 409.071 343.361C408.825 343.242 408.559 343.174 408.281 343.174C407.851 343.174 407.471 343.31 407.149 343.574C406.833 343.846 406.58 344.212 406.403 344.688C406.226 345.164 406.137 345.708 406.137 346.338C406.137 346.976 406.226 347.529 406.403 347.996C406.58 348.464 406.833 348.83 407.161 349.085C407.49 349.34 407.882 349.468 408.338 349.468C408.692 349.468 409.002 349.4 409.274 349.255ZM414.219 349.187C414.504 349 414.725 348.745 414.889 348.413C415.048 348.081 415.142 347.699 415.168 347.265H414.15C414.118 347.486 414.061 347.673 413.973 347.826C413.89 347.979 413.789 348.098 413.663 348.175C413.536 348.26 413.397 348.294 413.239 348.294C413.018 348.294 412.822 348.217 412.657 348.056C412.493 347.894 412.366 347.673 412.278 347.375C412.189 347.078 412.139 346.721 412.139 346.304C412.139 345.896 412.189 345.538 412.278 345.249C412.373 344.951 412.499 344.73 412.663 344.569C412.828 344.416 413.018 344.339 413.239 344.339C413.498 344.339 413.701 344.433 413.859 344.628C414.01 344.832 414.105 345.071 414.15 345.368H415.168C415.149 344.926 415.048 344.543 414.883 344.212C414.712 343.888 414.485 343.633 414.2 343.446C413.916 343.267 413.593 343.174 413.226 343.174C412.784 343.174 412.398 343.31 412.075 343.574C411.753 343.846 411.5 344.212 411.323 344.688C411.146 345.164 411.057 345.708 411.057 346.329C411.057 346.942 411.146 347.486 411.323 347.962C411.493 348.43 411.74 348.804 412.069 349.068C412.391 349.332 412.777 349.468 413.226 349.468C413.606 349.468 413.941 349.374 414.219 349.187ZM417.242 345.028C417.324 344.824 417.438 344.662 417.59 344.56C417.735 344.45 417.906 344.39 418.096 344.39C418.374 344.39 418.595 344.509 418.754 344.739C418.905 344.96 418.987 345.283 418.987 345.691V349.349H420.05V345.47C420.05 344.977 419.987 344.56 419.86 344.22C419.734 343.88 419.55 343.625 419.316 343.446C419.082 343.267 418.804 343.174 418.494 343.174C418.146 343.174 417.862 343.276 417.64 343.48C417.413 343.676 417.248 343.948 417.147 344.297H417.09V341.226H416.047V349.349H417.116V345.776C417.116 345.487 417.16 345.232 417.242 345.028ZM422.327 345.028C422.409 344.824 422.523 344.662 422.668 344.56C422.814 344.45 422.978 344.39 423.161 344.39C423.44 344.39 423.655 344.509 423.813 344.739C423.965 344.968 424.047 345.283 424.047 345.691V349.349H425.109V345.47C425.116 344.985 425.052 344.569 424.919 344.229C424.793 343.888 424.61 343.625 424.382 343.446C424.148 343.267 423.876 343.174 423.56 343.174C423.225 343.174 422.94 343.276 422.712 343.48C422.478 343.684 422.314 343.948 422.213 344.297H422.156V343.259H421.138V349.349H422.206V345.776C422.206 345.487 422.244 345.232 422.327 345.028ZM429.327 349.076C429.65 348.813 429.903 348.447 430.08 347.979C430.257 347.503 430.346 346.959 430.346 346.329C430.346 345.7 430.257 345.147 430.08 344.671C429.903 344.203 429.65 343.829 429.327 343.574C428.999 343.31 428.619 343.174 428.176 343.174C427.734 343.174 427.348 343.31 427.025 343.574C426.703 343.829 426.45 344.203 426.273 344.671C426.096 345.147 426.007 345.7 426.007 346.329C426.007 346.959 426.096 347.503 426.273 347.979C426.45 348.447 426.703 348.813 427.025 349.076C427.348 349.34 427.734 349.468 428.176 349.468C428.619 349.468 428.999 349.34 429.327 349.076ZM427.569 348.047C427.405 347.869 427.285 347.631 427.209 347.333C427.127 347.027 427.089 346.695 427.089 346.321C427.089 345.947 427.127 345.615 427.209 345.309C427.285 345.011 427.405 344.764 427.569 344.586C427.734 344.407 427.936 344.314 428.183 344.314C428.423 344.314 428.619 344.407 428.783 344.586C428.942 344.764 429.062 345.011 429.144 345.309C429.226 345.615 429.264 345.947 429.264 346.321C429.264 346.695 429.226 347.027 429.144 347.333C429.062 347.631 428.942 347.869 428.783 348.047C428.619 348.226 428.423 348.319 428.183 348.319C427.936 348.319 427.734 348.226 427.569 348.047ZM431.25 341.226V349.349H432.312V341.226H431.25ZM436.537 349.076C436.859 348.813 437.112 348.447 437.289 347.979C437.466 347.503 437.561 346.959 437.561 346.329C437.561 345.7 437.466 345.147 437.289 344.671C437.112 344.203 436.859 343.829 436.537 343.574C436.214 343.31 435.829 343.174 435.386 343.174C434.943 343.174 434.564 343.31 434.241 343.574C433.912 343.829 433.666 344.203 433.482 344.671C433.305 345.147 433.217 345.7 433.217 346.329C433.217 346.959 433.305 347.503 433.482 347.979C433.666 348.447 433.912 348.813 434.241 349.076C434.564 349.34 434.943 349.468 435.386 349.468C435.829 349.468 436.214 349.34 436.537 349.076ZM434.785 348.047C434.621 347.869 434.5 347.631 434.418 347.333C434.342 347.027 434.298 346.695 434.298 346.321C434.298 345.947 434.342 345.615 434.418 345.309C434.5 345.011 434.621 344.764 434.785 344.586C434.943 344.407 435.146 344.314 435.392 344.314C435.632 344.314 435.835 344.407 435.993 344.586C436.157 344.764 436.278 345.011 436.36 345.309C436.436 345.615 436.474 345.947 436.474 346.321C436.474 346.695 436.436 347.027 436.36 347.333C436.278 347.631 436.157 347.869 435.993 348.047C435.835 348.226 435.632 348.319 435.392 348.319C435.146 348.319 434.943 348.226 434.785 348.047ZM441.52 351.483C441.843 351.313 442.096 351.067 442.279 350.726C442.462 350.386 442.557 349.961 442.557 349.451V343.259H441.501V344.263H441.444C441.394 344.118 441.311 343.956 441.21 343.795C441.109 343.625 440.97 343.48 440.799 343.361C440.628 343.242 440.407 343.174 440.142 343.174C439.794 343.174 439.477 343.301 439.199 343.54C438.915 343.778 438.687 344.126 438.523 344.586C438.358 345.054 438.276 345.615 438.276 346.287C438.276 346.95 438.358 347.494 438.523 347.937C438.687 348.379 438.915 348.711 439.193 348.932C439.477 349.153 439.794 349.264 440.142 349.264C440.401 349.264 440.616 349.213 440.787 349.102C440.957 349 441.096 348.864 441.204 348.711C441.311 348.558 441.387 348.405 441.444 348.251H441.495V349.408C441.495 349.842 441.4 350.157 441.198 350.352C441.002 350.548 440.749 350.65 440.445 350.65C440.236 350.65 440.053 350.607 439.914 350.531C439.775 350.454 439.661 350.361 439.579 350.242C439.496 350.131 439.433 350.012 439.389 349.91L438.428 350.225C438.497 350.497 438.611 350.752 438.776 350.982C438.946 351.211 439.168 351.39 439.44 351.526C439.718 351.671 440.047 351.739 440.432 351.739C440.837 351.739 441.198 351.654 441.52 351.483ZM439.851 347.903C439.686 347.75 439.566 347.529 439.484 347.256C439.402 346.976 439.364 346.644 439.364 346.278C439.364 345.904 439.402 345.581 439.484 345.292C439.566 345.002 439.686 344.773 439.844 344.603C440.002 344.441 440.198 344.356 440.439 344.356C440.666 344.356 440.862 344.433 441.021 344.594C441.179 344.756 441.299 344.977 441.381 345.266C441.463 345.555 441.501 345.896 441.501 346.278C441.501 346.661 441.463 347.001 441.381 347.273C441.299 347.554 441.179 347.767 441.014 347.911C440.856 348.064 440.666 348.132 440.439 348.132C440.205 348.132 440.009 348.056 439.851 347.903ZM444.72 349.349V343.259H443.651V349.349H444.72ZM444.625 342.162C444.745 342.009 444.809 341.83 444.809 341.617C444.809 341.396 444.745 341.218 444.625 341.065C444.505 340.912 444.36 340.835 444.189 340.835C444.018 340.835 443.873 340.912 443.753 341.065C443.632 341.218 443.569 341.396 443.569 341.617C443.569 341.83 443.632 342.009 443.753 342.162C443.873 342.315 444.018 342.391 444.189 342.391C444.36 342.391 444.505 342.315 444.625 342.162ZM448.761 349.255C449.033 349.11 449.261 348.906 449.432 348.643C449.609 348.379 449.729 348.073 449.792 347.716L448.799 347.563C448.749 347.733 448.679 347.877 448.584 347.996C448.496 348.115 448.388 348.2 448.262 348.26C448.135 348.319 447.996 348.345 447.838 348.345C447.604 348.345 447.402 348.285 447.231 348.149C447.06 348.013 446.921 347.826 446.826 347.571C446.731 347.316 446.681 347.018 446.681 346.661V345.819C446.687 345.547 446.731 345.292 446.82 345.062C446.915 344.832 447.041 344.654 447.206 344.509C447.37 344.365 447.566 344.297 447.781 344.297C447.983 344.297 448.167 344.356 448.319 344.484C448.477 344.611 448.597 344.773 448.679 344.994C448.768 345.207 448.812 345.453 448.812 345.725H446.124V346.695H449.836V346.253C449.836 345.725 449.779 345.258 449.672 344.875C449.564 344.484 449.413 344.169 449.217 343.914C449.027 343.667 448.805 343.48 448.559 343.361C448.312 343.242 448.047 343.174 447.768 343.174C447.332 343.174 446.959 343.31 446.636 343.574C446.32 343.846 446.067 344.212 445.89 344.688C445.713 345.164 445.624 345.708 445.624 346.338C445.624 346.976 445.713 347.529 445.89 347.996C446.067 348.464 446.32 348.83 446.649 349.085C446.978 349.34 447.37 349.468 447.825 349.468C448.173 349.468 448.489 349.4 448.761 349.255ZM453.751 343.633C453.447 343.327 453.03 343.174 452.499 343.174C452.138 343.174 451.816 343.25 451.537 343.404C451.266 343.557 451.051 343.769 450.892 344.05C450.741 344.322 450.665 344.654 450.665 345.028C450.665 345.47 450.766 345.836 450.975 346.125C451.183 346.414 451.506 346.618 451.942 346.746L452.714 346.959C452.922 347.018 453.074 347.112 453.175 347.222C453.27 347.333 453.321 347.477 453.321 347.656C453.321 347.86 453.245 348.039 453.093 348.175C452.935 348.311 452.733 348.388 452.48 348.388C452.233 348.388 452.031 348.311 451.879 348.175C451.727 348.039 451.626 347.826 451.582 347.554L450.538 347.69C450.602 348.251 450.804 348.685 451.145 349C451.481 349.315 451.93 349.468 452.48 349.468C452.859 349.468 453.194 349.383 453.485 349.221C453.776 349.059 454.004 348.83 454.168 348.541C454.333 348.243 454.415 347.911 454.415 347.529C454.415 347.086 454.307 346.738 454.099 346.465C453.89 346.193 453.574 345.998 453.144 345.879L452.372 345.649C452.138 345.581 451.974 345.487 451.879 345.377C451.778 345.266 451.727 345.122 451.727 344.943C451.727 344.739 451.803 344.569 451.955 344.441C452.1 344.314 452.29 344.246 452.511 344.246C452.676 344.246 452.815 344.288 452.929 344.356C453.043 344.424 453.137 344.518 453.201 344.637C453.27 344.756 453.321 344.875 453.346 345.011L454.32 344.866C454.244 344.348 454.054 343.939 453.751 343.633Z" fill="#0A151B"/>
<path d="M366.178 331.806C371.521 331.806 375.86 337.641 375.86 344.827C375.86 352.014 371.521 357.848 366.178 357.848C360.834 357.848 356.496 352.014 356.496 344.827C356.496 337.641 360.834 331.806 366.178 331.806Z" fill="#21837F"/>
<path d="M366.811 347.771C367.171 347.499 367.456 347.116 367.646 346.606C367.842 346.104 367.936 345.492 367.936 344.786C367.936 344.088 367.842 343.484 367.646 342.983C367.456 342.472 367.178 342.09 366.817 341.817C366.457 341.545 366.033 341.409 365.533 341.409H363.788V348.179H365.495C366.008 348.179 366.444 348.043 366.811 347.771ZM364.705 342.472H365.476C365.818 342.472 366.102 342.557 366.336 342.727C366.564 342.898 366.741 343.153 366.855 343.501C366.975 343.842 367.032 344.275 367.032 344.786C367.032 345.305 366.975 345.738 366.855 346.079C366.741 346.427 366.564 346.682 366.33 346.861C366.096 347.031 365.805 347.116 365.451 347.116H364.705V342.472Z" fill="#FAFAF6"/>
<path d="M510.44 300.569C510.44 305.686 507.351 309.84 503.547 309.84H471.958C468.154 309.84 465.065 305.686 465.065 300.569C465.065 295.453 468.154 291.299 471.958 291.299H503.547C507.351 291.299 510.44 295.453 510.44 300.569Z" fill="#D7D7D5"/>
<path d="M474.007 297.859C473.874 297.544 473.703 297.272 473.495 297.051C473.286 296.83 473.052 296.668 472.793 296.549C472.533 296.438 472.255 296.379 471.958 296.379C471.471 296.379 471.035 296.532 470.655 296.847C470.276 297.161 469.972 297.604 469.751 298.182C469.536 298.769 469.422 299.458 469.422 300.274C469.422 301.074 469.53 301.771 469.751 302.35C469.972 302.936 470.269 303.379 470.655 303.693C471.035 304.008 471.471 304.161 471.958 304.161C472.268 304.161 472.552 304.102 472.818 303.974C473.077 303.855 473.311 303.676 473.514 303.455C473.722 303.226 473.887 302.962 474.02 302.647C474.152 302.333 474.241 301.992 474.285 301.618H473.425C473.394 301.856 473.33 302.069 473.235 302.256C473.147 302.443 473.033 302.605 472.907 302.732C472.774 302.86 472.628 302.953 472.47 303.021C472.312 303.089 472.141 303.124 471.964 303.124C471.642 303.124 471.351 303.013 471.098 302.792C470.839 302.579 470.636 302.256 470.491 301.831C470.339 301.405 470.269 300.887 470.269 300.274C470.269 299.662 470.339 299.143 470.491 298.718C470.636 298.293 470.839 297.969 471.092 297.748C471.351 297.527 471.642 297.425 471.964 297.425C472.148 297.425 472.312 297.451 472.477 297.519C472.635 297.587 472.78 297.689 472.913 297.816C473.039 297.952 473.153 298.105 473.242 298.293C473.33 298.48 473.394 298.701 473.425 298.947H474.285C474.235 298.539 474.146 298.173 474.007 297.859ZM477.763 302.503C477.662 302.715 477.536 302.868 477.378 302.97C477.226 303.072 477.074 303.124 476.922 303.124C476.663 303.124 476.454 303.013 476.296 302.783C476.138 302.554 476.056 302.247 476.056 301.856V298.378H475.234V301.992C475.234 302.46 475.297 302.851 475.411 303.175C475.531 303.489 475.695 303.727 475.904 303.889C476.113 304.051 476.353 304.136 476.625 304.136C476.941 304.136 477.207 304.034 477.416 303.829C477.631 303.634 477.789 303.379 477.884 303.072H477.928V304.059H478.737V298.378H477.915V301.703C477.915 302.026 477.865 302.29 477.763 302.503ZM482.488 298.701C482.228 298.437 481.868 298.301 481.412 298.301C481.09 298.301 480.812 298.369 480.565 298.514C480.318 298.658 480.129 298.854 479.99 299.109C479.85 299.356 479.781 299.653 479.781 299.985C479.781 300.393 479.869 300.725 480.059 300.989C480.249 301.252 480.54 301.448 480.932 301.567L481.646 301.78C481.849 301.839 482.001 301.933 482.095 302.052C482.197 302.171 482.247 302.324 482.247 302.494C482.247 302.715 482.165 302.902 482.001 303.055C481.842 303.209 481.627 303.285 481.356 303.285C481.109 303.285 480.907 303.209 480.755 303.072C480.603 302.928 480.502 302.715 480.451 302.435L479.654 302.605C479.724 303.107 479.907 303.489 480.205 303.761C480.502 304.034 480.888 304.17 481.362 304.17C481.703 304.17 482.007 304.102 482.266 303.949C482.525 303.795 482.728 303.591 482.873 303.328C483.019 303.055 483.088 302.758 483.088 302.418C483.088 302.018 482.993 301.686 482.804 301.439C482.614 301.184 482.323 300.997 481.937 300.878L481.261 300.674C481.033 300.597 480.862 300.504 480.755 300.385C480.654 300.266 480.603 300.113 480.603 299.926C480.603 299.704 480.679 299.526 480.837 299.39C480.989 299.245 481.185 299.177 481.419 299.177C481.59 299.177 481.729 299.22 481.842 299.288C481.956 299.364 482.051 299.458 482.114 299.577C482.184 299.687 482.228 299.815 482.26 299.943L483.006 299.764C482.924 299.322 482.753 298.964 482.488 298.701ZM483.657 298.378V299.262H485.966V298.378H483.657ZM484.277 302.622C484.277 302.962 484.334 303.251 484.448 303.472C484.568 303.702 484.714 303.872 484.903 303.974C485.093 304.085 485.295 304.136 485.51 304.136C485.643 304.127 485.751 304.119 485.839 304.093C485.928 304.068 485.997 304.042 486.042 304.017L485.896 303.098C485.865 303.107 485.827 303.115 485.776 303.132C485.732 303.141 485.669 303.149 485.605 303.149C485.517 303.149 485.435 303.132 485.359 303.089C485.283 303.055 485.22 302.979 485.169 302.877C485.125 302.766 485.099 302.605 485.099 302.392V297.017H484.277V302.622ZM489.691 303.804C489.988 303.566 490.216 303.226 490.38 302.783C490.544 302.341 490.62 301.831 490.62 301.244C490.62 300.657 490.544 300.138 490.38 299.696C490.216 299.254 489.988 298.913 489.691 298.667C489.393 298.42 489.052 298.301 488.654 298.301C488.255 298.301 487.914 298.42 487.616 298.667C487.319 298.913 487.091 299.254 486.927 299.696C486.763 300.138 486.68 300.657 486.68 301.244C486.68 301.831 486.763 302.341 486.927 302.783C487.091 303.226 487.319 303.566 487.616 303.804C487.914 304.051 488.255 304.17 488.654 304.17C489.052 304.17 489.393 304.051 489.691 303.804ZM488.015 302.97C487.844 302.792 487.718 302.545 487.635 302.239C487.553 301.941 487.515 301.601 487.515 301.244C487.515 300.878 487.553 300.546 487.635 300.24C487.718 299.934 487.844 299.687 488.015 299.509C488.186 299.322 488.394 299.228 488.654 299.228C488.913 299.228 489.128 299.322 489.292 299.509C489.463 299.687 489.589 299.934 489.672 300.24C489.754 300.546 489.792 300.878 489.792 301.244C489.792 301.601 489.754 301.941 489.672 302.239C489.589 302.545 489.463 302.792 489.292 302.97C489.128 303.158 488.913 303.243 488.654 303.243C488.394 303.243 488.186 303.158 488.015 302.97ZM492.359 304.059V300.555C492.359 300.3 492.404 300.07 492.48 299.875C492.562 299.687 492.669 299.534 492.796 299.424C492.929 299.313 493.074 299.254 493.226 299.254C493.46 299.254 493.643 299.347 493.789 299.534C493.928 299.721 494.004 299.977 494.004 300.283V304.059H494.819V300.436C494.819 300.096 494.895 299.806 495.047 299.585C495.193 299.364 495.401 299.254 495.667 299.254C495.882 299.254 496.072 299.347 496.23 299.517C496.382 299.687 496.464 299.968 496.464 300.351V304.059H497.286V300.249C497.286 299.594 497.159 299.109 496.919 298.786C496.679 298.463 496.363 298.301 495.977 298.301C495.673 298.301 495.414 298.395 495.193 298.573C494.971 298.752 494.813 298.999 494.712 299.305H494.668C494.573 298.99 494.434 298.743 494.244 298.565C494.048 298.395 493.814 298.301 493.529 298.301C493.251 298.301 493.011 298.386 492.815 298.565C492.612 298.743 492.467 298.99 492.378 299.305H492.328V298.378H491.537V304.059H492.359ZM501.03 303.983C501.27 303.855 501.472 303.676 501.631 303.447C501.795 303.217 501.902 302.945 501.966 302.639L501.188 302.452C501.137 302.63 501.068 302.775 500.973 302.894C500.878 303.021 500.77 303.106 500.638 303.166C500.511 303.226 500.372 303.26 500.214 303.26C499.974 303.26 499.765 303.192 499.582 303.047C499.404 302.911 499.265 302.707 499.164 302.443C499.063 302.179 499.012 301.856 499.012 301.474V300.827C499.012 300.538 499.063 300.274 499.151 300.036C499.246 299.789 499.379 299.594 499.55 299.441C499.721 299.288 499.923 299.22 500.151 299.22C500.366 299.22 500.549 299.279 500.707 299.415C500.865 299.543 500.992 299.721 501.08 299.943C501.169 300.172 501.213 300.427 501.213 300.725H498.658V301.55H502.016V301.159C502.016 300.64 501.966 300.206 501.865 299.841C501.763 299.483 501.618 299.186 501.441 298.964C501.264 298.735 501.061 298.565 500.84 298.463C500.619 298.352 500.385 298.301 500.144 298.301C499.752 298.301 499.411 298.429 499.12 298.675C498.829 298.922 498.601 299.271 498.437 299.713C498.272 300.155 498.197 300.674 498.197 301.252C498.197 301.848 498.272 302.358 498.437 302.792C498.601 303.234 498.829 303.574 499.133 303.812C499.43 304.051 499.79 304.17 500.208 304.17C500.511 304.17 500.789 304.11 501.03 303.983ZM503.755 304.059V300.589C503.755 300.342 503.8 300.121 503.888 299.926C503.977 299.738 504.097 299.585 504.249 299.475C504.4 299.364 504.571 299.305 504.767 299.305C504.849 299.305 504.938 299.313 505.02 299.33C505.102 299.347 505.166 299.364 505.197 299.373V298.318C505.153 298.31 505.102 298.301 505.027 298.301C504.957 298.293 504.9 298.293 504.849 298.293C504.597 298.293 504.375 298.378 504.179 298.556C503.989 298.735 503.85 298.973 503.774 299.279H503.73V298.378H502.933V304.059H503.755Z" fill="#0A151B"/>
<path d="M388.455 298.105C388.309 297.756 388.12 297.458 387.898 297.212C387.671 296.965 387.411 296.778 387.127 296.65C386.836 296.531 386.52 296.463 386.185 296.463C385.66 296.463 385.185 296.625 384.768 296.957C384.357 297.288 384.028 297.765 383.781 298.385C383.541 299.015 383.421 299.763 383.421 300.639C383.421 301.507 383.541 302.255 383.781 302.876C384.022 303.506 384.351 303.982 384.768 304.314C385.179 304.645 385.653 304.807 386.185 304.807C386.545 304.807 386.874 304.739 387.171 304.594C387.462 304.45 387.721 304.246 387.943 303.99C388.164 303.727 388.341 303.429 388.474 303.097C388.613 302.757 388.702 302.391 388.746 302.009L387.639 302C387.607 302.238 387.544 302.451 387.456 302.638C387.373 302.817 387.266 302.978 387.139 303.106C387.013 303.225 386.868 303.327 386.709 303.386C386.551 303.455 386.381 303.489 386.204 303.489C385.875 303.489 385.584 303.378 385.331 303.165C385.078 302.944 384.882 302.63 384.736 302.204C384.591 301.779 384.521 301.26 384.521 300.639C384.521 300.027 384.591 299.508 384.736 299.083C384.882 298.658 385.078 298.334 385.331 298.113C385.584 297.892 385.875 297.782 386.204 297.782C386.387 297.782 386.564 297.816 386.722 297.884C386.88 297.952 387.026 298.054 387.152 298.181C387.279 298.317 387.38 298.479 387.468 298.666C387.551 298.853 387.607 299.074 387.639 299.313H388.746C388.695 298.862 388.6 298.462 388.455 298.105ZM390.769 304.696V298.607H389.701V304.696H390.769ZM390.675 297.509C390.795 297.356 390.852 297.178 390.852 296.965C390.852 296.744 390.795 296.565 390.675 296.412C390.554 296.259 390.409 296.183 390.238 296.183C390.068 296.183 389.922 296.259 389.802 296.412C389.682 296.565 389.619 296.744 389.619 296.965C389.619 297.178 389.682 297.356 389.802 297.509C389.922 297.663 390.068 297.739 390.238 297.739C390.409 297.739 390.554 297.663 390.675 297.509ZM391.522 298.607V299.712H394.128V298.607H391.522ZM392.167 303.106C392.167 303.48 392.224 303.803 392.351 304.05C392.477 304.305 392.648 304.492 392.856 304.611C393.071 304.739 393.312 304.79 393.584 304.781C393.735 304.773 393.862 304.756 393.969 304.722C394.071 304.696 394.153 304.662 394.21 304.637L394.033 303.514C394.001 303.523 393.957 303.54 393.9 303.548C393.843 303.565 393.786 303.574 393.717 303.574C393.628 303.574 393.546 303.548 393.476 303.514C393.4 303.48 393.343 303.412 393.299 303.31C393.255 303.208 393.236 303.055 393.236 302.868V297.144H392.167V303.106ZM396.088 304.696V298.607H395.019V304.696H396.088ZM395.993 297.509C396.113 297.356 396.177 297.178 396.177 296.965C396.177 296.744 396.113 296.565 395.993 296.412C395.873 296.259 395.728 296.183 395.557 296.183C395.386 296.183 395.241 296.259 395.12 296.412C395 296.565 394.937 296.744 394.937 296.965C394.937 297.178 395 297.356 395.12 297.509C395.241 297.663 395.386 297.739 395.557 297.739C395.728 297.739 395.873 297.663 395.993 297.509ZM400.249 306.831C400.565 306.661 400.818 306.414 401.002 306.074C401.192 305.734 401.28 305.309 401.28 304.798V298.607H400.23V299.61H400.167C400.116 299.466 400.041 299.304 399.939 299.142C399.832 298.972 399.699 298.828 399.528 298.709C399.351 298.59 399.136 298.522 398.871 298.522C398.523 298.522 398.207 298.649 397.922 298.887C397.637 299.125 397.416 299.474 397.252 299.933C397.081 300.401 396.999 300.963 396.999 301.634C396.999 302.298 397.081 302.842 397.252 303.284C397.416 303.727 397.637 304.058 397.922 304.28C398.207 304.501 398.516 304.611 398.864 304.611C399.124 304.611 399.345 304.56 399.516 304.45C399.686 304.348 399.826 304.211 399.927 304.058C400.034 303.905 400.116 303.752 400.167 303.599H400.224V304.756C400.224 305.19 400.123 305.504 399.927 305.7C399.724 305.896 399.478 305.998 399.174 305.998C398.959 305.998 398.782 305.955 398.643 305.879C398.498 305.802 398.39 305.708 398.308 305.589C398.226 305.479 398.162 305.36 398.118 305.258L397.157 305.572C397.22 305.844 397.34 306.1 397.505 306.329C397.669 306.559 397.89 306.738 398.169 306.874C398.441 307.018 398.769 307.086 399.155 307.086C399.56 307.086 399.927 307.001 400.249 306.831ZM398.573 303.25C398.415 303.097 398.295 302.876 398.213 302.604C398.131 302.323 398.086 301.992 398.086 301.626C398.086 301.252 398.131 300.929 398.207 300.639C398.289 300.35 398.409 300.121 398.567 299.95C398.725 299.789 398.928 299.704 399.162 299.704C399.396 299.704 399.592 299.78 399.75 299.942C399.908 300.103 400.028 300.325 400.104 300.614C400.186 300.903 400.23 301.243 400.23 301.626C400.23 302.009 400.186 302.349 400.104 302.621C400.022 302.902 399.901 303.114 399.743 303.259C399.585 303.412 399.389 303.48 399.162 303.48C398.928 303.48 398.731 303.404 398.573 303.25ZM403.449 304.696V301.116C403.449 300.852 403.494 300.631 403.582 300.427C403.671 300.231 403.791 300.078 403.943 299.967C404.101 299.848 404.271 299.797 404.467 299.797C404.556 299.797 404.651 299.806 404.746 299.823C404.847 299.84 404.916 299.857 404.961 299.874V298.556C404.91 298.547 404.853 298.53 404.777 298.53C404.701 298.522 404.638 298.522 404.581 298.522C404.322 298.522 404.088 298.615 403.886 298.802C403.683 298.998 403.544 299.27 403.462 299.619H403.411V298.607H402.38V304.696H403.449ZM408.799 304.424C409.122 304.16 409.375 303.795 409.552 303.327C409.729 302.851 409.818 302.306 409.818 301.677C409.818 301.048 409.729 300.495 409.552 300.018C409.375 299.551 409.122 299.176 408.799 298.921C408.477 298.658 408.091 298.522 407.648 298.522C407.206 298.522 406.82 298.658 406.497 298.921C406.175 299.176 405.922 299.551 405.745 300.018C405.568 300.495 405.479 301.048 405.479 301.677C405.479 302.306 405.568 302.851 405.745 303.327C405.922 303.795 406.175 304.16 406.497 304.424C406.82 304.688 407.206 304.815 407.648 304.815C408.091 304.815 408.477 304.688 408.799 304.424ZM407.041 303.395C406.883 303.216 406.757 302.978 406.681 302.681C406.599 302.374 406.561 302.043 406.561 301.668C406.561 301.294 406.599 300.963 406.681 300.656C406.757 300.359 406.883 300.112 407.041 299.933C407.206 299.755 407.408 299.661 407.655 299.661C407.895 299.661 408.097 299.755 408.256 299.933C408.42 300.112 408.54 300.359 408.616 300.656C408.698 300.963 408.736 301.294 408.736 301.668C408.736 302.043 408.698 302.374 408.616 302.681C408.54 302.978 408.42 303.216 408.256 303.395C408.097 303.574 407.895 303.667 407.655 303.667C407.408 303.667 407.206 303.574 407.041 303.395ZM413.467 302.902C413.372 303.114 413.245 303.267 413.1 303.369C412.954 303.472 412.803 303.523 412.644 303.523C412.385 303.523 412.183 303.412 412.025 303.182C411.867 302.953 411.791 302.647 411.791 302.264V298.607H410.722V302.485C410.722 302.97 410.785 303.386 410.912 303.727C411.038 304.067 411.215 304.331 411.443 304.509C411.671 304.688 411.936 304.773 412.233 304.773C412.569 304.773 412.859 304.671 413.087 304.45C413.321 304.237 413.492 303.956 413.593 303.616H413.637V304.696H414.674V298.607H413.606V302.136C413.606 302.442 413.561 302.698 413.467 302.902ZM416.837 306.984V303.735H416.882C416.938 303.888 417.021 304.041 417.122 304.203C417.229 304.373 417.362 304.509 417.533 304.628C417.704 304.747 417.919 304.807 418.178 304.807C418.538 304.807 418.855 304.679 419.139 304.433C419.418 304.186 419.639 303.829 419.803 303.361C419.968 302.893 420.05 302.323 420.05 301.66C420.05 300.98 419.961 300.41 419.797 299.942C419.633 299.474 419.405 299.125 419.127 298.887C418.842 298.649 418.526 298.522 418.178 298.522C417.912 298.522 417.697 298.59 417.52 298.709C417.35 298.828 417.217 298.972 417.116 299.142C417.014 299.304 416.938 299.466 416.882 299.61H416.818V298.607H415.769V306.984H416.837ZM416.938 300.622C417.021 300.333 417.141 300.103 417.299 299.942C417.463 299.78 417.653 299.704 417.881 299.704C418.121 299.704 418.317 299.789 418.482 299.95C418.64 300.121 418.76 300.35 418.836 300.639C418.918 300.937 418.962 301.269 418.962 301.651C418.962 302.034 418.918 302.374 418.836 302.672C418.753 302.961 418.633 303.199 418.475 303.369C418.317 303.54 418.121 303.625 417.881 303.625C417.659 303.625 417.463 303.54 417.305 303.378C417.147 303.216 417.027 302.978 416.945 302.689C416.863 302.391 416.818 302.043 416.818 301.651C416.818 301.26 416.856 300.911 416.938 300.622Z" fill="#0A151B"/>
<path d="M366.178 287.154C371.521 287.154 375.86 292.989 375.86 300.176C375.86 307.362 371.521 313.197 366.178 313.197C360.834 313.197 356.496 307.362 356.496 300.176C356.496 292.989 360.834 287.154 366.178 287.154Z" fill="#FB512F"/>
<path d="M367.861 298.042C367.734 297.744 367.582 297.498 367.393 297.293C367.203 297.089 366.988 296.936 366.747 296.826C366.507 296.724 366.248 296.664 365.97 296.664C365.527 296.664 365.135 296.809 364.787 297.081C364.439 297.353 364.167 297.753 363.965 298.272C363.763 298.79 363.661 299.411 363.661 300.143C363.661 300.874 363.763 301.495 363.965 302.014C364.161 302.533 364.439 302.932 364.781 303.205C365.129 303.485 365.527 303.621 365.97 303.621C366.267 303.621 366.539 303.562 366.785 303.443C367.032 303.324 367.247 303.153 367.43 302.941C367.614 302.72 367.759 302.473 367.873 302.192C367.987 301.912 368.063 301.606 368.101 301.291L367.178 301.282C367.152 301.478 367.102 301.657 367.026 301.81C366.956 301.963 366.868 302.09 366.76 302.201C366.653 302.303 366.532 302.388 366.406 302.439C366.273 302.49 366.128 302.524 365.982 302.524C365.71 302.524 365.464 302.431 365.255 302.252C365.046 302.073 364.882 301.801 364.762 301.452C364.642 301.095 364.578 300.661 364.578 300.143C364.578 299.632 364.642 299.207 364.762 298.85C364.876 298.501 365.046 298.229 365.255 298.042C365.464 297.863 365.71 297.77 365.982 297.77C366.134 297.77 366.28 297.795 366.412 297.855C366.545 297.906 366.665 297.991 366.773 298.101C366.874 298.212 366.963 298.348 367.032 298.501C367.102 298.663 367.152 298.841 367.178 299.046H368.101C368.063 298.671 367.981 298.331 367.861 298.042Z" fill="#FAFAF6"/>
<path d="M332.591 345.221C332.591 350.337 329.502 354.491 325.698 354.491H296.923C293.119 354.491 290.03 350.337 290.03 345.221C290.03 340.104 293.119 335.95 296.923 335.95H325.698C329.502 335.95 332.591 340.104 332.591 345.221Z" fill="#D7D7D5"/>
<path d="M296.383 348.711V342.111H297.451C297.736 342.111 297.964 342.179 298.134 342.307C298.312 342.426 298.438 342.604 298.514 342.825C298.596 343.046 298.64 343.302 298.64 343.591C298.64 343.871 298.596 344.127 298.514 344.356C298.438 344.577 298.312 344.756 298.134 344.884C297.964 345.011 297.742 345.079 297.464 345.079H296.161V346.049H297.54C297.976 346.049 298.337 345.938 298.628 345.726C298.919 345.504 299.134 345.215 299.279 344.841C299.418 344.475 299.494 344.05 299.494 343.591C299.494 343.123 299.425 342.706 299.279 342.332C299.134 341.966 298.919 341.669 298.634 341.456C298.343 341.243 297.983 341.133 297.54 341.133H295.535V348.711H296.383ZM301.246 348.711V345.241C301.246 344.994 301.284 344.773 301.372 344.577C301.461 344.39 301.581 344.237 301.733 344.127C301.885 344.016 302.055 343.957 302.251 343.957C302.34 343.957 302.422 343.965 302.504 343.982C302.593 343.999 302.65 344.016 302.681 344.025V342.97C302.644 342.961 302.587 342.953 302.517 342.953C302.447 342.944 302.384 342.944 302.334 342.944C302.087 342.944 301.866 343.029 301.67 343.208C301.474 343.387 301.334 343.625 301.259 343.931H301.214V343.029H300.417V348.711H301.246ZM306.217 348.456C306.508 348.218 306.735 347.877 306.9 347.435C307.064 346.993 307.146 346.483 307.146 345.896C307.146 345.309 307.064 344.79 306.9 344.348C306.735 343.905 306.508 343.565 306.217 343.319C305.919 343.072 305.572 342.953 305.179 342.953C304.781 342.953 304.433 343.072 304.142 343.319C303.845 343.565 303.617 343.905 303.453 344.348C303.289 344.79 303.206 345.309 303.206 345.896C303.206 346.483 303.289 346.993 303.453 347.435C303.617 347.877 303.845 348.218 304.142 348.456C304.433 348.702 304.781 348.821 305.179 348.821C305.572 348.821 305.919 348.702 306.217 348.456ZM304.534 347.622C304.37 347.444 304.244 347.197 304.161 346.891C304.079 346.593 304.035 346.253 304.035 345.896C304.035 345.53 304.079 345.198 304.161 344.892C304.244 344.586 304.37 344.339 304.534 344.161C304.705 343.974 304.92 343.88 305.179 343.88C305.439 343.88 305.647 343.974 305.818 344.161C305.989 344.339 306.109 344.586 306.191 344.892C306.274 345.198 306.318 345.53 306.318 345.896C306.318 346.253 306.274 346.593 306.191 346.891C306.109 347.197 305.989 347.444 305.818 347.622C305.647 347.809 305.439 347.894 305.179 347.894C304.92 347.894 304.705 347.809 304.534 347.622ZM310.707 343.353C310.447 343.089 310.087 342.953 309.632 342.953C309.315 342.953 309.031 343.021 308.784 343.166C308.538 343.31 308.348 343.506 308.209 343.761C308.07 344.008 308 344.305 308 344.637C308 345.045 308.095 345.377 308.285 345.641C308.468 345.904 308.759 346.1 309.157 346.219L309.872 346.432C310.074 346.491 310.22 346.585 310.321 346.704C310.416 346.823 310.466 346.976 310.466 347.146C310.466 347.367 310.384 347.554 310.226 347.707C310.062 347.86 309.847 347.937 309.581 347.937C309.328 347.937 309.132 347.86 308.974 347.724C308.822 347.58 308.721 347.367 308.67 347.086L307.874 347.257C307.943 347.758 308.127 348.141 308.424 348.413C308.727 348.685 309.113 348.821 309.581 348.821C309.923 348.821 310.226 348.753 310.485 348.6C310.745 348.447 310.947 348.243 311.093 347.979C311.238 347.707 311.314 347.41 311.314 347.069C311.314 346.67 311.219 346.338 311.023 346.091C310.833 345.836 310.542 345.649 310.157 345.53L309.486 345.326C309.252 345.249 309.081 345.156 308.98 345.037C308.873 344.918 308.822 344.765 308.822 344.577C308.822 344.356 308.898 344.178 309.056 344.042C309.214 343.897 309.404 343.829 309.638 343.829C309.809 343.829 309.954 343.871 310.068 343.94C310.182 344.016 310.27 344.11 310.334 344.229C310.403 344.339 310.454 344.467 310.485 344.594L311.232 344.416C311.143 343.974 310.972 343.616 310.707 343.353ZM313.034 350.846V347.826H313.085C313.135 347.945 313.205 348.082 313.3 348.243C313.388 348.396 313.515 348.532 313.679 348.651C313.843 348.762 314.052 348.821 314.305 348.821C314.647 348.821 314.95 348.702 315.216 348.473C315.481 348.235 315.696 347.894 315.848 347.461C316 347.018 316.076 346.491 316.076 345.879C316.076 345.266 316 344.739 315.842 344.305C315.69 343.871 315.481 343.531 315.216 343.302C314.944 343.072 314.64 342.953 314.299 342.953C314.04 342.953 313.825 343.012 313.666 343.132C313.508 343.251 313.382 343.387 313.293 343.54C313.205 343.693 313.135 343.829 313.085 343.948H313.015V343.029H312.212V350.846H313.034ZM313.148 344.833C313.23 344.535 313.357 344.305 313.521 344.144C313.685 343.974 313.888 343.897 314.122 343.897C314.368 343.897 314.577 343.982 314.741 344.152C314.912 344.322 315.032 344.56 315.121 344.858C315.203 345.156 315.241 345.496 315.241 345.87C315.241 346.253 315.203 346.593 315.115 346.891C315.032 347.197 314.906 347.435 314.741 347.614C314.577 347.792 314.368 347.877 314.122 347.877C313.888 347.877 313.685 347.792 313.521 347.622C313.363 347.452 313.236 347.223 313.148 346.916C313.066 346.619 313.021 346.27 313.021 345.87C313.021 345.479 313.066 345.13 313.148 344.833ZM319.643 348.634C319.883 348.507 320.085 348.328 320.243 348.099C320.402 347.869 320.515 347.597 320.579 347.291L319.801 347.103C319.75 347.282 319.681 347.427 319.586 347.546C319.491 347.673 319.377 347.758 319.251 347.818C319.124 347.877 318.979 347.911 318.827 347.911C318.587 347.911 318.378 347.843 318.194 347.699C318.017 347.563 317.878 347.359 317.777 347.095C317.676 346.831 317.625 346.508 317.625 346.125V345.479C317.625 345.19 317.67 344.926 317.764 344.688C317.859 344.441 317.992 344.246 318.163 344.093C318.334 343.94 318.536 343.871 318.764 343.871C318.979 343.871 319.162 343.931 319.32 344.067C319.478 344.195 319.605 344.373 319.693 344.594C319.782 344.824 319.826 345.079 319.826 345.377H317.271V346.202H320.629V345.811C320.629 345.292 320.579 344.858 320.477 344.492C320.376 344.135 320.231 343.837 320.054 343.616C319.877 343.387 319.674 343.217 319.453 343.115C319.232 343.004 318.998 342.953 318.757 342.953C318.365 342.953 318.024 343.08 317.733 343.327C317.442 343.574 317.214 343.923 317.05 344.365C316.885 344.807 316.803 345.326 316.803 345.904C316.803 346.5 316.885 347.01 317.05 347.444C317.214 347.886 317.442 348.226 317.745 348.464C318.043 348.702 318.403 348.821 318.814 348.821C319.124 348.821 319.402 348.762 319.643 348.634ZM324.202 348.575C324.449 348.413 324.645 348.184 324.797 347.894C324.942 347.605 325.031 347.282 325.062 346.916H324.259C324.228 347.12 324.164 347.291 324.076 347.435C323.994 347.58 323.886 347.699 323.76 347.775C323.627 347.852 323.488 347.886 323.33 347.886C323.102 347.886 322.9 347.809 322.722 347.639C322.552 347.478 322.419 347.24 322.33 346.942C322.236 346.644 322.185 346.287 322.185 345.87C322.185 345.462 322.236 345.113 322.33 344.816C322.425 344.518 322.558 344.288 322.729 344.127C322.9 343.965 323.102 343.888 323.33 343.888C323.595 343.888 323.804 343.982 323.962 344.178C324.12 344.365 324.215 344.594 324.259 344.867H325.062C325.031 344.484 324.942 344.144 324.784 343.863C324.632 343.574 324.43 343.353 324.177 343.191C323.924 343.029 323.639 342.953 323.317 342.953C322.919 342.953 322.577 343.08 322.28 343.327C321.989 343.574 321.761 343.923 321.597 344.365C321.439 344.807 321.356 345.317 321.356 345.896C321.356 346.466 321.432 346.967 321.59 347.41C321.749 347.852 321.976 348.201 322.273 348.447C322.564 348.702 322.919 348.821 323.323 348.821C323.658 348.821 323.949 348.745 324.202 348.575ZM325.613 343.029V343.914H327.915V343.029H325.613ZM326.226 347.274C326.226 347.614 326.289 347.903 326.403 348.124C326.517 348.354 326.669 348.524 326.858 348.626C327.042 348.736 327.244 348.787 327.459 348.787C327.592 348.779 327.706 348.77 327.788 348.745C327.877 348.719 327.946 348.694 327.997 348.668L327.845 347.75C327.82 347.758 327.782 347.767 327.731 347.784C327.681 347.792 327.624 347.801 327.56 347.801C327.466 347.801 327.383 347.784 327.307 347.741C327.232 347.707 327.168 347.631 327.124 347.529C327.073 347.418 327.048 347.257 327.048 347.044V341.669H326.226V347.274Z" fill="#0A151B"/>
<path d="M227.197 348.864C227.634 348.533 227.969 348.073 228.203 347.461C228.437 346.857 228.551 346.126 228.551 345.284C228.551 344.433 228.437 343.71 228.203 343.106C227.975 342.502 227.64 342.035 227.21 341.711C226.78 341.388 226.261 341.227 225.661 341.227H223.574V349.349H225.623C226.236 349.349 226.761 349.187 227.197 348.864ZM224.668 342.502H225.604C226.008 342.502 226.35 342.604 226.628 342.809C226.906 343.013 227.115 343.319 227.254 343.736C227.393 344.144 227.469 344.663 227.469 345.284C227.469 345.904 227.393 346.423 227.254 346.831C227.115 347.248 226.9 347.554 226.622 347.767C226.337 347.971 225.989 348.073 225.566 348.073H224.668V342.502ZM232.484 349.255C232.756 349.111 232.984 348.907 233.161 348.643C233.338 348.379 233.452 348.073 233.515 347.716L232.522 347.563C232.472 347.733 232.402 347.878 232.314 347.997C232.219 348.116 232.111 348.201 231.985 348.26C231.858 348.32 231.719 348.345 231.561 348.345C231.333 348.345 231.131 348.286 230.954 348.15C230.783 348.014 230.65 347.827 230.549 347.571C230.454 347.316 230.404 347.019 230.404 346.661V345.819C230.41 345.547 230.454 345.292 230.549 345.062C230.638 344.833 230.764 344.654 230.929 344.51C231.099 344.365 231.289 344.297 231.504 344.297C231.713 344.297 231.89 344.356 232.042 344.484C232.2 344.612 232.32 344.773 232.408 344.994C232.491 345.207 232.535 345.454 232.541 345.726H229.847V346.695H233.559V346.253C233.559 345.726 233.509 345.258 233.395 344.875C233.287 344.484 233.136 344.169 232.946 343.914C232.75 343.668 232.535 343.48 232.282 343.361C232.035 343.242 231.77 343.174 231.491 343.174C231.061 343.174 230.682 343.31 230.359 343.574C230.043 343.846 229.79 344.212 229.613 344.688C229.436 345.164 229.348 345.709 229.348 346.338C229.348 346.976 229.436 347.529 229.613 347.997C229.79 348.464 230.043 348.83 230.372 349.085C230.701 349.341 231.093 349.468 231.548 349.468C231.902 349.468 232.212 349.4 232.484 349.255ZM234.464 341.227V349.349H235.532V341.227H234.464ZM236.627 341.227V349.349H237.695V341.227H236.627Z" fill="#0A151B"/>
<path d="M206.179 331.806C211.522 331.806 215.861 337.641 215.861 344.827C215.861 352.014 211.522 357.848 206.179 357.848C200.835 357.848 196.496 352.014 196.496 344.827C196.496 337.641 200.835 331.806 206.179 331.806Z" fill="#21837F"/>
<path d="M206.812 347.771C207.172 347.499 207.457 347.116 207.646 346.606C207.843 346.104 207.937 345.492 207.937 344.786C207.937 344.088 207.843 343.484 207.646 342.983C207.457 342.472 207.178 342.09 206.818 341.817C206.458 341.545 206.034 341.409 205.534 341.409H203.789V348.179H205.496C206.009 348.179 206.445 348.043 206.812 347.771ZM204.706 342.472H205.477C205.819 342.472 206.103 342.557 206.337 342.727C206.565 342.898 206.742 343.153 206.856 343.501C206.976 343.842 207.033 344.275 207.033 344.786C207.033 345.305 206.976 345.738 206.856 346.079C206.742 346.427 206.565 346.682 206.331 346.861C206.097 347.031 205.806 347.116 205.452 347.116H204.706V342.472Z" fill="#FAFAF6"/>
<path d="M179.284 335.957C178.95 335.957 178.629 336.137 178.393 336.456C178.157 336.776 178.025 337.21 178.025 337.663V353.053C178.025 353.417 178.315 353.647 178.551 353.469L183.345 349.862C183.56 349.7 183.822 349.7 184.037 349.862L188.83 353.469C189.066 353.647 189.357 353.417 189.357 353.053V337.663C189.357 337.21 189.225 336.776 188.988 336.456C188.752 336.137 188.432 335.957 188.098 335.957H179.284Z" stroke="url(#paint0_linear_2_1944)" stroke-width="1.12"/>
<path d="M183.849 339.355V346.479" stroke="url(#paint1_linear_2_1944)"/>
<path d="M181.082 342.758H186.379" stroke="url(#paint2_linear_2_1944)"/>
<path d="M332.591 300.569C332.591 305.686 329.502 309.84 325.698 309.84H296.923C293.119 309.84 290.03 305.686 290.03 300.569C290.03 295.453 293.119 291.299 296.923 291.299H325.698C329.502 291.299 332.591 295.453 332.591 300.569Z" fill="#D7D7D5"/>
<path d="M296.383 304.059V297.459H297.451C297.736 297.459 297.964 297.527 298.134 297.654C298.312 297.773 298.438 297.952 298.514 298.173C298.596 298.394 298.64 298.649 298.64 298.938C298.64 299.219 298.596 299.474 298.514 299.704C298.438 299.925 298.312 300.104 298.134 300.231C297.964 300.359 297.742 300.427 297.464 300.427H296.161V301.396H297.54C297.976 301.396 298.337 301.286 298.628 301.073C298.919 300.852 299.134 300.563 299.279 300.189C299.418 299.823 299.494 299.398 299.494 298.938C299.494 298.471 299.425 298.054 299.279 297.68C299.134 297.314 298.919 297.016 298.634 296.804C298.343 296.591 297.983 296.48 297.54 296.48H295.535V304.059H296.383ZM301.246 304.059V300.588C301.246 300.342 301.284 300.121 301.372 299.925C301.461 299.738 301.581 299.585 301.733 299.474C301.885 299.364 302.055 299.304 302.251 299.304C302.34 299.304 302.422 299.313 302.504 299.33C302.593 299.347 302.65 299.364 302.681 299.372V298.318C302.644 298.309 302.587 298.301 302.517 298.301C302.447 298.292 302.384 298.292 302.334 298.292C302.087 298.292 301.866 298.377 301.67 298.556C301.474 298.734 301.334 298.972 301.259 299.279H301.214V298.377H300.417V304.059H301.246ZM306.217 303.803C306.508 303.565 306.735 303.225 306.9 302.783C307.064 302.341 307.146 301.83 307.146 301.243C307.146 300.657 307.064 300.138 306.9 299.695C306.735 299.253 306.508 298.913 306.217 298.666C305.919 298.42 305.572 298.301 305.179 298.301C304.781 298.301 304.433 298.42 304.142 298.666C303.845 298.913 303.617 299.253 303.453 299.695C303.289 300.138 303.206 300.657 303.206 301.243C303.206 301.83 303.289 302.341 303.453 302.783C303.617 303.225 303.845 303.565 304.142 303.803C304.433 304.05 304.781 304.169 305.179 304.169C305.572 304.169 305.919 304.05 306.217 303.803ZM304.534 302.97C304.37 302.791 304.244 302.545 304.161 302.238C304.079 301.941 304.035 301.601 304.035 301.243C304.035 300.878 304.079 300.546 304.161 300.24C304.244 299.934 304.37 299.687 304.534 299.508C304.705 299.321 304.92 299.228 305.179 299.228C305.439 299.228 305.647 299.321 305.818 299.508C305.989 299.687 306.109 299.934 306.191 300.24C306.274 300.546 306.318 300.878 306.318 301.243C306.318 301.601 306.274 301.941 306.191 302.238C306.109 302.545 305.989 302.791 305.818 302.97C305.647 303.157 305.439 303.242 305.179 303.242C304.92 303.242 304.705 303.157 304.534 302.97ZM310.707 298.7C310.447 298.437 310.087 298.301 309.632 298.301C309.315 298.301 309.031 298.369 308.784 298.513C308.538 298.658 308.348 298.853 308.209 299.109C308.07 299.355 308 299.653 308 299.985C308 300.393 308.095 300.725 308.285 300.988C308.468 301.252 308.759 301.447 309.157 301.567L309.872 301.779C310.074 301.839 310.22 301.932 310.321 302.051C310.416 302.17 310.466 302.324 310.466 302.494C310.466 302.715 310.384 302.902 310.226 303.055C310.062 303.208 309.847 303.285 309.581 303.285C309.328 303.285 309.132 303.208 308.974 303.072C308.822 302.927 308.721 302.715 308.67 302.434L307.874 302.604C307.943 303.106 308.127 303.489 308.424 303.761C308.727 304.033 309.113 304.169 309.581 304.169C309.923 304.169 310.226 304.101 310.485 303.948C310.745 303.795 310.947 303.591 311.093 303.327C311.238 303.055 311.314 302.757 311.314 302.417C311.314 302.017 311.219 301.686 311.023 301.439C310.833 301.184 310.542 300.997 310.157 300.878L309.486 300.674C309.252 300.597 309.081 300.503 308.98 300.384C308.873 300.265 308.822 300.112 308.822 299.925C308.822 299.704 308.898 299.525 309.056 299.389C309.214 299.245 309.404 299.177 309.638 299.177C309.809 299.177 309.954 299.219 310.068 299.287C310.182 299.364 310.27 299.457 310.334 299.576C310.403 299.687 310.454 299.814 310.485 299.942L311.232 299.763C311.143 299.321 310.972 298.964 310.707 298.7ZM313.034 306.193V303.174H313.085C313.135 303.293 313.205 303.429 313.3 303.591C313.388 303.744 313.515 303.88 313.679 303.999C313.843 304.11 314.052 304.169 314.305 304.169C314.647 304.169 314.95 304.05 315.216 303.82C315.481 303.582 315.696 303.242 315.848 302.808C316 302.366 316.076 301.839 316.076 301.226C316.076 300.614 316 300.087 315.842 299.653C315.69 299.219 315.481 298.879 315.216 298.649C314.944 298.42 314.64 298.301 314.299 298.301C314.04 298.301 313.825 298.36 313.666 298.479C313.508 298.598 313.382 298.734 313.293 298.887C313.205 299.041 313.135 299.177 313.085 299.296H313.015V298.377H312.212V306.193H313.034ZM313.148 300.18C313.23 299.883 313.357 299.653 313.521 299.491C313.685 299.321 313.888 299.245 314.122 299.245C314.368 299.245 314.577 299.33 314.741 299.5C314.912 299.67 315.032 299.908 315.121 300.206C315.203 300.503 315.241 300.844 315.241 301.218C315.241 301.601 315.203 301.941 315.115 302.238C315.032 302.545 314.906 302.783 314.741 302.961C314.577 303.14 314.368 303.225 314.122 303.225C313.888 303.225 313.685 303.14 313.521 302.97C313.363 302.8 313.236 302.57 313.148 302.264C313.066 301.966 313.021 301.618 313.021 301.218C313.021 300.827 313.066 300.478 313.148 300.18ZM319.643 303.982C319.883 303.854 320.085 303.676 320.243 303.446C320.402 303.217 320.515 302.944 320.579 302.638L319.801 302.451C319.75 302.63 319.681 302.774 319.586 302.893C319.491 303.021 319.377 303.106 319.251 303.166C319.124 303.225 318.979 303.259 318.827 303.259C318.587 303.259 318.378 303.191 318.194 303.046C318.017 302.91 317.878 302.706 317.777 302.443C317.676 302.179 317.625 301.856 317.625 301.473V300.827C317.625 300.537 317.67 300.274 317.764 300.036C317.859 299.789 317.992 299.593 318.163 299.44C318.334 299.287 318.536 299.219 318.764 299.219C318.979 299.219 319.162 299.279 319.32 299.415C319.478 299.542 319.605 299.721 319.693 299.942C319.782 300.172 319.826 300.427 319.826 300.725H317.271V301.55H320.629V301.158C320.629 300.639 320.579 300.206 320.477 299.84C320.376 299.483 320.231 299.185 320.054 298.964C319.877 298.734 319.674 298.564 319.453 298.462C319.232 298.352 318.998 298.301 318.757 298.301C318.365 298.301 318.024 298.428 317.733 298.675C317.442 298.921 317.214 299.27 317.05 299.712C316.885 300.155 316.803 300.674 316.803 301.252C316.803 301.847 316.885 302.358 317.05 302.791C317.214 303.234 317.442 303.574 317.745 303.812C318.043 304.05 318.403 304.169 318.814 304.169C319.124 304.169 319.402 304.11 319.643 303.982ZM324.202 303.922C324.449 303.761 324.645 303.531 324.797 303.242C324.942 302.953 325.031 302.63 325.062 302.264H324.259C324.228 302.468 324.164 302.638 324.076 302.783C323.994 302.927 323.886 303.046 323.76 303.123C323.627 303.2 323.488 303.234 323.33 303.234C323.102 303.234 322.9 303.157 322.722 302.987C322.552 302.825 322.419 302.587 322.33 302.289C322.236 301.992 322.185 301.635 322.185 301.218C322.185 300.81 322.236 300.461 322.33 300.163C322.425 299.866 322.558 299.636 322.729 299.474C322.9 299.313 323.102 299.236 323.33 299.236C323.595 299.236 323.804 299.33 323.962 299.525C324.12 299.712 324.215 299.942 324.259 300.214H325.062C325.031 299.832 324.942 299.491 324.784 299.211C324.632 298.921 324.43 298.7 324.177 298.539C323.924 298.377 323.639 298.301 323.317 298.301C322.919 298.301 322.577 298.428 322.28 298.675C321.989 298.921 321.761 299.27 321.597 299.712C321.439 300.155 321.356 300.665 321.356 301.243C321.356 301.813 321.432 302.315 321.59 302.757C321.749 303.2 321.976 303.548 322.273 303.795C322.564 304.05 322.919 304.169 323.323 304.169C323.658 304.169 323.949 304.093 324.202 303.922ZM325.613 298.377V299.262H327.915V298.377H325.613ZM326.226 302.621C326.226 302.961 326.289 303.251 326.403 303.472C326.517 303.701 326.669 303.871 326.858 303.974C327.042 304.084 327.244 304.135 327.459 304.135C327.592 304.127 327.706 304.118 327.788 304.093C327.877 304.067 327.946 304.042 327.997 304.016L327.845 303.097C327.82 303.106 327.782 303.114 327.731 303.132C327.681 303.14 327.624 303.149 327.56 303.149C327.466 303.149 327.383 303.132 327.307 303.089C327.232 303.055 327.168 302.978 327.124 302.876C327.073 302.766 327.048 302.604 327.048 302.392V297.016H326.226V302.621Z" fill="#0A151B"/>
<path d="M228.456 298.105C228.31 297.756 228.121 297.458 227.899 297.212C227.672 296.965 227.412 296.778 227.128 296.65C226.837 296.531 226.521 296.463 226.185 296.463C225.661 296.463 225.186 296.625 224.769 296.957C224.358 297.288 224.029 297.765 223.782 298.385C223.542 299.015 223.422 299.763 223.422 300.639C223.422 301.507 223.542 302.255 223.782 302.876C224.023 303.506 224.352 303.982 224.769 304.314C225.18 304.645 225.654 304.807 226.185 304.807C226.546 304.807 226.875 304.739 227.172 304.594C227.463 304.45 227.722 304.246 227.944 303.99C228.165 303.727 228.342 303.429 228.475 303.097C228.614 302.757 228.702 302.391 228.747 302.009L227.64 302C227.608 302.238 227.545 302.451 227.457 302.638C227.374 302.817 227.267 302.978 227.14 303.106C227.014 303.225 226.868 303.327 226.71 303.386C226.552 303.455 226.382 303.489 226.204 303.489C225.876 303.489 225.585 303.378 225.332 303.165C225.079 302.944 224.883 302.63 224.737 302.204C224.592 301.779 224.522 301.26 224.522 300.639C224.522 300.027 224.592 299.508 224.737 299.083C224.883 298.658 225.079 298.334 225.332 298.113C225.585 297.892 225.876 297.782 226.204 297.782C226.388 297.782 226.565 297.816 226.723 297.884C226.881 297.952 227.027 298.054 227.153 298.181C227.28 298.317 227.381 298.479 227.469 298.666C227.551 298.853 227.608 299.074 227.64 299.313H228.747C228.696 298.862 228.601 298.462 228.456 298.105ZM230.77 304.696V298.607H229.702V304.696H230.77ZM230.676 297.509C230.796 297.356 230.853 297.178 230.853 296.965C230.853 296.744 230.796 296.565 230.676 296.412C230.555 296.259 230.41 296.183 230.239 296.183C230.068 296.183 229.923 296.259 229.803 296.412C229.683 296.565 229.619 296.744 229.619 296.965C229.619 297.178 229.683 297.356 229.803 297.509C229.923 297.663 230.068 297.739 230.239 297.739C230.41 297.739 230.555 297.663 230.676 297.509ZM231.523 298.607V299.712H234.129V298.607H231.523ZM232.168 303.106C232.168 303.48 232.225 303.803 232.351 304.05C232.478 304.305 232.649 304.492 232.857 304.611C233.072 304.739 233.313 304.79 233.585 304.781C233.736 304.773 233.863 304.756 233.97 304.722C234.072 304.696 234.154 304.662 234.211 304.637L234.034 303.514C234.002 303.523 233.958 303.54 233.901 303.548C233.844 303.565 233.787 303.574 233.717 303.574C233.629 303.574 233.547 303.548 233.477 303.514C233.401 303.48 233.344 303.412 233.3 303.31C233.256 303.208 233.237 303.055 233.237 302.868V297.144H232.168V303.106ZM236.089 304.696V298.607H235.02V304.696H236.089ZM235.994 297.509C236.114 297.356 236.178 297.178 236.178 296.965C236.178 296.744 236.114 296.565 235.994 296.412C235.874 296.259 235.729 296.183 235.558 296.183C235.387 296.183 235.242 296.259 235.121 296.412C235.001 296.565 234.938 296.744 234.938 296.965C234.938 297.178 235.001 297.356 235.121 297.509C235.242 297.663 235.387 297.739 235.558 297.739C235.729 297.739 235.874 297.663 235.994 297.509ZM240.25 306.831C240.566 306.661 240.819 306.414 241.003 306.074C241.193 305.734 241.281 305.309 241.281 304.798V298.607H240.231V299.61H240.168C240.117 299.466 240.042 299.304 239.94 299.142C239.833 298.972 239.7 298.828 239.529 298.709C239.352 298.59 239.137 298.522 238.872 298.522C238.524 298.522 238.208 298.649 237.923 298.887C237.638 299.125 237.417 299.474 237.253 299.933C237.082 300.401 237 300.963 237 301.634C237 302.298 237.082 302.842 237.253 303.284C237.417 303.727 237.638 304.058 237.923 304.28C238.208 304.501 238.517 304.611 238.865 304.611C239.125 304.611 239.346 304.56 239.517 304.45C239.687 304.348 239.827 304.211 239.928 304.058C240.035 303.905 240.117 303.752 240.168 303.599H240.225V304.756C240.225 305.19 240.124 305.504 239.928 305.7C239.725 305.896 239.479 305.998 239.175 305.998C238.96 305.998 238.783 305.955 238.644 305.879C238.498 305.802 238.391 305.708 238.309 305.589C238.227 305.479 238.163 305.36 238.119 305.258L237.158 305.572C237.221 305.844 237.341 306.1 237.506 306.329C237.67 306.559 237.891 306.738 238.17 306.874C238.442 307.018 238.77 307.086 239.156 307.086C239.561 307.086 239.928 307.001 240.25 306.831ZM238.574 303.25C238.416 303.097 238.296 302.876 238.214 302.604C238.132 302.323 238.087 301.992 238.087 301.626C238.087 301.252 238.132 300.929 238.208 300.639C238.29 300.35 238.41 300.121 238.568 299.95C238.726 299.789 238.928 299.704 239.162 299.704C239.396 299.704 239.593 299.78 239.751 299.942C239.909 300.103 240.029 300.325 240.105 300.614C240.187 300.903 240.231 301.243 240.231 301.626C240.231 302.009 240.187 302.349 240.105 302.621C240.023 302.902 239.902 303.114 239.744 303.259C239.586 303.412 239.39 303.48 239.162 303.48C238.928 303.48 238.732 303.404 238.574 303.25ZM243.45 304.696V301.116C243.45 300.852 243.494 300.631 243.583 300.427C243.672 300.231 243.792 300.078 243.943 299.967C244.102 299.848 244.272 299.797 244.468 299.797C244.557 299.797 244.652 299.806 244.747 299.823C244.848 299.84 244.917 299.857 244.962 299.874V298.556C244.911 298.547 244.854 298.53 244.778 298.53C244.702 298.522 244.639 298.522 244.582 298.522C244.323 298.522 244.089 298.615 243.887 298.802C243.684 298.998 243.545 299.27 243.463 299.619H243.412V298.607H242.381V304.696H243.45ZM248.8 304.424C249.123 304.16 249.376 303.795 249.553 303.327C249.73 302.851 249.819 302.306 249.819 301.677C249.819 301.048 249.73 300.495 249.553 300.018C249.376 299.551 249.123 299.176 248.8 298.921C248.478 298.658 248.092 298.522 247.649 298.522C247.207 298.522 246.821 298.658 246.498 298.921C246.176 299.176 245.923 299.551 245.746 300.018C245.569 300.495 245.48 301.048 245.48 301.677C245.48 302.306 245.569 302.851 245.746 303.327C245.923 303.795 246.176 304.16 246.498 304.424C246.821 304.688 247.207 304.815 247.649 304.815C248.092 304.815 248.478 304.688 248.8 304.424ZM247.042 303.395C246.884 303.216 246.758 302.978 246.682 302.681C246.6 302.374 246.562 302.043 246.562 301.668C246.562 301.294 246.6 300.963 246.682 300.656C246.758 300.359 246.884 300.112 247.042 299.933C247.207 299.755 247.409 299.661 247.656 299.661C247.896 299.661 248.098 299.755 248.256 299.933C248.421 300.112 248.541 300.359 248.617 300.656C248.699 300.963 248.737 301.294 248.737 301.668C248.737 302.043 248.699 302.374 248.617 302.681C248.541 302.978 248.421 303.216 248.256 303.395C248.098 303.574 247.896 303.667 247.656 303.667C247.409 303.667 247.207 303.574 247.042 303.395ZM253.468 302.902C253.373 303.114 253.246 303.267 253.101 303.369C252.955 303.472 252.804 303.523 252.645 303.523C252.386 303.523 252.184 303.412 252.026 303.182C251.868 302.953 251.792 302.647 251.792 302.264V298.607H250.723V302.485C250.723 302.97 250.786 303.386 250.913 303.727C251.039 304.067 251.216 304.331 251.444 304.509C251.671 304.688 251.937 304.773 252.234 304.773C252.57 304.773 252.86 304.671 253.088 304.45C253.322 304.237 253.493 303.956 253.594 303.616H253.638V304.696H254.675V298.607H253.607V302.136C253.607 302.442 253.562 302.698 253.468 302.902ZM256.838 306.984V303.735H256.883C256.939 303.888 257.022 304.041 257.123 304.203C257.23 304.373 257.363 304.509 257.534 304.628C257.705 304.747 257.92 304.807 258.179 304.807C258.539 304.807 258.856 304.679 259.14 304.433C259.418 304.186 259.64 303.829 259.804 303.361C259.969 302.893 260.051 302.323 260.051 301.66C260.051 300.98 259.962 300.41 259.798 299.942C259.633 299.474 259.406 299.125 259.128 298.887C258.843 298.649 258.527 298.522 258.179 298.522C257.913 298.522 257.698 298.59 257.521 298.709C257.351 298.828 257.218 298.972 257.117 299.142C257.015 299.304 256.939 299.466 256.883 299.61H256.819V298.607H255.769V306.984H256.838ZM256.939 300.622C257.022 300.333 257.142 300.103 257.3 299.942C257.464 299.78 257.654 299.704 257.882 299.704C258.122 299.704 258.318 299.789 258.483 299.95C258.641 300.121 258.761 300.35 258.837 300.639C258.919 300.937 258.963 301.269 258.963 301.651C258.963 302.034 258.919 302.374 258.837 302.672C258.754 302.961 258.634 303.199 258.476 303.369C258.318 303.54 258.122 303.625 257.882 303.625C257.66 303.625 257.464 303.54 257.306 303.378C257.148 303.216 257.028 302.978 256.946 302.689C256.864 302.391 256.819 302.043 256.819 301.651C256.819 301.26 256.857 300.911 256.939 300.622Z" fill="#0A151B"/>
<path d="M206.179 287.154C211.522 287.154 215.861 292.989 215.861 300.176C215.861 307.362 211.522 313.197 206.179 313.197C200.835 313.197 196.496 307.362 196.496 300.176C196.496 292.989 200.835 287.154 206.179 287.154Z" fill="#FB512F"/>
<path d="M207.861 298.042C207.735 297.744 207.583 297.498 207.394 297.293C207.204 297.089 206.989 296.936 206.748 296.826C206.508 296.724 206.249 296.664 205.971 296.664C205.528 296.664 205.136 296.809 204.788 297.081C204.44 297.353 204.168 297.753 203.966 298.272C203.763 298.79 203.662 299.411 203.662 300.143C203.662 300.874 203.763 301.495 203.966 302.014C204.162 302.533 204.44 302.932 204.782 303.205C205.129 303.485 205.528 303.621 205.971 303.621C206.268 303.621 206.54 303.562 206.786 303.443C207.033 303.324 207.248 303.153 207.431 302.941C207.615 302.72 207.76 302.473 207.874 302.192C207.988 301.912 208.064 301.606 208.102 301.291L207.178 301.282C207.153 301.478 207.103 301.657 207.027 301.81C206.957 301.963 206.869 302.09 206.761 302.201C206.654 302.303 206.533 302.388 206.407 302.439C206.274 302.49 206.129 302.524 205.983 302.524C205.711 302.524 205.465 302.431 205.256 302.252C205.047 302.073 204.883 301.801 204.763 301.452C204.643 301.095 204.579 300.661 204.579 300.143C204.579 299.632 204.643 299.207 204.763 298.85C204.877 298.501 205.047 298.229 205.256 298.042C205.465 297.863 205.711 297.77 205.983 297.77C206.135 297.77 206.28 297.795 206.413 297.855C206.546 297.906 206.666 297.991 206.774 298.101C206.875 298.212 206.963 298.348 207.033 298.501C207.103 298.663 207.153 298.841 207.178 299.046H208.102C208.064 298.671 207.982 298.331 207.861 298.042Z" fill="#FAFAF6"/>
<path d="M179.284 291.729C178.95 291.729 178.629 291.909 178.393 292.229C178.157 292.549 178.025 292.983 178.025 293.435V308.826C178.025 309.19 178.315 309.419 178.551 309.241L183.345 305.634C183.56 305.472 183.822 305.472 184.037 305.634L188.83 309.241C189.066 309.419 189.357 309.19 189.357 308.826V293.435C189.357 292.983 189.225 292.549 188.988 292.229C188.752 291.909 188.432 291.729 188.098 291.729H179.284Z" stroke="url(#paint3_linear_2_1944)" stroke-width="1.12"/>
<path d="M183.849 295.129V302.252" stroke="url(#paint4_linear_2_1944)"/>
<path d="M181.082 298.531H186.379" stroke="url(#paint5_linear_2_1944)"/>
<path d="M359.971 260.044V252.007H361.135C361.457 252.007 361.717 252.084 361.919 252.22C362.121 252.364 362.273 252.568 362.368 252.823C362.469 253.079 362.514 253.376 362.514 253.708C362.514 254.048 362.469 254.346 362.368 254.601C362.273 254.865 362.121 255.06 361.919 255.213C361.717 255.358 361.457 255.435 361.141 255.435H359.567V256.846H361.318C361.862 256.846 362.318 256.71 362.691 256.438C363.057 256.166 363.342 255.8 363.532 255.324C363.721 254.856 363.816 254.32 363.816 253.708C363.816 253.104 363.721 252.568 363.532 252.101C363.342 251.624 363.064 251.25 362.697 250.978C362.33 250.714 361.875 250.578 361.331 250.578H358.694V260.044H359.971ZM367.111 260.036C367.314 259.925 367.484 259.789 367.623 259.619C367.756 259.449 367.864 259.262 367.94 259.066H367.978V260.044H369.179V255.29C369.179 254.822 369.11 254.422 368.983 254.108C368.857 253.793 368.692 253.546 368.483 253.368C368.275 253.181 368.041 253.053 367.788 252.968C367.541 252.892 367.288 252.849 367.029 252.849C366.662 252.849 366.327 252.926 366.017 253.07C365.714 253.215 365.454 253.436 365.246 253.725C365.037 254.014 364.885 254.38 364.79 254.814L365.954 255.035C366.017 254.788 366.137 254.576 366.314 254.397C366.491 254.218 366.732 254.133 367.035 254.133C367.326 254.133 367.548 254.227 367.699 254.414C367.857 254.61 367.933 254.882 367.933 255.222V255.256C367.933 255.418 367.889 255.528 367.8 255.605C367.712 255.681 367.573 255.741 367.377 255.775C367.187 255.809 366.934 255.851 366.624 255.894C366.371 255.928 366.118 255.987 365.878 256.072C365.644 256.149 365.429 256.268 365.233 256.43C365.043 256.583 364.898 256.795 364.784 257.059C364.676 257.323 364.619 257.654 364.619 258.054C364.619 258.513 364.695 258.905 364.853 259.228C365.005 259.543 365.22 259.781 365.486 259.942C365.751 260.104 366.055 260.189 366.39 260.189C366.662 260.189 366.902 260.138 367.111 260.036ZM366.074 258.726C365.903 258.564 365.821 258.335 365.821 258.02C365.821 257.808 365.865 257.629 365.948 257.493C366.03 257.357 366.15 257.246 366.295 257.17C366.441 257.093 366.605 257.042 366.795 257.008C366.877 256.991 366.972 256.974 367.086 256.948C367.2 256.931 367.314 256.906 367.427 256.88C367.541 256.846 367.642 256.821 367.737 256.778C367.832 256.744 367.895 256.702 367.933 256.659V257.493C367.933 257.756 367.883 258.003 367.788 258.224C367.687 258.445 367.541 258.624 367.358 258.76C367.174 258.888 366.959 258.956 366.713 258.956C366.453 258.956 366.238 258.879 366.074 258.726ZM371.677 260.044V255.868C371.677 255.571 371.728 255.298 371.829 255.069C371.936 254.839 372.076 254.661 372.253 254.525C372.436 254.397 372.638 254.329 372.866 254.329C372.974 254.329 373.081 254.337 373.195 254.363C373.309 254.38 373.391 254.405 373.442 254.422V252.883C373.385 252.875 373.315 252.858 373.227 252.849C373.144 252.84 373.062 252.84 372.999 252.84C372.695 252.84 372.423 252.951 372.189 253.172C371.955 253.402 371.791 253.717 371.696 254.125H371.639V252.943H370.431V260.044H371.677ZM373.872 252.943V254.235H376.907V252.943H373.872ZM374.624 258.182C374.618 258.633 374.694 258.998 374.839 259.296C374.985 259.594 375.181 259.806 375.434 259.951C375.68 260.087 375.965 260.155 376.275 260.138C376.452 260.138 376.597 260.112 376.724 260.078C376.844 260.036 376.939 260.002 377.008 259.976L376.793 258.667C376.762 258.675 376.711 258.692 376.648 258.709C376.578 258.726 376.509 258.735 376.433 258.735C376.332 258.735 376.237 258.709 376.148 258.667C376.066 258.624 375.996 258.539 375.946 258.42C375.895 258.301 375.87 258.131 375.87 257.91V251.242H374.624V258.182ZM379.342 255.009C379.437 254.771 379.563 254.584 379.734 254.456C379.905 254.329 380.094 254.261 380.316 254.261C380.632 254.261 380.885 254.397 381.068 254.669C381.252 254.933 381.34 255.307 381.34 255.783V260.044H382.586V255.52C382.586 254.958 382.517 254.473 382.365 254.074C382.213 253.674 382.004 253.376 381.732 253.164C381.46 252.951 381.144 252.849 380.777 252.849C380.385 252.849 380.05 252.968 379.785 253.198C379.519 253.436 379.323 253.751 379.203 254.15H379.14V252.943H377.951V260.044H379.196V255.885C379.196 255.537 379.241 255.247 379.342 255.009ZM387.285 259.934C387.607 259.764 387.867 259.526 388.069 259.219C388.278 258.913 388.417 258.556 388.487 258.139L387.329 257.961C387.272 258.165 387.19 258.335 387.083 258.471C386.975 258.607 386.849 258.709 386.703 258.777C386.558 258.845 386.393 258.879 386.21 258.879C385.938 258.879 385.704 258.803 385.502 258.65C385.299 258.488 385.141 258.267 385.034 257.969C384.92 257.68 384.863 257.323 384.863 256.906V255.928C384.863 255.605 384.92 255.316 385.027 255.052C385.135 254.78 385.28 254.567 385.476 254.397C385.666 254.235 385.887 254.15 386.147 254.15C386.381 254.15 386.589 254.227 386.773 254.371C386.95 254.516 387.095 254.712 387.196 254.967C387.291 255.213 387.348 255.503 387.348 255.826H384.211V256.948H388.543V256.438C388.543 255.817 388.474 255.281 388.347 254.822C388.221 254.371 388.044 254.006 387.823 253.708C387.595 253.419 387.342 253.198 387.051 253.062C386.76 252.917 386.45 252.849 386.128 252.849C385.622 252.849 385.185 253.002 384.812 253.317C384.439 253.623 384.148 254.057 383.94 254.61C383.731 255.162 383.63 255.8 383.63 256.532C383.63 257.28 383.731 257.927 383.94 258.471C384.142 259.015 384.439 259.441 384.825 259.738C385.204 260.036 385.666 260.18 386.191 260.18C386.602 260.18 386.969 260.095 387.285 259.934ZM390.839 260.044V255.868C390.839 255.571 390.89 255.298 390.991 255.069C391.098 254.839 391.238 254.661 391.415 254.525C391.598 254.397 391.8 254.329 392.028 254.329C392.136 254.329 392.243 254.337 392.357 254.363C392.471 254.38 392.553 254.405 392.604 254.422V252.883C392.547 252.875 392.477 252.858 392.388 252.849C392.306 252.84 392.224 252.84 392.161 252.84C391.857 252.84 391.585 252.951 391.351 253.172C391.117 253.402 390.953 253.717 390.858 254.125H390.801V252.943H389.593V260.044H390.839Z" fill="#0A151B"/>
<path d="M180.855 256.515V260.044H182.126V256.515L184.687 250.578H183.245L181.525 254.763H181.455L179.735 250.578H178.293L180.855 256.515ZM189.183 259.721C189.563 259.423 189.854 258.99 190.062 258.445C190.271 257.893 190.372 257.255 190.372 256.523C190.372 255.783 190.271 255.145 190.062 254.593C189.854 254.04 189.563 253.614 189.183 253.308C188.804 253.002 188.361 252.849 187.843 252.849C187.324 252.849 186.881 253.002 186.502 253.308C186.122 253.614 185.832 254.04 185.623 254.593C185.414 255.145 185.313 255.783 185.313 256.523C185.313 257.255 185.414 257.893 185.623 258.445C185.832 258.99 186.122 259.423 186.502 259.721C186.881 260.027 187.324 260.18 187.843 260.18C188.361 260.18 188.804 260.027 189.183 259.721ZM187.134 258.53C186.945 258.318 186.805 258.046 186.711 257.688C186.622 257.34 186.571 256.948 186.571 256.515C186.571 256.081 186.622 255.69 186.711 255.333C186.805 254.984 186.945 254.703 187.134 254.49C187.324 254.278 187.564 254.176 187.849 254.176C188.127 254.176 188.361 254.278 188.551 254.49C188.741 254.703 188.88 254.984 188.975 255.333C189.063 255.69 189.114 256.081 189.114 256.515C189.114 256.948 189.063 257.34 188.975 257.688C188.88 258.046 188.741 258.318 188.551 258.53C188.361 258.735 188.127 258.845 187.849 258.845C187.564 258.845 187.324 258.735 187.134 258.53ZM194.622 257.961C194.515 258.199 194.369 258.377 194.198 258.496C194.028 258.616 193.85 258.675 193.667 258.675C193.37 258.675 193.13 258.539 192.946 258.275C192.763 258.012 192.668 257.654 192.668 257.204V252.943H191.422V257.467C191.422 258.029 191.498 258.513 191.65 258.913C191.795 259.313 192.004 259.619 192.269 259.823C192.535 260.036 192.839 260.138 193.186 260.138C193.579 260.138 193.914 260.01 194.186 259.755C194.458 259.509 194.654 259.177 194.774 258.786H194.831V260.044H196.032V252.943H194.793V257.059C194.793 257.416 194.736 257.714 194.622 257.961ZM198.562 260.044V255.868C198.562 255.571 198.613 255.298 198.714 255.069C198.815 254.839 198.96 254.661 199.137 254.525C199.321 254.397 199.523 254.329 199.751 254.329C199.852 254.329 199.966 254.337 200.08 254.363C200.194 254.38 200.276 254.405 200.326 254.422V252.883C200.269 252.875 200.2 252.858 200.111 252.849C200.023 252.84 199.947 252.84 199.877 252.84C199.574 252.84 199.308 252.951 199.074 253.172C198.84 253.402 198.669 253.717 198.575 254.125H198.524V252.943H197.316V260.044H198.562ZM207.017 259.857C207.346 259.636 207.605 259.338 207.795 258.947C207.985 258.564 208.092 258.122 208.124 257.62H206.935C206.897 257.876 206.827 258.088 206.733 258.267C206.631 258.445 206.511 258.581 206.366 258.675C206.22 258.769 206.056 258.82 205.873 258.82C205.613 258.82 205.386 258.726 205.196 258.539C205.006 258.352 204.854 258.088 204.753 257.739C204.646 257.391 204.595 256.974 204.595 256.489C204.595 256.013 204.646 255.605 204.753 255.264C204.861 254.924 205.006 254.661 205.202 254.473C205.392 254.295 205.62 254.201 205.873 254.201C206.17 254.201 206.41 254.312 206.594 254.542C206.771 254.771 206.884 255.06 206.935 255.401H208.124C208.099 254.89 207.985 254.439 207.789 254.057C207.593 253.674 207.327 253.376 206.992 253.164C206.663 252.951 206.284 252.849 205.854 252.849C205.341 252.849 204.892 253.002 204.513 253.317C204.14 253.623 203.849 254.057 203.64 254.61C203.431 255.162 203.33 255.8 203.33 256.523C203.33 257.238 203.431 257.876 203.634 258.42C203.836 258.973 204.127 259.406 204.507 259.713C204.88 260.027 205.335 260.18 205.86 260.18C206.303 260.18 206.688 260.078 207.017 259.857ZM212.791 259.721C213.171 259.423 213.461 258.99 213.67 258.445C213.879 257.893 213.98 257.255 213.98 256.523C213.98 255.783 213.879 255.145 213.67 254.593C213.461 254.04 213.171 253.614 212.791 253.308C212.418 253.002 211.969 252.849 211.45 252.849C210.938 252.849 210.489 253.002 210.11 253.308C209.73 253.614 209.439 254.04 209.231 254.593C209.028 255.145 208.921 255.783 208.921 256.523C208.921 257.255 209.028 257.893 209.231 258.445C209.439 258.99 209.73 259.423 210.11 259.721C210.489 260.027 210.938 260.18 211.45 260.18C211.969 260.18 212.418 260.027 212.791 259.721ZM210.748 258.53C210.559 258.318 210.413 258.046 210.325 257.688C210.23 257.34 210.186 256.948 210.186 256.515C210.186 256.081 210.23 255.69 210.325 255.333C210.413 254.984 210.559 254.703 210.748 254.49C210.932 254.278 211.172 254.176 211.457 254.176C211.741 254.176 211.975 254.278 212.159 254.49C212.348 254.703 212.488 254.984 212.582 255.333C212.677 255.69 212.722 256.081 212.722 256.515C212.722 256.948 212.677 257.34 212.582 257.688C212.488 258.046 212.348 258.318 212.159 258.53C211.975 258.735 211.741 258.845 211.457 258.845C211.172 258.845 210.932 258.735 210.748 258.53ZM216.282 260.044V255.724C216.282 255.435 216.32 255.179 216.408 254.958C216.497 254.737 216.611 254.567 216.763 254.439C216.908 254.32 217.072 254.261 217.25 254.261C217.515 254.261 217.724 254.371 217.888 254.584C218.053 254.805 218.135 255.103 218.135 255.469V260.044H219.355V255.613C219.355 255.213 219.438 254.89 219.608 254.635C219.779 254.388 220.013 254.261 220.31 254.261C220.563 254.261 220.778 254.363 220.949 254.567C221.126 254.771 221.215 255.094 221.215 255.537V260.044H222.461V255.273C222.461 254.482 222.309 253.878 221.999 253.47C221.695 253.053 221.297 252.849 220.81 252.849C220.431 252.849 220.095 252.968 219.817 253.206C219.539 253.436 219.343 253.751 219.223 254.15H219.172C219.071 253.751 218.894 253.427 218.647 253.198C218.401 252.968 218.103 252.849 217.743 252.849C217.389 252.849 217.085 252.968 216.832 253.198C216.579 253.427 216.396 253.742 216.288 254.15H216.225V252.943H215.036V260.044H216.282ZM224.971 262.706V258.922H225.022C225.091 259.1 225.18 259.279 225.3 259.475C225.42 259.67 225.585 259.832 225.781 259.968C225.983 260.104 226.23 260.172 226.533 260.172C226.951 260.172 227.324 260.027 227.646 259.738C227.975 259.449 228.234 259.032 228.424 258.488C228.614 257.944 228.709 257.28 228.709 256.506C228.709 255.715 228.614 255.043 228.424 254.499C228.228 253.955 227.969 253.546 227.64 253.266C227.311 252.985 226.938 252.849 226.533 252.849C226.223 252.849 225.97 252.917 225.768 253.062C225.572 253.198 225.414 253.368 225.294 253.563C225.18 253.759 225.085 253.946 225.022 254.116H224.952V252.943H223.725V262.706H224.971ZM225.091 255.298C225.186 254.958 225.325 254.695 225.509 254.508C225.699 254.32 225.92 254.227 226.185 254.227C226.464 254.227 226.698 254.32 226.881 254.516C227.071 254.712 227.21 254.975 227.305 255.315C227.393 255.664 227.444 256.055 227.444 256.489C227.444 256.94 227.393 257.331 227.299 257.68C227.204 258.029 227.065 258.301 226.881 258.496C226.691 258.701 226.464 258.794 226.185 258.794C225.926 258.794 225.699 258.701 225.515 258.505C225.332 258.318 225.193 258.046 225.091 257.697C224.997 257.357 224.946 256.948 224.946 256.489C224.946 256.03 224.997 255.639 225.091 255.298ZM232.016 260.036C232.219 259.925 232.389 259.789 232.529 259.619C232.661 259.449 232.769 259.262 232.845 259.066H232.883V260.044H234.084V255.29C234.084 254.822 234.021 254.422 233.888 254.108C233.762 253.793 233.597 253.546 233.389 253.368C233.18 253.181 232.946 253.053 232.699 252.968C232.446 252.892 232.193 252.849 231.934 252.849C231.567 252.849 231.232 252.926 230.929 253.07C230.619 253.215 230.366 253.436 230.151 253.725C229.942 254.014 229.79 254.38 229.695 254.814L230.859 255.035C230.922 254.788 231.042 254.576 231.219 254.397C231.397 254.218 231.637 254.133 231.94 254.133C232.231 254.133 232.453 254.227 232.604 254.414C232.763 254.61 232.838 254.882 232.838 255.222V255.256C232.838 255.418 232.794 255.528 232.706 255.605C232.617 255.681 232.478 255.741 232.282 255.775C232.092 255.809 231.839 255.851 231.529 255.894C231.276 255.928 231.023 255.987 230.789 256.072C230.549 256.149 230.334 256.268 230.144 256.43C229.948 256.583 229.803 256.795 229.689 257.059C229.582 257.323 229.525 257.654 229.525 258.054C229.525 258.513 229.6 258.905 229.759 259.228C229.91 259.543 230.125 259.781 230.391 259.942C230.657 260.104 230.96 260.189 231.295 260.189C231.567 260.189 231.808 260.138 232.016 260.036ZM230.979 258.726C230.808 258.564 230.726 258.335 230.726 258.02C230.726 257.808 230.77 257.629 230.853 257.493C230.941 257.357 231.055 257.246 231.2 257.17C231.346 257.093 231.51 257.042 231.7 257.008C231.782 256.991 231.877 256.974 231.991 256.948C232.105 256.931 232.219 256.906 232.332 256.88C232.446 256.846 232.547 256.821 232.642 256.778C232.737 256.744 232.8 256.702 232.838 256.659V257.493C232.838 257.756 232.788 258.003 232.693 258.224C232.592 258.445 232.453 258.624 232.269 258.76C232.086 258.888 231.865 258.956 231.618 258.956C231.359 258.956 231.144 258.879 230.979 258.726ZM236.721 255.009C236.823 254.771 236.949 254.584 237.12 254.456C237.291 254.329 237.48 254.261 237.702 254.261C238.018 254.261 238.271 254.397 238.454 254.669C238.638 254.933 238.726 255.307 238.726 255.783V260.044H239.972V255.52C239.972 254.958 239.902 254.473 239.751 254.074C239.599 253.674 239.39 253.376 239.118 253.164C238.846 252.951 238.53 252.849 238.163 252.849C237.771 252.849 237.436 252.968 237.17 253.198C236.905 253.436 236.709 253.751 236.589 254.15H236.525V252.943H235.336V260.044H236.582V255.885C236.582 255.537 236.627 255.247 236.721 255.009ZM242.856 262.477C243.09 262.332 243.286 262.128 243.45 261.864C243.615 261.592 243.747 261.278 243.842 260.903L245.967 252.951L244.633 252.943L243.412 258.309H243.355L242.141 252.943H240.819L242.736 260.189L242.628 260.58C242.508 260.971 242.356 261.201 242.173 261.269C241.989 261.337 241.762 261.32 241.49 261.218L241.205 262.511C241.287 262.562 241.401 262.604 241.547 262.638C241.686 262.672 241.844 262.698 242.015 262.698C242.337 262.698 242.622 262.621 242.856 262.477Z" fill="#0A151B"/>
<g opacity="0.0787067">
<path d="M183.711 300.908C201.169 300.908 215.344 319.971 215.344 343.45C215.344 366.929 201.169 385.992 183.711 385.992C166.254 385.992 152.079 366.929 152.079 343.45C152.079 319.971 166.254 300.908 183.711 300.908Z" fill="url(#paint6_linear_2_1944)"/>
</g>
<g opacity="0.210975">
<path d="M183.711 315.92C195.009 315.92 204.182 328.256 204.182 343.45C204.182 358.644 195.009 370.981 183.711 370.981C172.414 370.981 163.241 358.644 163.241 343.45C163.241 328.256 172.414 315.92 183.711 315.92Z" fill="url(#paint7_linear_2_1944)"/>
</g>
<g opacity="0.133596">
<path d="M183.711 333.225C187.908 333.225 191.315 337.807 191.315 343.45C191.315 349.094 187.908 353.676 183.711 353.676C179.515 353.676 176.108 349.094 176.108 343.45C176.108 337.807 179.515 333.225 183.711 333.225Z" fill="url(#paint8_linear_2_1944)"/>
</g>
<g opacity="0.01">
<path d="M447.389 427.809C487.597 427.809 520.242 471.713 520.242 525.788C520.242 579.863 487.597 623.767 447.389 623.767C407.181 623.767 374.536 579.863 374.536 525.788C374.536 471.713 407.181 427.809 447.389 427.809Z" fill="url(#paint9_linear_2_1944)"/>
</g>
</g>
<defs>
<linearGradient id="paint0_linear_2_1944" x1="178.462" y1="352.465" x2="191.328" y2="341.241" gradientUnits="userSpaceOnUse">
<stop stop-color="#5C2CC6"/>
<stop offset="0.5" stop-color="#6D47E2"/>
<stop offset="1" stop-color="#7D62FD"/>
</linearGradient>
<linearGradient id="paint1_linear_2_1944" x1="-nan" y1="-nan" x2="-nan" y2="-nan" gradientUnits="userSpaceOnUse">
<stop stop-color="#5C2CC6"/>
<stop offset="0.5" stop-color="#6D47E2"/>
<stop offset="1" stop-color="#7D62FD"/>
</linearGradient>
<linearGradient id="paint2_linear_2_1944" x1="-nan" y1="-nan" x2="-nan" y2="-nan" gradientUnits="userSpaceOnUse">
<stop stop-color="#5C2CC6"/>
<stop offset="0.5" stop-color="#6D47E2"/>
<stop offset="1" stop-color="#7D62FD"/>
</linearGradient>
<linearGradient id="paint3_linear_2_1944" x1="178.462" y1="308.238" x2="191.328" y2="297.014" gradientUnits="userSpaceOnUse">
<stop stop-color="#5C2CC6"/>
<stop offset="0.5" stop-color="#6D47E2"/>
<stop offset="1" stop-color="#7D62FD"/>
</linearGradient>
<linearGradient id="paint4_linear_2_1944" x1="-nan" y1="-nan" x2="-nan" y2="-nan" gradientUnits="userSpaceOnUse">
<stop stop-color="#5C2CC6"/>
<stop offset="0.5" stop-color="#6D47E2"/>
<stop offset="1" stop-color="#7D62FD"/>
</linearGradient>
<linearGradient id="paint5_linear_2_1944" x1="-nan" y1="-nan" x2="-nan" y2="-nan" gradientUnits="userSpaceOnUse">
<stop stop-color="#5C2CC6"/>
<stop offset="0.5" stop-color="#6D47E2"/>
<stop offset="1" stop-color="#7D62FD"/>
</linearGradient>
<linearGradient id="paint6_linear_2_1944" x1="146.227" y1="365.342" x2="218.669" y2="327.412" gradientUnits="userSpaceOnUse">
<stop stop-color="#5D2DC8"/>
<stop offset="0.5" stop-color="#6B44DF"/>
<stop offset="1" stop-color="#785BF6"/>
</linearGradient>
<linearGradient id="paint7_linear_2_1944" x1="163.129" y1="354.082" x2="206.282" y2="333.106" gradientUnits="userSpaceOnUse">
<stop stop-color="#5D2DC8"/>
<stop offset="0.5" stop-color="#6B44DF"/>
<stop offset="1" stop-color="#785BF6"/>
</linearGradient>
<linearGradient id="paint8_linear_2_1944" x1="160.776" y1="355.297" x2="208.861" y2="331.924" gradientUnits="userSpaceOnUse">
<stop stop-color="#5D2DC8"/>
<stop offset="0.5" stop-color="#6B44DF"/>
<stop offset="1" stop-color="#785BF6"/>
</linearGradient>
<linearGradient id="paint9_linear_2_1944" x1="361.057" y1="576.208" x2="527.901" y2="488.849" gradientUnits="userSpaceOnUse">
<stop stop-color="#5D2DC8"/>
<stop offset="0.5" stop-color="#6B44DF"/>
<stop offset="1" stop-color="#785BF6"/>
</linearGradient>
<clipPath id="clip0_2_1944">
<rect width="683" height="825" fill="white" transform="translate(38)"/>
</clipPath>
</defs>
</svg>
